G04 #@! TF.GenerationSoftware,KiCad,Pcbnew,(5.1.5-0-10_14)*
G04 #@! TF.CreationDate,2020-01-07T13:17:42-08:00*
G04 #@! TF.ProjectId,PARmeter,5041526d-6574-4657-922e-6b696361645f,rev?*
G04 #@! TF.SameCoordinates,Original*
G04 #@! TF.FileFunction,Soldermask,Bot*
G04 #@! TF.FilePolarity,Negative*
%FSLAX46Y46*%
G04 Gerber Fmt 4.6, Leading zero omitted, Abs format (unit mm)*
G04 Created by KiCad (PCBNEW (5.1.5-0-10_14)) date 2020-01-07 13:17:42*
%MOMM*%
%LPD*%
G04 APERTURE LIST*
%ADD10C,0.100000*%
G04 APERTURE END LIST*
D10*
G36*
X96608014Y-176531973D02*
G01*
X96711878Y-176563479D01*
X96755907Y-176587013D01*
X96807599Y-176614643D01*
X96807601Y-176614644D01*
X96807600Y-176614644D01*
X96891501Y-176683499D01*
X96960356Y-176767400D01*
X97011521Y-176863121D01*
X97043027Y-176966985D01*
X97051000Y-177047933D01*
X97051000Y-177752067D01*
X97043027Y-177833015D01*
X97011521Y-177936879D01*
X97011519Y-177936882D01*
X96960357Y-178032600D01*
X96891501Y-178116501D01*
X96807600Y-178185357D01*
X96739055Y-178221995D01*
X96711879Y-178236521D01*
X96608015Y-178268027D01*
X96500000Y-178278666D01*
X96391986Y-178268027D01*
X96288122Y-178236521D01*
X96260946Y-178221995D01*
X96192401Y-178185357D01*
X96108500Y-178116501D01*
X96039645Y-178032601D01*
X95988480Y-177936879D01*
X95956973Y-177833015D01*
X95949000Y-177752067D01*
X95949000Y-177047934D01*
X95956973Y-176966986D01*
X95988479Y-176863122D01*
X96039644Y-176767400D01*
X96108499Y-176683499D01*
X96192400Y-176614644D01*
X96192399Y-176614644D01*
X96192401Y-176614643D01*
X96244093Y-176587013D01*
X96288121Y-176563479D01*
X96391985Y-176531973D01*
X96500000Y-176521334D01*
X96608014Y-176531973D01*
G37*
G36*
X103608014Y-176531973D02*
G01*
X103711878Y-176563479D01*
X103755907Y-176587013D01*
X103807599Y-176614643D01*
X103807601Y-176614644D01*
X103807600Y-176614644D01*
X103891501Y-176683499D01*
X103960356Y-176767400D01*
X104011521Y-176863121D01*
X104043027Y-176966985D01*
X104051000Y-177047933D01*
X104051000Y-177752067D01*
X104043027Y-177833015D01*
X104011521Y-177936879D01*
X104011519Y-177936882D01*
X103960357Y-178032600D01*
X103891501Y-178116501D01*
X103807600Y-178185357D01*
X103739055Y-178221995D01*
X103711879Y-178236521D01*
X103608015Y-178268027D01*
X103500000Y-178278666D01*
X103391986Y-178268027D01*
X103288122Y-178236521D01*
X103260946Y-178221995D01*
X103192401Y-178185357D01*
X103108500Y-178116501D01*
X103039645Y-178032601D01*
X102988480Y-177936879D01*
X102956973Y-177833015D01*
X102949000Y-177752067D01*
X102949000Y-177047934D01*
X102956973Y-176966986D01*
X102988479Y-176863122D01*
X103039644Y-176767400D01*
X103108499Y-176683499D01*
X103192400Y-176614644D01*
X103192399Y-176614644D01*
X103192401Y-176614643D01*
X103244093Y-176587013D01*
X103288121Y-176563479D01*
X103391985Y-176531973D01*
X103500000Y-176521334D01*
X103608014Y-176531973D01*
G37*
G36*
X102753114Y-174181611D02*
G01*
X102852265Y-174211688D01*
X102943644Y-174260531D01*
X103023738Y-174326262D01*
X103089469Y-174406356D01*
X103138312Y-174497735D01*
X103168389Y-174596886D01*
X103178545Y-174700000D01*
X103168389Y-174803114D01*
X103138312Y-174902265D01*
X103089469Y-174993644D01*
X103023738Y-175073738D01*
X102943644Y-175139469D01*
X102852265Y-175188312D01*
X102753114Y-175218389D01*
X102675839Y-175226000D01*
X102324161Y-175226000D01*
X102246886Y-175218389D01*
X102147735Y-175188312D01*
X102056356Y-175139469D01*
X101976262Y-175073738D01*
X101910531Y-174993644D01*
X101861688Y-174902265D01*
X101831611Y-174803114D01*
X101821455Y-174700000D01*
X101831611Y-174596886D01*
X101861688Y-174497735D01*
X101910531Y-174406356D01*
X101976262Y-174326262D01*
X102056356Y-174260531D01*
X102147735Y-174211688D01*
X102246886Y-174181611D01*
X102324161Y-174174000D01*
X102675839Y-174174000D01*
X102753114Y-174181611D01*
G37*
G36*
X97753114Y-174181611D02*
G01*
X97852265Y-174211688D01*
X97943644Y-174260531D01*
X98023738Y-174326262D01*
X98089469Y-174406356D01*
X98138312Y-174497735D01*
X98168389Y-174596886D01*
X98178545Y-174700000D01*
X98168389Y-174803114D01*
X98138312Y-174902265D01*
X98089469Y-174993644D01*
X98023738Y-175073738D01*
X97943644Y-175139469D01*
X97852265Y-175188312D01*
X97753114Y-175218389D01*
X97675839Y-175226000D01*
X97324161Y-175226000D01*
X97246886Y-175218389D01*
X97147735Y-175188312D01*
X97056356Y-175139469D01*
X96976262Y-175073738D01*
X96910531Y-174993644D01*
X96861688Y-174902265D01*
X96831611Y-174803114D01*
X96821455Y-174700000D01*
X96831611Y-174596886D01*
X96861688Y-174497735D01*
X96910531Y-174406356D01*
X96976262Y-174326262D01*
X97056356Y-174260531D01*
X97147735Y-174211688D01*
X97246886Y-174181611D01*
X97324161Y-174174000D01*
X97675839Y-174174000D01*
X97753114Y-174181611D01*
G37*
G36*
X98752405Y-165903241D02*
G01*
X98791141Y-165910946D01*
X98821369Y-165923467D01*
X98864118Y-165941174D01*
X98929796Y-165985059D01*
X98985651Y-166040914D01*
X99029536Y-166106592D01*
X99059764Y-166179570D01*
X99075174Y-166257040D01*
X99075174Y-166336032D01*
X99059764Y-166413502D01*
X99029536Y-166486480D01*
X98985651Y-166552158D01*
X98929796Y-166608013D01*
X98864118Y-166651898D01*
X98821369Y-166669605D01*
X98791141Y-166682126D01*
X98752405Y-166689831D01*
X98713670Y-166697536D01*
X98634678Y-166697536D01*
X98595943Y-166689831D01*
X98557207Y-166682126D01*
X98526979Y-166669605D01*
X98484230Y-166651898D01*
X98418552Y-166608013D01*
X98362697Y-166552158D01*
X98318812Y-166486480D01*
X98288584Y-166413502D01*
X98273174Y-166336032D01*
X98273174Y-166257040D01*
X98288584Y-166179570D01*
X98318812Y-166106592D01*
X98362697Y-166040914D01*
X98418552Y-165985059D01*
X98484230Y-165941174D01*
X98526979Y-165923467D01*
X98557207Y-165910946D01*
X98595943Y-165903241D01*
X98634678Y-165895536D01*
X98713670Y-165895536D01*
X98752405Y-165903241D01*
G37*
G36*
X101521901Y-163079704D02*
G01*
X101622175Y-163121239D01*
X101622176Y-163121240D01*
X101712422Y-163181540D01*
X101789170Y-163258288D01*
X101789171Y-163258290D01*
X101849471Y-163348535D01*
X101891006Y-163448809D01*
X101912180Y-163555260D01*
X101912180Y-163663800D01*
X101891006Y-163770251D01*
X101849471Y-163870525D01*
X101849470Y-163870526D01*
X101789170Y-163960772D01*
X101712422Y-164037520D01*
X101666992Y-164067875D01*
X101622175Y-164097821D01*
X101521901Y-164139356D01*
X101415450Y-164160530D01*
X101306910Y-164160530D01*
X101200459Y-164139356D01*
X101100185Y-164097821D01*
X101055368Y-164067875D01*
X101009938Y-164037520D01*
X100933190Y-163960772D01*
X100872890Y-163870526D01*
X100872889Y-163870525D01*
X100831354Y-163770251D01*
X100810180Y-163663800D01*
X100810180Y-163555260D01*
X100831354Y-163448809D01*
X100872889Y-163348535D01*
X100933189Y-163258290D01*
X100933190Y-163258288D01*
X101009938Y-163181540D01*
X101100184Y-163121240D01*
X101100185Y-163121239D01*
X101200459Y-163079704D01*
X101306910Y-163058530D01*
X101415450Y-163058530D01*
X101521901Y-163079704D01*
G37*
G36*
X110625256Y-151991298D02*
G01*
X110731579Y-152012447D01*
X111032042Y-152136903D01*
X111302451Y-152317585D01*
X111532415Y-152547549D01*
X111713097Y-152817958D01*
X111827114Y-153093218D01*
X111837553Y-153118422D01*
X111901000Y-153437389D01*
X111901000Y-153762611D01*
X111864366Y-153946782D01*
X111837553Y-154081579D01*
X111713097Y-154382042D01*
X111532415Y-154652451D01*
X111302451Y-154882415D01*
X111032042Y-155063097D01*
X110731579Y-155187553D01*
X110625256Y-155208702D01*
X110412611Y-155251000D01*
X110087389Y-155251000D01*
X109874744Y-155208702D01*
X109768421Y-155187553D01*
X109467958Y-155063097D01*
X109197549Y-154882415D01*
X108967585Y-154652451D01*
X108786903Y-154382042D01*
X108662447Y-154081579D01*
X108635634Y-153946782D01*
X108599000Y-153762611D01*
X108599000Y-153437389D01*
X108662447Y-153118422D01*
X108672887Y-153093218D01*
X108786903Y-152817958D01*
X108967585Y-152547549D01*
X109197549Y-152317585D01*
X109467958Y-152136903D01*
X109768421Y-152012447D01*
X109874744Y-151991298D01*
X110087389Y-151949000D01*
X110412611Y-151949000D01*
X110625256Y-151991298D01*
G37*
G36*
X90125256Y-151991298D02*
G01*
X90231579Y-152012447D01*
X90532042Y-152136903D01*
X90802451Y-152317585D01*
X91032415Y-152547549D01*
X91213097Y-152817958D01*
X91327114Y-153093218D01*
X91337553Y-153118422D01*
X91401000Y-153437389D01*
X91401000Y-153762611D01*
X91364366Y-153946782D01*
X91337553Y-154081579D01*
X91213097Y-154382042D01*
X91032415Y-154652451D01*
X90802451Y-154882415D01*
X90532042Y-155063097D01*
X90231579Y-155187553D01*
X90125256Y-155208702D01*
X89912611Y-155251000D01*
X89587389Y-155251000D01*
X89374744Y-155208702D01*
X89268421Y-155187553D01*
X88967958Y-155063097D01*
X88697549Y-154882415D01*
X88467585Y-154652451D01*
X88286903Y-154382042D01*
X88162447Y-154081579D01*
X88135634Y-153946782D01*
X88099000Y-153762611D01*
X88099000Y-153437389D01*
X88162447Y-153118422D01*
X88172887Y-153093218D01*
X88286903Y-152817958D01*
X88467585Y-152547549D01*
X88697549Y-152317585D01*
X88967958Y-152136903D01*
X89268421Y-152012447D01*
X89374744Y-151991298D01*
X89587389Y-151949000D01*
X89912611Y-151949000D01*
X90125256Y-151991298D01*
G37*
G36*
X118813512Y-152623927D02*
G01*
X118962812Y-152653624D01*
X119126784Y-152721544D01*
X119274354Y-152820147D01*
X119399853Y-152945646D01*
X119498456Y-153093216D01*
X119566376Y-153257188D01*
X119601000Y-153431259D01*
X119601000Y-153608741D01*
X119566376Y-153782812D01*
X119498456Y-153946784D01*
X119399853Y-154094354D01*
X119274354Y-154219853D01*
X119126784Y-154318456D01*
X118962812Y-154386376D01*
X118813512Y-154416073D01*
X118788742Y-154421000D01*
X118611258Y-154421000D01*
X118586488Y-154416073D01*
X118437188Y-154386376D01*
X118273216Y-154318456D01*
X118125646Y-154219853D01*
X118000147Y-154094354D01*
X117901544Y-153946784D01*
X117833624Y-153782812D01*
X117799000Y-153608741D01*
X117799000Y-153431259D01*
X117833624Y-153257188D01*
X117901544Y-153093216D01*
X118000147Y-152945646D01*
X118125646Y-152820147D01*
X118273216Y-152721544D01*
X118437188Y-152653624D01*
X118586488Y-152623927D01*
X118611258Y-152619000D01*
X118788742Y-152619000D01*
X118813512Y-152623927D01*
G37*
G36*
X118813512Y-150083927D02*
G01*
X118962812Y-150113624D01*
X119126784Y-150181544D01*
X119274354Y-150280147D01*
X119399853Y-150405646D01*
X119498456Y-150553216D01*
X119566376Y-150717188D01*
X119601000Y-150891259D01*
X119601000Y-151068741D01*
X119566376Y-151242812D01*
X119498456Y-151406784D01*
X119399853Y-151554354D01*
X119274354Y-151679853D01*
X119126784Y-151778456D01*
X118962812Y-151846376D01*
X118813512Y-151876073D01*
X118788742Y-151881000D01*
X118611258Y-151881000D01*
X118586488Y-151876073D01*
X118437188Y-151846376D01*
X118273216Y-151778456D01*
X118125646Y-151679853D01*
X118000147Y-151554354D01*
X117901544Y-151406784D01*
X117833624Y-151242812D01*
X117799000Y-151068741D01*
X117799000Y-150891259D01*
X117833624Y-150717188D01*
X117901544Y-150553216D01*
X118000147Y-150405646D01*
X118125646Y-150280147D01*
X118273216Y-150181544D01*
X118437188Y-150113624D01*
X118586488Y-150083927D01*
X118611258Y-150079000D01*
X118788742Y-150079000D01*
X118813512Y-150083927D01*
G37*
G36*
X118813512Y-147543927D02*
G01*
X118962812Y-147573624D01*
X119126784Y-147641544D01*
X119274354Y-147740147D01*
X119399853Y-147865646D01*
X119498456Y-148013216D01*
X119566376Y-148177188D01*
X119601000Y-148351259D01*
X119601000Y-148528741D01*
X119566376Y-148702812D01*
X119498456Y-148866784D01*
X119399853Y-149014354D01*
X119274354Y-149139853D01*
X119126784Y-149238456D01*
X118962812Y-149306376D01*
X118813512Y-149336073D01*
X118788742Y-149341000D01*
X118611258Y-149341000D01*
X118586488Y-149336073D01*
X118437188Y-149306376D01*
X118273216Y-149238456D01*
X118125646Y-149139853D01*
X118000147Y-149014354D01*
X117901544Y-148866784D01*
X117833624Y-148702812D01*
X117799000Y-148528741D01*
X117799000Y-148351259D01*
X117833624Y-148177188D01*
X117901544Y-148013216D01*
X118000147Y-147865646D01*
X118125646Y-147740147D01*
X118273216Y-147641544D01*
X118437188Y-147573624D01*
X118586488Y-147543927D01*
X118611258Y-147539000D01*
X118788742Y-147539000D01*
X118813512Y-147543927D01*
G37*
G36*
X118813512Y-145003927D02*
G01*
X118962812Y-145033624D01*
X119126784Y-145101544D01*
X119274354Y-145200147D01*
X119399853Y-145325646D01*
X119498456Y-145473216D01*
X119566376Y-145637188D01*
X119601000Y-145811259D01*
X119601000Y-145988741D01*
X119566376Y-146162812D01*
X119498456Y-146326784D01*
X119399853Y-146474354D01*
X119274354Y-146599853D01*
X119126784Y-146698456D01*
X118962812Y-146766376D01*
X118813512Y-146796073D01*
X118788742Y-146801000D01*
X118611258Y-146801000D01*
X118586488Y-146796073D01*
X118437188Y-146766376D01*
X118273216Y-146698456D01*
X118125646Y-146599853D01*
X118000147Y-146474354D01*
X117901544Y-146326784D01*
X117833624Y-146162812D01*
X117799000Y-145988741D01*
X117799000Y-145811259D01*
X117833624Y-145637188D01*
X117901544Y-145473216D01*
X118000147Y-145325646D01*
X118125646Y-145200147D01*
X118273216Y-145101544D01*
X118437188Y-145033624D01*
X118586488Y-145003927D01*
X118611258Y-144999000D01*
X118788742Y-144999000D01*
X118813512Y-145003927D01*
G37*
G36*
X118813512Y-142463927D02*
G01*
X118962812Y-142493624D01*
X119126784Y-142561544D01*
X119274354Y-142660147D01*
X119399853Y-142785646D01*
X119498456Y-142933216D01*
X119566376Y-143097188D01*
X119601000Y-143271259D01*
X119601000Y-143448741D01*
X119566376Y-143622812D01*
X119498456Y-143786784D01*
X119399853Y-143934354D01*
X119274354Y-144059853D01*
X119126784Y-144158456D01*
X118962812Y-144226376D01*
X118813512Y-144256073D01*
X118788742Y-144261000D01*
X118611258Y-144261000D01*
X118586488Y-144256073D01*
X118437188Y-144226376D01*
X118273216Y-144158456D01*
X118125646Y-144059853D01*
X118000147Y-143934354D01*
X117901544Y-143786784D01*
X117833624Y-143622812D01*
X117799000Y-143448741D01*
X117799000Y-143271259D01*
X117833624Y-143097188D01*
X117901544Y-142933216D01*
X118000147Y-142785646D01*
X118125646Y-142660147D01*
X118273216Y-142561544D01*
X118437188Y-142493624D01*
X118586488Y-142463927D01*
X118611258Y-142459000D01*
X118788742Y-142459000D01*
X118813512Y-142463927D01*
G37*
G36*
X118813512Y-139923927D02*
G01*
X118962812Y-139953624D01*
X119126784Y-140021544D01*
X119274354Y-140120147D01*
X119399853Y-140245646D01*
X119498456Y-140393216D01*
X119566376Y-140557188D01*
X119601000Y-140731259D01*
X119601000Y-140908741D01*
X119566376Y-141082812D01*
X119498456Y-141246784D01*
X119399853Y-141394354D01*
X119274354Y-141519853D01*
X119126784Y-141618456D01*
X118962812Y-141686376D01*
X118813512Y-141716073D01*
X118788742Y-141721000D01*
X118611258Y-141721000D01*
X118586488Y-141716073D01*
X118437188Y-141686376D01*
X118273216Y-141618456D01*
X118125646Y-141519853D01*
X118000147Y-141394354D01*
X117901544Y-141246784D01*
X117833624Y-141082812D01*
X117799000Y-140908741D01*
X117799000Y-140731259D01*
X117833624Y-140557188D01*
X117901544Y-140393216D01*
X118000147Y-140245646D01*
X118125646Y-140120147D01*
X118273216Y-140021544D01*
X118437188Y-139953624D01*
X118586488Y-139923927D01*
X118611258Y-139919000D01*
X118788742Y-139919000D01*
X118813512Y-139923927D01*
G37*
G36*
X118813512Y-137383927D02*
G01*
X118962812Y-137413624D01*
X119126784Y-137481544D01*
X119274354Y-137580147D01*
X119399853Y-137705646D01*
X119498456Y-137853216D01*
X119566376Y-138017188D01*
X119601000Y-138191259D01*
X119601000Y-138368741D01*
X119566376Y-138542812D01*
X119498456Y-138706784D01*
X119399853Y-138854354D01*
X119274354Y-138979853D01*
X119126784Y-139078456D01*
X118962812Y-139146376D01*
X118813512Y-139176073D01*
X118788742Y-139181000D01*
X118611258Y-139181000D01*
X118586488Y-139176073D01*
X118437188Y-139146376D01*
X118273216Y-139078456D01*
X118125646Y-138979853D01*
X118000147Y-138854354D01*
X117901544Y-138706784D01*
X117833624Y-138542812D01*
X117799000Y-138368741D01*
X117799000Y-138191259D01*
X117833624Y-138017188D01*
X117901544Y-137853216D01*
X118000147Y-137705646D01*
X118125646Y-137580147D01*
X118273216Y-137481544D01*
X118437188Y-137413624D01*
X118586488Y-137383927D01*
X118611258Y-137379000D01*
X118788742Y-137379000D01*
X118813512Y-137383927D01*
G37*
G36*
X118813512Y-134843927D02*
G01*
X118962812Y-134873624D01*
X119126784Y-134941544D01*
X119274354Y-135040147D01*
X119399853Y-135165646D01*
X119498456Y-135313216D01*
X119566376Y-135477188D01*
X119601000Y-135651259D01*
X119601000Y-135828741D01*
X119566376Y-136002812D01*
X119498456Y-136166784D01*
X119399853Y-136314354D01*
X119274354Y-136439853D01*
X119126784Y-136538456D01*
X118962812Y-136606376D01*
X118813512Y-136636073D01*
X118788742Y-136641000D01*
X118611258Y-136641000D01*
X118586488Y-136636073D01*
X118437188Y-136606376D01*
X118273216Y-136538456D01*
X118125646Y-136439853D01*
X118000147Y-136314354D01*
X117901544Y-136166784D01*
X117833624Y-136002812D01*
X117799000Y-135828741D01*
X117799000Y-135651259D01*
X117833624Y-135477188D01*
X117901544Y-135313216D01*
X118000147Y-135165646D01*
X118125646Y-135040147D01*
X118273216Y-134941544D01*
X118437188Y-134873624D01*
X118586488Y-134843927D01*
X118611258Y-134839000D01*
X118788742Y-134839000D01*
X118813512Y-134843927D01*
G37*
G36*
X119601000Y-134101000D02*
G01*
X117799000Y-134101000D01*
X117799000Y-132299000D01*
X119601000Y-132299000D01*
X119601000Y-134101000D01*
G37*
G36*
X110625256Y-128991298D02*
G01*
X110731579Y-129012447D01*
X111032042Y-129136903D01*
X111302451Y-129317585D01*
X111532415Y-129547549D01*
X111713097Y-129817958D01*
X111837553Y-130118421D01*
X111851541Y-130188742D01*
X111901000Y-130437389D01*
X111901000Y-130762611D01*
X111868344Y-130926782D01*
X111837553Y-131081579D01*
X111788562Y-131199853D01*
X111719587Y-131366375D01*
X111713097Y-131382042D01*
X111532415Y-131652451D01*
X111302451Y-131882415D01*
X111032042Y-132063097D01*
X110731579Y-132187553D01*
X110625256Y-132208702D01*
X110412611Y-132251000D01*
X110087389Y-132251000D01*
X109874744Y-132208702D01*
X109768421Y-132187553D01*
X109467958Y-132063097D01*
X109197549Y-131882415D01*
X108967585Y-131652451D01*
X108786903Y-131382042D01*
X108780414Y-131366375D01*
X108711438Y-131199853D01*
X108662447Y-131081579D01*
X108631656Y-130926782D01*
X108599000Y-130762611D01*
X108599000Y-130437389D01*
X108648459Y-130188742D01*
X108662447Y-130118421D01*
X108786903Y-129817958D01*
X108967585Y-129547549D01*
X109197549Y-129317585D01*
X109467958Y-129136903D01*
X109768421Y-129012447D01*
X109874744Y-128991298D01*
X110087389Y-128949000D01*
X110412611Y-128949000D01*
X110625256Y-128991298D01*
G37*
G36*
X90125256Y-128991298D02*
G01*
X90231579Y-129012447D01*
X90532042Y-129136903D01*
X90802451Y-129317585D01*
X91032415Y-129547549D01*
X91213097Y-129817958D01*
X91337553Y-130118421D01*
X91351541Y-130188742D01*
X91401000Y-130437389D01*
X91401000Y-130762611D01*
X91368344Y-130926782D01*
X91337553Y-131081579D01*
X91288562Y-131199853D01*
X91219587Y-131366375D01*
X91213097Y-131382042D01*
X91032415Y-131652451D01*
X90802451Y-131882415D01*
X90532042Y-132063097D01*
X90231579Y-132187553D01*
X90125256Y-132208702D01*
X89912611Y-132251000D01*
X89587389Y-132251000D01*
X89374744Y-132208702D01*
X89268421Y-132187553D01*
X88967958Y-132063097D01*
X88697549Y-131882415D01*
X88467585Y-131652451D01*
X88286903Y-131382042D01*
X88280414Y-131366375D01*
X88211438Y-131199853D01*
X88162447Y-131081579D01*
X88131656Y-130926782D01*
X88099000Y-130762611D01*
X88099000Y-130437389D01*
X88148459Y-130188742D01*
X88162447Y-130118421D01*
X88286903Y-129817958D01*
X88467585Y-129547549D01*
X88697549Y-129317585D01*
X88967958Y-129136903D01*
X89268421Y-129012447D01*
X89374744Y-128991298D01*
X89587389Y-128949000D01*
X89912611Y-128949000D01*
X90125256Y-128991298D01*
G37*
G36*
X81673512Y-129603927D02*
G01*
X81822812Y-129633624D01*
X81986784Y-129701544D01*
X82134354Y-129800147D01*
X82259853Y-129925646D01*
X82358456Y-130073216D01*
X82426376Y-130237188D01*
X82461000Y-130411259D01*
X82461000Y-130588741D01*
X82426376Y-130762812D01*
X82358456Y-130926784D01*
X82259853Y-131074354D01*
X82134354Y-131199853D01*
X81986784Y-131298456D01*
X81822812Y-131366376D01*
X81673512Y-131396073D01*
X81648742Y-131401000D01*
X81471258Y-131401000D01*
X81446488Y-131396073D01*
X81297188Y-131366376D01*
X81133216Y-131298456D01*
X80985646Y-131199853D01*
X80860147Y-131074354D01*
X80761544Y-130926784D01*
X80693624Y-130762812D01*
X80659000Y-130588741D01*
X80659000Y-130411259D01*
X80693624Y-130237188D01*
X80761544Y-130073216D01*
X80860147Y-129925646D01*
X80985646Y-129800147D01*
X81133216Y-129701544D01*
X81297188Y-129633624D01*
X81446488Y-129603927D01*
X81471258Y-129599000D01*
X81648742Y-129599000D01*
X81673512Y-129603927D01*
G37*
G36*
X85001000Y-131401000D02*
G01*
X83199000Y-131401000D01*
X83199000Y-129599000D01*
X85001000Y-129599000D01*
X85001000Y-131401000D01*
G37*
G36*
X103923512Y-129203927D02*
G01*
X104072812Y-129233624D01*
X104236784Y-129301544D01*
X104384354Y-129400147D01*
X104509853Y-129525646D01*
X104608456Y-129673216D01*
X104676376Y-129837188D01*
X104711000Y-130011259D01*
X104711000Y-130188741D01*
X104676376Y-130362812D01*
X104608456Y-130526784D01*
X104509853Y-130674354D01*
X104384354Y-130799853D01*
X104236784Y-130898456D01*
X104072812Y-130966376D01*
X103923512Y-130996073D01*
X103898742Y-131001000D01*
X103721258Y-131001000D01*
X103696488Y-130996073D01*
X103547188Y-130966376D01*
X103383216Y-130898456D01*
X103235646Y-130799853D01*
X103110147Y-130674354D01*
X103011544Y-130526784D01*
X102943624Y-130362812D01*
X102909000Y-130188741D01*
X102909000Y-130011259D01*
X102943624Y-129837188D01*
X103011544Y-129673216D01*
X103110147Y-129525646D01*
X103235646Y-129400147D01*
X103383216Y-129301544D01*
X103547188Y-129233624D01*
X103696488Y-129203927D01*
X103721258Y-129199000D01*
X103898742Y-129199000D01*
X103923512Y-129203927D01*
G37*
G36*
X101383512Y-129203927D02*
G01*
X101532812Y-129233624D01*
X101696784Y-129301544D01*
X101844354Y-129400147D01*
X101969853Y-129525646D01*
X102068456Y-129673216D01*
X102136376Y-129837188D01*
X102171000Y-130011259D01*
X102171000Y-130188741D01*
X102136376Y-130362812D01*
X102068456Y-130526784D01*
X101969853Y-130674354D01*
X101844354Y-130799853D01*
X101696784Y-130898456D01*
X101532812Y-130966376D01*
X101383512Y-130996073D01*
X101358742Y-131001000D01*
X101181258Y-131001000D01*
X101156488Y-130996073D01*
X101007188Y-130966376D01*
X100843216Y-130898456D01*
X100695646Y-130799853D01*
X100570147Y-130674354D01*
X100471544Y-130526784D01*
X100403624Y-130362812D01*
X100369000Y-130188741D01*
X100369000Y-130011259D01*
X100403624Y-129837188D01*
X100471544Y-129673216D01*
X100570147Y-129525646D01*
X100695646Y-129400147D01*
X100843216Y-129301544D01*
X101007188Y-129233624D01*
X101156488Y-129203927D01*
X101181258Y-129199000D01*
X101358742Y-129199000D01*
X101383512Y-129203927D01*
G37*
G36*
X98843512Y-129203927D02*
G01*
X98992812Y-129233624D01*
X99156784Y-129301544D01*
X99304354Y-129400147D01*
X99429853Y-129525646D01*
X99528456Y-129673216D01*
X99596376Y-129837188D01*
X99631000Y-130011259D01*
X99631000Y-130188741D01*
X99596376Y-130362812D01*
X99528456Y-130526784D01*
X99429853Y-130674354D01*
X99304354Y-130799853D01*
X99156784Y-130898456D01*
X98992812Y-130966376D01*
X98843512Y-130996073D01*
X98818742Y-131001000D01*
X98641258Y-131001000D01*
X98616488Y-130996073D01*
X98467188Y-130966376D01*
X98303216Y-130898456D01*
X98155646Y-130799853D01*
X98030147Y-130674354D01*
X97931544Y-130526784D01*
X97863624Y-130362812D01*
X97829000Y-130188741D01*
X97829000Y-130011259D01*
X97863624Y-129837188D01*
X97931544Y-129673216D01*
X98030147Y-129525646D01*
X98155646Y-129400147D01*
X98303216Y-129301544D01*
X98467188Y-129233624D01*
X98616488Y-129203927D01*
X98641258Y-129199000D01*
X98818742Y-129199000D01*
X98843512Y-129203927D01*
G37*
G36*
X96303512Y-129203927D02*
G01*
X96452812Y-129233624D01*
X96616784Y-129301544D01*
X96764354Y-129400147D01*
X96889853Y-129525646D01*
X96988456Y-129673216D01*
X97056376Y-129837188D01*
X97091000Y-130011259D01*
X97091000Y-130188741D01*
X97056376Y-130362812D01*
X96988456Y-130526784D01*
X96889853Y-130674354D01*
X96764354Y-130799853D01*
X96616784Y-130898456D01*
X96452812Y-130966376D01*
X96303512Y-130996073D01*
X96278742Y-131001000D01*
X96101258Y-131001000D01*
X96076488Y-130996073D01*
X95927188Y-130966376D01*
X95763216Y-130898456D01*
X95615646Y-130799853D01*
X95490147Y-130674354D01*
X95391544Y-130526784D01*
X95323624Y-130362812D01*
X95289000Y-130188741D01*
X95289000Y-130011259D01*
X95323624Y-129837188D01*
X95391544Y-129673216D01*
X95490147Y-129525646D01*
X95615646Y-129400147D01*
X95763216Y-129301544D01*
X95927188Y-129233624D01*
X96076488Y-129203927D01*
X96101258Y-129199000D01*
X96278742Y-129199000D01*
X96303512Y-129203927D01*
G37*
M02*
