G04 #@! TF.GenerationSoftware,KiCad,Pcbnew,(5.1.5-0-10_14)*
G04 #@! TF.CreationDate,2020-01-07T13:17:42-08:00*
G04 #@! TF.ProjectId,PARmeter,5041526d-6574-4657-922e-6b696361645f,rev?*
G04 #@! TF.SameCoordinates,Original*
G04 #@! TF.FileFunction,Legend,Bot*
G04 #@! TF.FilePolarity,Positive*
%FSLAX46Y46*%
G04 Gerber Fmt 4.6, Leading zero omitted, Abs format (unit mm)*
G04 Created by KiCad (PCBNEW (5.1.5-0-10_14)) date 2020-01-07 13:17:42*
%MOMM*%
%LPD*%
G04 APERTURE LIST*
%ADD10C,0.300000*%
G04 APERTURE END LIST*
D10*
X116442857Y-152750000D02*
X116585714Y-152678571D01*
X116800000Y-152678571D01*
X117014285Y-152750000D01*
X117157142Y-152892857D01*
X117228571Y-153035714D01*
X117300000Y-153321428D01*
X117300000Y-153535714D01*
X117228571Y-153821428D01*
X117157142Y-153964285D01*
X117014285Y-154107142D01*
X116800000Y-154178571D01*
X116657142Y-154178571D01*
X116442857Y-154107142D01*
X116371428Y-154035714D01*
X116371428Y-153535714D01*
X116657142Y-153535714D01*
X115728571Y-154178571D02*
X115728571Y-152678571D01*
X114871428Y-154178571D01*
X114871428Y-152678571D01*
X114157142Y-154178571D02*
X114157142Y-152678571D01*
X113800000Y-152678571D01*
X113585714Y-152750000D01*
X113442857Y-152892857D01*
X113371428Y-153035714D01*
X113300000Y-153321428D01*
X113300000Y-153535714D01*
X113371428Y-153821428D01*
X113442857Y-153964285D01*
X113585714Y-154107142D01*
X113800000Y-154178571D01*
X114157142Y-154178571D01*
X116478571Y-151778571D02*
X116978571Y-151064285D01*
X117335714Y-151778571D02*
X117335714Y-150278571D01*
X116764285Y-150278571D01*
X116621428Y-150350000D01*
X116550000Y-150421428D01*
X116478571Y-150564285D01*
X116478571Y-150778571D01*
X116550000Y-150921428D01*
X116621428Y-150992857D01*
X116764285Y-151064285D01*
X117335714Y-151064285D01*
X115907142Y-151707142D02*
X115692857Y-151778571D01*
X115335714Y-151778571D01*
X115192857Y-151707142D01*
X115121428Y-151635714D01*
X115050000Y-151492857D01*
X115050000Y-151350000D01*
X115121428Y-151207142D01*
X115192857Y-151135714D01*
X115335714Y-151064285D01*
X115621428Y-150992857D01*
X115764285Y-150921428D01*
X115835714Y-150850000D01*
X115907142Y-150707142D01*
X115907142Y-150564285D01*
X115835714Y-150421428D01*
X115764285Y-150350000D01*
X115621428Y-150278571D01*
X115264285Y-150278571D01*
X115050000Y-150350000D01*
X114621428Y-150278571D02*
X113764285Y-150278571D01*
X114192857Y-151778571D02*
X114192857Y-150278571D01*
X113621428Y-151921428D02*
X112478571Y-151921428D01*
X112121428Y-151778571D02*
X112121428Y-150278571D01*
X111264285Y-151778571D01*
X111264285Y-150278571D01*
X117328571Y-147678571D02*
X117328571Y-148892857D01*
X117257142Y-149035714D01*
X117185714Y-149107142D01*
X117042857Y-149178571D01*
X116757142Y-149178571D01*
X116614285Y-149107142D01*
X116542857Y-149035714D01*
X116471428Y-148892857D01*
X116471428Y-147678571D01*
X115828571Y-148750000D02*
X115114285Y-148750000D01*
X115971428Y-149178571D02*
X115471428Y-147678571D01*
X114971428Y-149178571D01*
X113614285Y-149178571D02*
X114114285Y-148464285D01*
X114471428Y-149178571D02*
X114471428Y-147678571D01*
X113900000Y-147678571D01*
X113757142Y-147750000D01*
X113685714Y-147821428D01*
X113614285Y-147964285D01*
X113614285Y-148178571D01*
X113685714Y-148321428D01*
X113757142Y-148392857D01*
X113900000Y-148464285D01*
X114471428Y-148464285D01*
X113185714Y-147678571D02*
X112328571Y-147678571D01*
X112757142Y-149178571D02*
X112757142Y-147678571D01*
X112185714Y-149321428D02*
X111042857Y-149321428D01*
X109828571Y-149178571D02*
X110328571Y-148464285D01*
X110685714Y-149178571D02*
X110685714Y-147678571D01*
X110114285Y-147678571D01*
X109971428Y-147750000D01*
X109900000Y-147821428D01*
X109828571Y-147964285D01*
X109828571Y-148178571D01*
X109900000Y-148321428D01*
X109971428Y-148392857D01*
X110114285Y-148464285D01*
X110685714Y-148464285D01*
X109328571Y-147678571D02*
X108328571Y-149178571D01*
X108328571Y-147678571D02*
X109328571Y-149178571D01*
X117350000Y-145078571D02*
X117350000Y-146292857D01*
X117278571Y-146435714D01*
X117207142Y-146507142D01*
X117064285Y-146578571D01*
X116778571Y-146578571D01*
X116635714Y-146507142D01*
X116564285Y-146435714D01*
X116492857Y-146292857D01*
X116492857Y-145078571D01*
X115850000Y-146150000D02*
X115135714Y-146150000D01*
X115992857Y-146578571D02*
X115492857Y-145078571D01*
X114992857Y-146578571D01*
X113635714Y-146578571D02*
X114135714Y-145864285D01*
X114492857Y-146578571D02*
X114492857Y-145078571D01*
X113921428Y-145078571D01*
X113778571Y-145150000D01*
X113707142Y-145221428D01*
X113635714Y-145364285D01*
X113635714Y-145578571D01*
X113707142Y-145721428D01*
X113778571Y-145792857D01*
X113921428Y-145864285D01*
X114492857Y-145864285D01*
X113207142Y-145078571D02*
X112350000Y-145078571D01*
X112778571Y-146578571D02*
X112778571Y-145078571D01*
X112207142Y-146721428D02*
X111064285Y-146721428D01*
X110921428Y-145078571D02*
X110064285Y-145078571D01*
X110492857Y-146578571D02*
X110492857Y-145078571D01*
X109707142Y-145078571D02*
X108707142Y-146578571D01*
X108707142Y-145078571D02*
X109707142Y-146578571D01*
X117278571Y-144007142D02*
X117064285Y-144078571D01*
X116707142Y-144078571D01*
X116564285Y-144007142D01*
X116492857Y-143935714D01*
X116421428Y-143792857D01*
X116421428Y-143650000D01*
X116492857Y-143507142D01*
X116564285Y-143435714D01*
X116707142Y-143364285D01*
X116992857Y-143292857D01*
X117135714Y-143221428D01*
X117207142Y-143150000D01*
X117278571Y-143007142D01*
X117278571Y-142864285D01*
X117207142Y-142721428D01*
X117135714Y-142650000D01*
X116992857Y-142578571D01*
X116635714Y-142578571D01*
X116421428Y-142650000D01*
X115921428Y-142578571D02*
X115564285Y-144078571D01*
X115278571Y-143007142D01*
X114992857Y-144078571D01*
X114635714Y-142578571D01*
X114064285Y-144078571D02*
X114064285Y-142578571D01*
X113707142Y-142578571D01*
X113492857Y-142650000D01*
X113350000Y-142792857D01*
X113278571Y-142935714D01*
X113207142Y-143221428D01*
X113207142Y-143435714D01*
X113278571Y-143721428D01*
X113350000Y-143864285D01*
X113492857Y-144007142D01*
X113707142Y-144078571D01*
X114064285Y-144078571D01*
X112564285Y-144078571D02*
X112564285Y-142578571D01*
X111564285Y-142578571D02*
X111278571Y-142578571D01*
X111135714Y-142650000D01*
X110992857Y-142792857D01*
X110921428Y-143078571D01*
X110921428Y-143578571D01*
X110992857Y-143864285D01*
X111135714Y-144007142D01*
X111278571Y-144078571D01*
X111564285Y-144078571D01*
X111707142Y-144007142D01*
X111850000Y-143864285D01*
X111921428Y-143578571D01*
X111921428Y-143078571D01*
X111850000Y-142792857D01*
X111707142Y-142650000D01*
X111564285Y-142578571D01*
X117292857Y-141507142D02*
X117078571Y-141578571D01*
X116721428Y-141578571D01*
X116578571Y-141507142D01*
X116507142Y-141435714D01*
X116435714Y-141292857D01*
X116435714Y-141150000D01*
X116507142Y-141007142D01*
X116578571Y-140935714D01*
X116721428Y-140864285D01*
X117007142Y-140792857D01*
X117150000Y-140721428D01*
X117221428Y-140650000D01*
X117292857Y-140507142D01*
X117292857Y-140364285D01*
X117221428Y-140221428D01*
X117150000Y-140150000D01*
X117007142Y-140078571D01*
X116650000Y-140078571D01*
X116435714Y-140150000D01*
X115935714Y-140078571D02*
X115578571Y-141578571D01*
X115292857Y-140507142D01*
X115007142Y-141578571D01*
X114650000Y-140078571D01*
X113221428Y-141435714D02*
X113292857Y-141507142D01*
X113507142Y-141578571D01*
X113650000Y-141578571D01*
X113864285Y-141507142D01*
X114007142Y-141364285D01*
X114078571Y-141221428D01*
X114150000Y-140935714D01*
X114150000Y-140721428D01*
X114078571Y-140435714D01*
X114007142Y-140292857D01*
X113864285Y-140150000D01*
X113650000Y-140078571D01*
X113507142Y-140078571D01*
X113292857Y-140150000D01*
X113221428Y-140221428D01*
X111864285Y-141578571D02*
X112578571Y-141578571D01*
X112578571Y-140078571D01*
X111364285Y-141578571D02*
X111364285Y-140078571D01*
X110507142Y-141578571D02*
X111150000Y-140721428D01*
X110507142Y-140078571D02*
X111364285Y-140935714D01*
X116750000Y-138292857D02*
X116535714Y-138364285D01*
X116464285Y-138435714D01*
X116392857Y-138578571D01*
X116392857Y-138792857D01*
X116464285Y-138935714D01*
X116535714Y-139007142D01*
X116678571Y-139078571D01*
X117250000Y-139078571D01*
X117250000Y-137578571D01*
X116750000Y-137578571D01*
X116607142Y-137650000D01*
X116535714Y-137721428D01*
X116464285Y-137864285D01*
X116464285Y-138007142D01*
X116535714Y-138150000D01*
X116607142Y-138221428D01*
X116750000Y-138292857D01*
X117250000Y-138292857D01*
X115464285Y-137578571D02*
X115178571Y-137578571D01*
X115035714Y-137650000D01*
X114892857Y-137792857D01*
X114821428Y-138078571D01*
X114821428Y-138578571D01*
X114892857Y-138864285D01*
X115035714Y-139007142D01*
X115178571Y-139078571D01*
X115464285Y-139078571D01*
X115607142Y-139007142D01*
X115750000Y-138864285D01*
X115821428Y-138578571D01*
X115821428Y-138078571D01*
X115750000Y-137792857D01*
X115607142Y-137650000D01*
X115464285Y-137578571D01*
X113892857Y-137578571D02*
X113607142Y-137578571D01*
X113464285Y-137650000D01*
X113321428Y-137792857D01*
X113250000Y-138078571D01*
X113250000Y-138578571D01*
X113321428Y-138864285D01*
X113464285Y-139007142D01*
X113607142Y-139078571D01*
X113892857Y-139078571D01*
X114035714Y-139007142D01*
X114178571Y-138864285D01*
X114250000Y-138578571D01*
X114250000Y-138078571D01*
X114178571Y-137792857D01*
X114035714Y-137650000D01*
X113892857Y-137578571D01*
X112821428Y-137578571D02*
X111964285Y-137578571D01*
X112392857Y-139078571D02*
X112392857Y-137578571D01*
X111178571Y-137578571D02*
X111035714Y-137578571D01*
X110892857Y-137650000D01*
X110821428Y-137721428D01*
X110750000Y-137864285D01*
X110678571Y-138150000D01*
X110678571Y-138507142D01*
X110750000Y-138792857D01*
X110821428Y-138935714D01*
X110892857Y-139007142D01*
X111035714Y-139078571D01*
X111178571Y-139078571D01*
X111321428Y-139007142D01*
X111392857Y-138935714D01*
X111464285Y-138792857D01*
X111535714Y-138507142D01*
X111535714Y-138150000D01*
X111464285Y-137864285D01*
X111392857Y-137721428D01*
X111321428Y-137650000D01*
X111178571Y-137578571D01*
X116650000Y-135692857D02*
X116435714Y-135764285D01*
X116364285Y-135835714D01*
X116292857Y-135978571D01*
X116292857Y-136192857D01*
X116364285Y-136335714D01*
X116435714Y-136407142D01*
X116578571Y-136478571D01*
X117150000Y-136478571D01*
X117150000Y-134978571D01*
X116650000Y-134978571D01*
X116507142Y-135050000D01*
X116435714Y-135121428D01*
X116364285Y-135264285D01*
X116364285Y-135407142D01*
X116435714Y-135550000D01*
X116507142Y-135621428D01*
X116650000Y-135692857D01*
X117150000Y-135692857D01*
X115364285Y-134978571D02*
X115078571Y-134978571D01*
X114935714Y-135050000D01*
X114792857Y-135192857D01*
X114721428Y-135478571D01*
X114721428Y-135978571D01*
X114792857Y-136264285D01*
X114935714Y-136407142D01*
X115078571Y-136478571D01*
X115364285Y-136478571D01*
X115507142Y-136407142D01*
X115650000Y-136264285D01*
X115721428Y-135978571D01*
X115721428Y-135478571D01*
X115650000Y-135192857D01*
X115507142Y-135050000D01*
X115364285Y-134978571D01*
X113792857Y-134978571D02*
X113507142Y-134978571D01*
X113364285Y-135050000D01*
X113221428Y-135192857D01*
X113150000Y-135478571D01*
X113150000Y-135978571D01*
X113221428Y-136264285D01*
X113364285Y-136407142D01*
X113507142Y-136478571D01*
X113792857Y-136478571D01*
X113935714Y-136407142D01*
X114078571Y-136264285D01*
X114150000Y-135978571D01*
X114150000Y-135478571D01*
X114078571Y-135192857D01*
X113935714Y-135050000D01*
X113792857Y-134978571D01*
X112721428Y-134978571D02*
X111864285Y-134978571D01*
X112292857Y-136478571D02*
X112292857Y-134978571D01*
X110578571Y-136478571D02*
X111435714Y-136478571D01*
X111007142Y-136478571D02*
X111007142Y-134978571D01*
X111150000Y-135192857D01*
X111292857Y-135335714D01*
X111435714Y-135407142D01*
X117114285Y-132478571D02*
X116185714Y-132478571D01*
X116685714Y-133050000D01*
X116471428Y-133050000D01*
X116328571Y-133121428D01*
X116257142Y-133192857D01*
X116185714Y-133335714D01*
X116185714Y-133692857D01*
X116257142Y-133835714D01*
X116328571Y-133907142D01*
X116471428Y-133978571D01*
X116900000Y-133978571D01*
X117042857Y-133907142D01*
X117114285Y-133835714D01*
X115542857Y-133835714D02*
X115471428Y-133907142D01*
X115542857Y-133978571D01*
X115614285Y-133907142D01*
X115542857Y-133835714D01*
X115542857Y-133978571D01*
X114971428Y-132478571D02*
X114042857Y-132478571D01*
X114542857Y-133050000D01*
X114328571Y-133050000D01*
X114185714Y-133121428D01*
X114114285Y-133192857D01*
X114042857Y-133335714D01*
X114042857Y-133692857D01*
X114114285Y-133835714D01*
X114185714Y-133907142D01*
X114328571Y-133978571D01*
X114757142Y-133978571D01*
X114900000Y-133907142D01*
X114971428Y-133835714D01*
X113614285Y-132478571D02*
X113114285Y-133978571D01*
X112614285Y-132478571D01*
M02*
