G04 #@! TF.GenerationSoftware,KiCad,Pcbnew,(5.1.5-0-10_14)*
G04 #@! TF.CreationDate,2020-01-07T13:17:42-08:00*
G04 #@! TF.ProjectId,PARmeter,5041526d-6574-4657-922e-6b696361645f,rev?*
G04 #@! TF.SameCoordinates,Original*
G04 #@! TF.FileFunction,Copper,L2,Bot*
G04 #@! TF.FilePolarity,Positive*
%FSLAX46Y46*%
G04 Gerber Fmt 4.6, Leading zero omitted, Abs format (unit mm)*
G04 Created by KiCad (PCBNEW (5.1.5-0-10_14)) date 2020-01-07 13:17:42*
%MOMM*%
%LPD*%
G04 APERTURE LIST*
%ADD10C,1.700000*%
%ADD11O,1.700000X1.700000*%
%ADD12R,1.700000X1.700000*%
%ADD13O,1.250000X0.950000*%
%ADD14O,1.000000X1.650000*%
%ADD15C,0.800000*%
%ADD16C,0.250000*%
%ADD17C,0.254000*%
G04 APERTURE END LIST*
D10*
X96190000Y-130100000D03*
X98730000Y-130100000D03*
X101270000Y-130100000D03*
X103810000Y-130100000D03*
D11*
X81560000Y-130500000D03*
D12*
X84100000Y-130500000D03*
D11*
X118700000Y-153520000D03*
X118700000Y-150980000D03*
X118700000Y-148440000D03*
X118700000Y-145900000D03*
X118700000Y-143360000D03*
X118700000Y-140820000D03*
X118700000Y-138280000D03*
X118700000Y-135740000D03*
D12*
X118700000Y-133200000D03*
D13*
X97500000Y-174700000D03*
D14*
X103500000Y-177400000D03*
X96500000Y-177400000D03*
D13*
X102500000Y-174700000D03*
D15*
X97400000Y-148100000D03*
X99200000Y-143500000D03*
X98000000Y-134700000D03*
X104800000Y-134550000D03*
X93500000Y-136100000D03*
X81200000Y-139200000D03*
X86500000Y-138700000D03*
X113500000Y-137000000D03*
X115200000Y-142500000D03*
X109900000Y-143400000D03*
X86300000Y-147500000D03*
X81200000Y-160900000D03*
X84400000Y-160800000D03*
X91400000Y-160800000D03*
X94900000Y-155500000D03*
X93800000Y-175300000D03*
X81300000Y-176800000D03*
X81300000Y-166400000D03*
X112700000Y-167500000D03*
X91700000Y-150400000D03*
X82500000Y-139200000D03*
X98600000Y-163600000D03*
X105800000Y-155500000D03*
X101998955Y-148625010D03*
X102700000Y-144200000D03*
X105200000Y-149900000D03*
X84900000Y-127800000D03*
X103300000Y-155900000D03*
X116600000Y-132200000D03*
X105800000Y-173200004D03*
X116800000Y-139400000D03*
X106400000Y-141225000D03*
X107800000Y-135599996D03*
X100300000Y-143500000D03*
X105800000Y-146300000D03*
X115200000Y-151400000D03*
X83300000Y-160800000D03*
X85600000Y-157800000D03*
X84400000Y-159499996D03*
X87900000Y-159600000D03*
X102000000Y-146700000D03*
X102000004Y-145700000D03*
X112000000Y-147900000D03*
X101000000Y-147700000D03*
X109800000Y-149000000D03*
X111400000Y-146900000D03*
X89587347Y-136987347D03*
X94400000Y-147000000D03*
D16*
X106400000Y-141200000D02*
X106400000Y-141225000D01*
X116800000Y-139400000D02*
X108200000Y-139400000D01*
X108200000Y-139400000D02*
X106400000Y-141200000D01*
X108199999Y-135199997D02*
X107800000Y-135599996D01*
X118700000Y-133200000D02*
X110199996Y-133200000D01*
X110199996Y-133200000D02*
X108199999Y-135199997D01*
X117497919Y-150980000D02*
X118700000Y-150980000D01*
X115620000Y-150980000D02*
X117497919Y-150980000D01*
X115200000Y-151400000D02*
X115620000Y-150980000D01*
X103100000Y-143100000D02*
X105800000Y-145800000D01*
X105800000Y-145800000D02*
X105800000Y-146300000D01*
X100700000Y-143100000D02*
X103100000Y-143100000D01*
X100300000Y-143500000D02*
X100700000Y-143100000D01*
X83000000Y-159000000D02*
X84200000Y-157800000D01*
X84200000Y-157800000D02*
X85600000Y-157800000D01*
X83000000Y-160500000D02*
X83000000Y-159000000D01*
X83300000Y-160800000D02*
X83000000Y-160500000D01*
X84400000Y-159499996D02*
X87799996Y-159499996D01*
X87799996Y-159499996D02*
X87900000Y-159600000D01*
X117700000Y-149400000D02*
X117640000Y-149500000D01*
X118700000Y-148440000D02*
X117700000Y-149400000D01*
X104913600Y-148150010D02*
X103463590Y-146700000D01*
X103463590Y-146700000D02*
X102565685Y-146700000D01*
X110150010Y-148150010D02*
X104913600Y-148150010D01*
X111500000Y-149500000D02*
X110150010Y-148150010D01*
X102565685Y-146700000D02*
X102000000Y-146700000D01*
X117600000Y-149500000D02*
X111500000Y-149500000D01*
X117700000Y-149400000D02*
X117600000Y-149500000D01*
X102565689Y-145700000D02*
X102000004Y-145700000D01*
X103100000Y-145700000D02*
X102565689Y-145700000D01*
X115600000Y-149000000D02*
X111700000Y-149000000D01*
X105100000Y-147700000D02*
X103100000Y-145700000D01*
X110400000Y-147700000D02*
X105100000Y-147700000D01*
X111700000Y-149000000D02*
X110400000Y-147700000D01*
X118700000Y-145900000D02*
X115600000Y-149000000D01*
X114160000Y-147900000D02*
X112000000Y-147900000D01*
X118700000Y-143360000D02*
X114160000Y-147900000D01*
X109234315Y-149000000D02*
X109800000Y-149000000D01*
X101000000Y-147700000D02*
X103700000Y-147700000D01*
X105000000Y-149000000D02*
X109234315Y-149000000D01*
X103700000Y-147700000D02*
X105000000Y-149000000D01*
X112620000Y-146900000D02*
X111400000Y-146900000D01*
X118700000Y-140820000D02*
X112620000Y-146900000D01*
X89587347Y-136987347D02*
X94400000Y-141800000D01*
X94400000Y-146434315D02*
X94400000Y-147000000D01*
X94400000Y-141800000D02*
X94400000Y-146434315D01*
D17*
G36*
X120548000Y-177977893D02*
G01*
X120537342Y-178086595D01*
X120512193Y-178169891D01*
X120471340Y-178246725D01*
X120416350Y-178314148D01*
X120349306Y-178369612D01*
X120272769Y-178410996D01*
X120189646Y-178436727D01*
X120082386Y-178448000D01*
X104000999Y-178448000D01*
X104122607Y-178348314D01*
X104232246Y-178214873D01*
X104313746Y-178062606D01*
X104363974Y-177897365D01*
X104381000Y-177725500D01*
X104381000Y-177400500D01*
X103500500Y-177400500D01*
X103500500Y-177420500D01*
X103499500Y-177420500D01*
X103499500Y-177400500D01*
X102619000Y-177400500D01*
X102619000Y-177725500D01*
X102636026Y-177897365D01*
X102686254Y-178062606D01*
X102767754Y-178214873D01*
X102877393Y-178348314D01*
X102999001Y-178448000D01*
X97000999Y-178448000D01*
X97122607Y-178348314D01*
X97232246Y-178214873D01*
X97313746Y-178062606D01*
X97363974Y-177897365D01*
X97381000Y-177725500D01*
X97381000Y-177400500D01*
X96500500Y-177400500D01*
X96500500Y-177420500D01*
X96499500Y-177420500D01*
X96499500Y-177400500D01*
X95619000Y-177400500D01*
X95619000Y-177725500D01*
X95636026Y-177897365D01*
X95686254Y-178062606D01*
X95767754Y-178214873D01*
X95877393Y-178348314D01*
X95999001Y-178448000D01*
X79922107Y-178448000D01*
X79813405Y-178437342D01*
X79730109Y-178412193D01*
X79653275Y-178371340D01*
X79585852Y-178316350D01*
X79530388Y-178249306D01*
X79489004Y-178172769D01*
X79463273Y-178089646D01*
X79452000Y-177982386D01*
X79452000Y-177074500D01*
X95619000Y-177074500D01*
X95619000Y-177399500D01*
X96499500Y-177399500D01*
X96499500Y-176289250D01*
X96500500Y-176289250D01*
X96500500Y-177399500D01*
X97381000Y-177399500D01*
X97381000Y-177074500D01*
X102619000Y-177074500D01*
X102619000Y-177399500D01*
X103499500Y-177399500D01*
X103499500Y-176289250D01*
X103500500Y-176289250D01*
X103500500Y-177399500D01*
X104381000Y-177399500D01*
X104381000Y-177074500D01*
X104363974Y-176902635D01*
X104313746Y-176737394D01*
X104232246Y-176585127D01*
X104122607Y-176451686D01*
X103989041Y-176342198D01*
X103836682Y-176260871D01*
X103671384Y-176210831D01*
X103638313Y-176204925D01*
X103500500Y-176289250D01*
X103499500Y-176289250D01*
X103361687Y-176204925D01*
X103328616Y-176210831D01*
X103163318Y-176260871D01*
X103010959Y-176342198D01*
X102877393Y-176451686D01*
X102767754Y-176585127D01*
X102686254Y-176737394D01*
X102636026Y-176902635D01*
X102619000Y-177074500D01*
X97381000Y-177074500D01*
X97363974Y-176902635D01*
X97313746Y-176737394D01*
X97232246Y-176585127D01*
X97122607Y-176451686D01*
X96989041Y-176342198D01*
X96836682Y-176260871D01*
X96671384Y-176210831D01*
X96638313Y-176204925D01*
X96500500Y-176289250D01*
X96499500Y-176289250D01*
X96361687Y-176204925D01*
X96328616Y-176210831D01*
X96163318Y-176260871D01*
X96010959Y-176342198D01*
X95877393Y-176451686D01*
X95767754Y-176585127D01*
X95686254Y-176737394D01*
X95636026Y-176902635D01*
X95619000Y-177074500D01*
X79452000Y-177074500D01*
X79452000Y-174834402D01*
X96504617Y-174834402D01*
X96510349Y-174866509D01*
X96558967Y-175027117D01*
X96637984Y-175175154D01*
X96744363Y-175304931D01*
X96874016Y-175411461D01*
X97021961Y-175490650D01*
X97182512Y-175539455D01*
X97349500Y-175556000D01*
X97499500Y-175556000D01*
X97499500Y-174700500D01*
X97500500Y-174700500D01*
X97500500Y-175556000D01*
X97650500Y-175556000D01*
X97817488Y-175539455D01*
X97978039Y-175490650D01*
X98125984Y-175411461D01*
X98255637Y-175304931D01*
X98362016Y-175175154D01*
X98441033Y-175027117D01*
X98489651Y-174866509D01*
X98495383Y-174834402D01*
X101504617Y-174834402D01*
X101510349Y-174866509D01*
X101558967Y-175027117D01*
X101637984Y-175175154D01*
X101744363Y-175304931D01*
X101874016Y-175411461D01*
X102021961Y-175490650D01*
X102182512Y-175539455D01*
X102349500Y-175556000D01*
X102499500Y-175556000D01*
X102499500Y-174700500D01*
X102500500Y-174700500D01*
X102500500Y-175556000D01*
X102650500Y-175556000D01*
X102817488Y-175539455D01*
X102978039Y-175490650D01*
X103125984Y-175411461D01*
X103255637Y-175304931D01*
X103362016Y-175175154D01*
X103441033Y-175027117D01*
X103489651Y-174866509D01*
X103495383Y-174834402D01*
X103410750Y-174700500D01*
X102500500Y-174700500D01*
X102499500Y-174700500D01*
X101589250Y-174700500D01*
X101504617Y-174834402D01*
X98495383Y-174834402D01*
X98410750Y-174700500D01*
X97500500Y-174700500D01*
X97499500Y-174700500D01*
X96589250Y-174700500D01*
X96504617Y-174834402D01*
X79452000Y-174834402D01*
X79452000Y-174565598D01*
X96504617Y-174565598D01*
X96589250Y-174699500D01*
X97499500Y-174699500D01*
X97499500Y-173844000D01*
X97500500Y-173844000D01*
X97500500Y-174699500D01*
X98410750Y-174699500D01*
X98495383Y-174565598D01*
X101504617Y-174565598D01*
X101589250Y-174699500D01*
X102499500Y-174699500D01*
X102499500Y-173844000D01*
X102500500Y-173844000D01*
X102500500Y-174699500D01*
X103410750Y-174699500D01*
X103495383Y-174565598D01*
X103489651Y-174533491D01*
X103441033Y-174372883D01*
X103362016Y-174224846D01*
X103255637Y-174095069D01*
X103125984Y-173988539D01*
X102978039Y-173909350D01*
X102817488Y-173860545D01*
X102650500Y-173844000D01*
X102500500Y-173844000D01*
X102499500Y-173844000D01*
X102349500Y-173844000D01*
X102182512Y-173860545D01*
X102021961Y-173909350D01*
X101874016Y-173988539D01*
X101744363Y-174095069D01*
X101637984Y-174224846D01*
X101558967Y-174372883D01*
X101510349Y-174533491D01*
X101504617Y-174565598D01*
X98495383Y-174565598D01*
X98489651Y-174533491D01*
X98441033Y-174372883D01*
X98362016Y-174224846D01*
X98255637Y-174095069D01*
X98125984Y-173988539D01*
X97978039Y-173909350D01*
X97817488Y-173860545D01*
X97650500Y-173844000D01*
X97500500Y-173844000D01*
X97499500Y-173844000D01*
X97349500Y-173844000D01*
X97182512Y-173860545D01*
X97021961Y-173909350D01*
X96874016Y-173988539D01*
X96744363Y-174095069D01*
X96637984Y-174224846D01*
X96558967Y-174372883D01*
X96510349Y-174533491D01*
X96504617Y-174565598D01*
X79452000Y-174565598D01*
X79452000Y-166220008D01*
X97897174Y-166220008D01*
X97897174Y-166373064D01*
X97927033Y-166523179D01*
X97985605Y-166664584D01*
X98070638Y-166791845D01*
X98178865Y-166900072D01*
X98306126Y-166985105D01*
X98447531Y-167043677D01*
X98597646Y-167073536D01*
X98750702Y-167073536D01*
X98900817Y-167043677D01*
X99042222Y-166985105D01*
X99169483Y-166900072D01*
X99277710Y-166791845D01*
X99362743Y-166664584D01*
X99421315Y-166523179D01*
X99451174Y-166373064D01*
X99451174Y-166220008D01*
X99421315Y-166069893D01*
X99362743Y-165928488D01*
X99277710Y-165801227D01*
X99169483Y-165693000D01*
X99042222Y-165607967D01*
X98900817Y-165549395D01*
X98750702Y-165519536D01*
X98597646Y-165519536D01*
X98447531Y-165549395D01*
X98306126Y-165607967D01*
X98178865Y-165693000D01*
X98070638Y-165801227D01*
X97985605Y-165928488D01*
X97927033Y-166069893D01*
X97897174Y-166220008D01*
X79452000Y-166220008D01*
X79452000Y-163518229D01*
X100434180Y-163518229D01*
X100434180Y-163700831D01*
X100469804Y-163879926D01*
X100539684Y-164048629D01*
X100641132Y-164200458D01*
X100770252Y-164329578D01*
X100922081Y-164431026D01*
X101090784Y-164500906D01*
X101269879Y-164536530D01*
X101452481Y-164536530D01*
X101631576Y-164500906D01*
X101800279Y-164431026D01*
X101952108Y-164329578D01*
X102081228Y-164200458D01*
X102182676Y-164048629D01*
X102252556Y-163879926D01*
X102288180Y-163700831D01*
X102288180Y-163518229D01*
X102252556Y-163339134D01*
X102182676Y-163170431D01*
X102081228Y-163018602D01*
X101952108Y-162889482D01*
X101800279Y-162788034D01*
X101631576Y-162718154D01*
X101452481Y-162682530D01*
X101269879Y-162682530D01*
X101090784Y-162718154D01*
X100922081Y-162788034D01*
X100770252Y-162889482D01*
X100641132Y-163018602D01*
X100539684Y-163170431D01*
X100469804Y-163339134D01*
X100434180Y-163518229D01*
X79452000Y-163518229D01*
X79452000Y-159000000D01*
X82445330Y-159000000D01*
X82448001Y-159027116D01*
X82448000Y-160472894D01*
X82445330Y-160500000D01*
X82448000Y-160527106D01*
X82448000Y-160527108D01*
X82455988Y-160608210D01*
X82479518Y-160685779D01*
X82473000Y-160718548D01*
X82473000Y-160881452D01*
X82504782Y-161041227D01*
X82567123Y-161191731D01*
X82657628Y-161327181D01*
X82772819Y-161442372D01*
X82908269Y-161532877D01*
X83058773Y-161595218D01*
X83218548Y-161627000D01*
X83381452Y-161627000D01*
X83541227Y-161595218D01*
X83691731Y-161532877D01*
X83827181Y-161442372D01*
X83942372Y-161327181D01*
X84032877Y-161191731D01*
X84095218Y-161041227D01*
X84127000Y-160881452D01*
X84127000Y-160718548D01*
X84095218Y-160558773D01*
X84032877Y-160408269D01*
X83942372Y-160272819D01*
X83827181Y-160157628D01*
X83691731Y-160067123D01*
X83552000Y-160009244D01*
X83552000Y-159228644D01*
X83663406Y-159117238D01*
X83604782Y-159258769D01*
X83573000Y-159418544D01*
X83573000Y-159581448D01*
X83604782Y-159741223D01*
X83667123Y-159891727D01*
X83757628Y-160027177D01*
X83872819Y-160142368D01*
X84008269Y-160232873D01*
X84158773Y-160295214D01*
X84318548Y-160326996D01*
X84481452Y-160326996D01*
X84641227Y-160295214D01*
X84791731Y-160232873D01*
X84927181Y-160142368D01*
X85017553Y-160051996D01*
X87207391Y-160051996D01*
X87257628Y-160127181D01*
X87372819Y-160242372D01*
X87508269Y-160332877D01*
X87658773Y-160395218D01*
X87818548Y-160427000D01*
X87981452Y-160427000D01*
X88141227Y-160395218D01*
X88291731Y-160332877D01*
X88427181Y-160242372D01*
X88542372Y-160127181D01*
X88632877Y-159991731D01*
X88695218Y-159841227D01*
X88727000Y-159681452D01*
X88727000Y-159518548D01*
X88695218Y-159358773D01*
X88632877Y-159208269D01*
X88542372Y-159072819D01*
X88427181Y-158957628D01*
X88291731Y-158867123D01*
X88141227Y-158804782D01*
X87981452Y-158773000D01*
X87818548Y-158773000D01*
X87658773Y-158804782D01*
X87508269Y-158867123D01*
X87387234Y-158947996D01*
X85017553Y-158947996D01*
X84927181Y-158857624D01*
X84791731Y-158767119D01*
X84641227Y-158704778D01*
X84481452Y-158672996D01*
X84318548Y-158672996D01*
X84158773Y-158704778D01*
X84017243Y-158763402D01*
X84428646Y-158352000D01*
X84982447Y-158352000D01*
X85072819Y-158442372D01*
X85208269Y-158532877D01*
X85358773Y-158595218D01*
X85518548Y-158627000D01*
X85681452Y-158627000D01*
X85841227Y-158595218D01*
X85991731Y-158532877D01*
X86127181Y-158442372D01*
X86242372Y-158327181D01*
X86332877Y-158191731D01*
X86395218Y-158041227D01*
X86427000Y-157881452D01*
X86427000Y-157718548D01*
X86395218Y-157558773D01*
X86332877Y-157408269D01*
X86242372Y-157272819D01*
X86127181Y-157157628D01*
X85991731Y-157067123D01*
X85841227Y-157004782D01*
X85681452Y-156973000D01*
X85518548Y-156973000D01*
X85358773Y-157004782D01*
X85208269Y-157067123D01*
X85072819Y-157157628D01*
X84982447Y-157248000D01*
X84227097Y-157248000D01*
X84199999Y-157245331D01*
X84172901Y-157248000D01*
X84172891Y-157248000D01*
X84091789Y-157255988D01*
X83987737Y-157287552D01*
X83943098Y-157311412D01*
X83891841Y-157338809D01*
X83834679Y-157385721D01*
X83807789Y-157407789D01*
X83790508Y-157428846D01*
X82628852Y-158590504D01*
X82607790Y-158607789D01*
X82554276Y-158672996D01*
X82538809Y-158691843D01*
X82487552Y-158787738D01*
X82455989Y-158891790D01*
X82445330Y-159000000D01*
X79452000Y-159000000D01*
X79452000Y-153400358D01*
X87723000Y-153400358D01*
X87723000Y-153799642D01*
X87800896Y-154191254D01*
X87953696Y-154560145D01*
X88175526Y-154892137D01*
X88457863Y-155174474D01*
X88789855Y-155396304D01*
X89158746Y-155549104D01*
X89550358Y-155627000D01*
X89949642Y-155627000D01*
X90341254Y-155549104D01*
X90710145Y-155396304D01*
X91042137Y-155174474D01*
X91324474Y-154892137D01*
X91546304Y-154560145D01*
X91699104Y-154191254D01*
X91777000Y-153799642D01*
X91777000Y-153400358D01*
X108223000Y-153400358D01*
X108223000Y-153799642D01*
X108300896Y-154191254D01*
X108453696Y-154560145D01*
X108675526Y-154892137D01*
X108957863Y-155174474D01*
X109289855Y-155396304D01*
X109658746Y-155549104D01*
X110050358Y-155627000D01*
X110449642Y-155627000D01*
X110841254Y-155549104D01*
X111210145Y-155396304D01*
X111542137Y-155174474D01*
X111824474Y-154892137D01*
X112046304Y-154560145D01*
X112199104Y-154191254D01*
X112277000Y-153799642D01*
X112277000Y-153713065D01*
X117484234Y-153713065D01*
X117502896Y-153806885D01*
X117581866Y-154034916D01*
X117703806Y-154243159D01*
X117864029Y-154423611D01*
X118056378Y-154569338D01*
X118273461Y-154674740D01*
X118506935Y-154735766D01*
X118699500Y-154655750D01*
X118699500Y-153520500D01*
X118700500Y-153520500D01*
X118700500Y-154655750D01*
X118893065Y-154735766D01*
X119126539Y-154674740D01*
X119343622Y-154569338D01*
X119535971Y-154423611D01*
X119696194Y-154243159D01*
X119818134Y-154034916D01*
X119897104Y-153806885D01*
X119915766Y-153713065D01*
X119835750Y-153520500D01*
X118700500Y-153520500D01*
X118699500Y-153520500D01*
X117564250Y-153520500D01*
X117484234Y-153713065D01*
X112277000Y-153713065D01*
X112277000Y-153400358D01*
X112262396Y-153326935D01*
X117484234Y-153326935D01*
X117564250Y-153519500D01*
X118699500Y-153519500D01*
X118699500Y-152384250D01*
X118700500Y-152384250D01*
X118700500Y-153519500D01*
X119835750Y-153519500D01*
X119915766Y-153326935D01*
X119897104Y-153233115D01*
X119818134Y-153005084D01*
X119696194Y-152796841D01*
X119535971Y-152616389D01*
X119343622Y-152470662D01*
X119126539Y-152365260D01*
X118893065Y-152304234D01*
X118700500Y-152384250D01*
X118699500Y-152384250D01*
X118506935Y-152304234D01*
X118273461Y-152365260D01*
X118056378Y-152470662D01*
X117864029Y-152616389D01*
X117703806Y-152796841D01*
X117581866Y-153005084D01*
X117502896Y-153233115D01*
X117484234Y-153326935D01*
X112262396Y-153326935D01*
X112199104Y-153008746D01*
X112046304Y-152639855D01*
X111824474Y-152307863D01*
X111542137Y-152025526D01*
X111210145Y-151803696D01*
X110841254Y-151650896D01*
X110449642Y-151573000D01*
X110050358Y-151573000D01*
X109658746Y-151650896D01*
X109289855Y-151803696D01*
X108957863Y-152025526D01*
X108675526Y-152307863D01*
X108453696Y-152639855D01*
X108300896Y-153008746D01*
X108223000Y-153400358D01*
X91777000Y-153400358D01*
X91699104Y-153008746D01*
X91546304Y-152639855D01*
X91324474Y-152307863D01*
X91042137Y-152025526D01*
X90710145Y-151803696D01*
X90341254Y-151650896D01*
X89949642Y-151573000D01*
X89550358Y-151573000D01*
X89158746Y-151650896D01*
X88789855Y-151803696D01*
X88457863Y-152025526D01*
X88175526Y-152307863D01*
X87953696Y-152639855D01*
X87800896Y-153008746D01*
X87723000Y-153400358D01*
X79452000Y-153400358D01*
X79452000Y-136905895D01*
X88760347Y-136905895D01*
X88760347Y-137068799D01*
X88792129Y-137228574D01*
X88854470Y-137379078D01*
X88944975Y-137514528D01*
X89060166Y-137629719D01*
X89195616Y-137720224D01*
X89346120Y-137782565D01*
X89505895Y-137814347D01*
X89633703Y-137814347D01*
X93848000Y-142028646D01*
X93848001Y-146382446D01*
X93757628Y-146472819D01*
X93667123Y-146608269D01*
X93604782Y-146758773D01*
X93573000Y-146918548D01*
X93573000Y-147081452D01*
X93604782Y-147241227D01*
X93667123Y-147391731D01*
X93757628Y-147527181D01*
X93872819Y-147642372D01*
X94008269Y-147732877D01*
X94158773Y-147795218D01*
X94318548Y-147827000D01*
X94481452Y-147827000D01*
X94641227Y-147795218D01*
X94791731Y-147732877D01*
X94927181Y-147642372D01*
X94951005Y-147618548D01*
X100173000Y-147618548D01*
X100173000Y-147781452D01*
X100204782Y-147941227D01*
X100267123Y-148091731D01*
X100357628Y-148227181D01*
X100472819Y-148342372D01*
X100608269Y-148432877D01*
X100758773Y-148495218D01*
X100918548Y-148527000D01*
X101081452Y-148527000D01*
X101241227Y-148495218D01*
X101391731Y-148432877D01*
X101527181Y-148342372D01*
X101617553Y-148252000D01*
X103471356Y-148252000D01*
X104590508Y-149371154D01*
X104607789Y-149392211D01*
X104628845Y-149409491D01*
X104628846Y-149409492D01*
X104691842Y-149461191D01*
X104787737Y-149512448D01*
X104891789Y-149544012D01*
X105000000Y-149554670D01*
X105027108Y-149552000D01*
X109182447Y-149552000D01*
X109272819Y-149642372D01*
X109408269Y-149732877D01*
X109558773Y-149795218D01*
X109718548Y-149827000D01*
X109881452Y-149827000D01*
X110041227Y-149795218D01*
X110191731Y-149732877D01*
X110327181Y-149642372D01*
X110442372Y-149527181D01*
X110532877Y-149391731D01*
X110555784Y-149336429D01*
X111090508Y-149871154D01*
X111107789Y-149892211D01*
X111191842Y-149961191D01*
X111287737Y-150012448D01*
X111391789Y-150044012D01*
X111472891Y-150052000D01*
X111472901Y-150052000D01*
X111499999Y-150054669D01*
X111527097Y-150052000D01*
X117572894Y-150052000D01*
X117600000Y-150054670D01*
X117626854Y-150052025D01*
X117666962Y-150054014D01*
X117774527Y-150038109D01*
X117870081Y-150003968D01*
X117708089Y-150165960D01*
X117568337Y-150375114D01*
X117546431Y-150428000D01*
X115647108Y-150428000D01*
X115620000Y-150425330D01*
X115592891Y-150428000D01*
X115511789Y-150435988D01*
X115407737Y-150467552D01*
X115311842Y-150518809D01*
X115245810Y-150573000D01*
X115118548Y-150573000D01*
X114958773Y-150604782D01*
X114808269Y-150667123D01*
X114672819Y-150757628D01*
X114557628Y-150872819D01*
X114467123Y-151008269D01*
X114404782Y-151158773D01*
X114373000Y-151318548D01*
X114373000Y-151481452D01*
X114404782Y-151641227D01*
X114467123Y-151791731D01*
X114557628Y-151927181D01*
X114672819Y-152042372D01*
X114808269Y-152132877D01*
X114958773Y-152195218D01*
X115118548Y-152227000D01*
X115281452Y-152227000D01*
X115441227Y-152195218D01*
X115591731Y-152132877D01*
X115727181Y-152042372D01*
X115842372Y-151927181D01*
X115932877Y-151791731D01*
X115995218Y-151641227D01*
X116016945Y-151532000D01*
X117546431Y-151532000D01*
X117568337Y-151584886D01*
X117708089Y-151794040D01*
X117885960Y-151971911D01*
X118095114Y-152111663D01*
X118327513Y-152207926D01*
X118574226Y-152257000D01*
X118825774Y-152257000D01*
X119072487Y-152207926D01*
X119304886Y-152111663D01*
X119514040Y-151971911D01*
X119691911Y-151794040D01*
X119831663Y-151584886D01*
X119927926Y-151352487D01*
X119977000Y-151105774D01*
X119977000Y-150854226D01*
X119927926Y-150607513D01*
X119831663Y-150375114D01*
X119691911Y-150165960D01*
X119514040Y-149988089D01*
X119304886Y-149848337D01*
X119072487Y-149752074D01*
X118860966Y-149710000D01*
X119072487Y-149667926D01*
X119304886Y-149571663D01*
X119514040Y-149431911D01*
X119691911Y-149254040D01*
X119831663Y-149044886D01*
X119927926Y-148812487D01*
X119977000Y-148565774D01*
X119977000Y-148314226D01*
X119927926Y-148067513D01*
X119831663Y-147835114D01*
X119691911Y-147625960D01*
X119514040Y-147448089D01*
X119304886Y-147308337D01*
X119072487Y-147212074D01*
X118860966Y-147170000D01*
X119072487Y-147127926D01*
X119304886Y-147031663D01*
X119514040Y-146891911D01*
X119691911Y-146714040D01*
X119831663Y-146504886D01*
X119927926Y-146272487D01*
X119977000Y-146025774D01*
X119977000Y-145774226D01*
X119927926Y-145527513D01*
X119831663Y-145295114D01*
X119691911Y-145085960D01*
X119514040Y-144908089D01*
X119304886Y-144768337D01*
X119072487Y-144672074D01*
X118860966Y-144630000D01*
X119072487Y-144587926D01*
X119304886Y-144491663D01*
X119514040Y-144351911D01*
X119691911Y-144174040D01*
X119831663Y-143964886D01*
X119927926Y-143732487D01*
X119977000Y-143485774D01*
X119977000Y-143234226D01*
X119927926Y-142987513D01*
X119831663Y-142755114D01*
X119691911Y-142545960D01*
X119514040Y-142368089D01*
X119304886Y-142228337D01*
X119072487Y-142132074D01*
X118860966Y-142090000D01*
X119072487Y-142047926D01*
X119304886Y-141951663D01*
X119514040Y-141811911D01*
X119691911Y-141634040D01*
X119831663Y-141424886D01*
X119927926Y-141192487D01*
X119977000Y-140945774D01*
X119977000Y-140694226D01*
X119927926Y-140447513D01*
X119831663Y-140215114D01*
X119691911Y-140005960D01*
X119514040Y-139828089D01*
X119304886Y-139688337D01*
X119072487Y-139592074D01*
X118860966Y-139550000D01*
X119072487Y-139507926D01*
X119304886Y-139411663D01*
X119514040Y-139271911D01*
X119691911Y-139094040D01*
X119831663Y-138884886D01*
X119927926Y-138652487D01*
X119977000Y-138405774D01*
X119977000Y-138154226D01*
X119927926Y-137907513D01*
X119831663Y-137675114D01*
X119691911Y-137465960D01*
X119514040Y-137288089D01*
X119304886Y-137148337D01*
X119072487Y-137052074D01*
X118860966Y-137010000D01*
X119072487Y-136967926D01*
X119304886Y-136871663D01*
X119514040Y-136731911D01*
X119691911Y-136554040D01*
X119831663Y-136344886D01*
X119927926Y-136112487D01*
X119977000Y-135865774D01*
X119977000Y-135614226D01*
X119927926Y-135367513D01*
X119831663Y-135135114D01*
X119691911Y-134925960D01*
X119514040Y-134748089D01*
X119304886Y-134608337D01*
X119072487Y-134512074D01*
X118906544Y-134479066D01*
X119550000Y-134479066D01*
X119633707Y-134470822D01*
X119714196Y-134446405D01*
X119788376Y-134406755D01*
X119853395Y-134353395D01*
X119906755Y-134288376D01*
X119946405Y-134214196D01*
X119970822Y-134133707D01*
X119979066Y-134050000D01*
X119979066Y-132350000D01*
X119970822Y-132266293D01*
X119946405Y-132185804D01*
X119906755Y-132111624D01*
X119853395Y-132046605D01*
X119788376Y-131993245D01*
X119714196Y-131953595D01*
X119633707Y-131929178D01*
X119550000Y-131920934D01*
X117850000Y-131920934D01*
X117766293Y-131929178D01*
X117685804Y-131953595D01*
X117611624Y-131993245D01*
X117546605Y-132046605D01*
X117493245Y-132111624D01*
X117453595Y-132185804D01*
X117429178Y-132266293D01*
X117420934Y-132350000D01*
X117420934Y-132648000D01*
X110227102Y-132648000D01*
X110199996Y-132645330D01*
X110172890Y-132648000D01*
X110172887Y-132648000D01*
X110091785Y-132655988D01*
X109987733Y-132687552D01*
X109891838Y-132738809D01*
X109807785Y-132807789D01*
X109790500Y-132828851D01*
X107846356Y-134772996D01*
X107718548Y-134772996D01*
X107558773Y-134804778D01*
X107408269Y-134867119D01*
X107272819Y-134957624D01*
X107157628Y-135072815D01*
X107067123Y-135208265D01*
X107004782Y-135358769D01*
X106973000Y-135518544D01*
X106973000Y-135681448D01*
X107004782Y-135841223D01*
X107067123Y-135991727D01*
X107157628Y-136127177D01*
X107272819Y-136242368D01*
X107408269Y-136332873D01*
X107558773Y-136395214D01*
X107718548Y-136426996D01*
X107881452Y-136426996D01*
X108041227Y-136395214D01*
X108191731Y-136332873D01*
X108327181Y-136242368D01*
X108442372Y-136127177D01*
X108532877Y-135991727D01*
X108595218Y-135841223D01*
X108627000Y-135681448D01*
X108627000Y-135553640D01*
X110428641Y-133752000D01*
X117420934Y-133752000D01*
X117420934Y-134050000D01*
X117429178Y-134133707D01*
X117453595Y-134214196D01*
X117493245Y-134288376D01*
X117546605Y-134353395D01*
X117611624Y-134406755D01*
X117685804Y-134446405D01*
X117766293Y-134470822D01*
X117850000Y-134479066D01*
X118493456Y-134479066D01*
X118327513Y-134512074D01*
X118095114Y-134608337D01*
X117885960Y-134748089D01*
X117708089Y-134925960D01*
X117568337Y-135135114D01*
X117472074Y-135367513D01*
X117423000Y-135614226D01*
X117423000Y-135865774D01*
X117472074Y-136112487D01*
X117568337Y-136344886D01*
X117708089Y-136554040D01*
X117885960Y-136731911D01*
X118095114Y-136871663D01*
X118327513Y-136967926D01*
X118539034Y-137010000D01*
X118327513Y-137052074D01*
X118095114Y-137148337D01*
X117885960Y-137288089D01*
X117708089Y-137465960D01*
X117568337Y-137675114D01*
X117472074Y-137907513D01*
X117423000Y-138154226D01*
X117423000Y-138405774D01*
X117472074Y-138652487D01*
X117568337Y-138884886D01*
X117708089Y-139094040D01*
X117885960Y-139271911D01*
X118095114Y-139411663D01*
X118327513Y-139507926D01*
X118539034Y-139550000D01*
X118327513Y-139592074D01*
X118095114Y-139688337D01*
X117885960Y-139828089D01*
X117708089Y-140005960D01*
X117568337Y-140215114D01*
X117472074Y-140447513D01*
X117423000Y-140694226D01*
X117423000Y-140945774D01*
X117472074Y-141192487D01*
X117493980Y-141245374D01*
X112391356Y-146348000D01*
X112017553Y-146348000D01*
X111927181Y-146257628D01*
X111791731Y-146167123D01*
X111641227Y-146104782D01*
X111481452Y-146073000D01*
X111318548Y-146073000D01*
X111158773Y-146104782D01*
X111008269Y-146167123D01*
X110872819Y-146257628D01*
X110757628Y-146372819D01*
X110667123Y-146508269D01*
X110604782Y-146658773D01*
X110573000Y-146818548D01*
X110573000Y-146981452D01*
X110604782Y-147141227D01*
X110627300Y-147195589D01*
X110612263Y-147187552D01*
X110508211Y-147155988D01*
X110427109Y-147148000D01*
X110427106Y-147148000D01*
X110400000Y-147145330D01*
X110372894Y-147148000D01*
X105328646Y-147148000D01*
X103509500Y-145328856D01*
X103492211Y-145307789D01*
X103408158Y-145238809D01*
X103312263Y-145187552D01*
X103208211Y-145155988D01*
X103127109Y-145148000D01*
X103127106Y-145148000D01*
X103100000Y-145145330D01*
X103072894Y-145148000D01*
X102617557Y-145148000D01*
X102527185Y-145057628D01*
X102391735Y-144967123D01*
X102241231Y-144904782D01*
X102081456Y-144873000D01*
X101918552Y-144873000D01*
X101758777Y-144904782D01*
X101608273Y-144967123D01*
X101472823Y-145057628D01*
X101357632Y-145172819D01*
X101267127Y-145308269D01*
X101204786Y-145458773D01*
X101173004Y-145618548D01*
X101173004Y-145781452D01*
X101204786Y-145941227D01*
X101267127Y-146091731D01*
X101339468Y-146199997D01*
X101267123Y-146308269D01*
X101204782Y-146458773D01*
X101173000Y-146618548D01*
X101173000Y-146781452D01*
X101195732Y-146895732D01*
X101081452Y-146873000D01*
X100918548Y-146873000D01*
X100758773Y-146904782D01*
X100608269Y-146967123D01*
X100472819Y-147057628D01*
X100357628Y-147172819D01*
X100267123Y-147308269D01*
X100204782Y-147458773D01*
X100173000Y-147618548D01*
X94951005Y-147618548D01*
X95042372Y-147527181D01*
X95132877Y-147391731D01*
X95195218Y-147241227D01*
X95227000Y-147081452D01*
X95227000Y-146918548D01*
X95195218Y-146758773D01*
X95132877Y-146608269D01*
X95042372Y-146472819D01*
X94952000Y-146382447D01*
X94952000Y-143418548D01*
X99473000Y-143418548D01*
X99473000Y-143581452D01*
X99504782Y-143741227D01*
X99567123Y-143891731D01*
X99657628Y-144027181D01*
X99772819Y-144142372D01*
X99908269Y-144232877D01*
X100058773Y-144295218D01*
X100218548Y-144327000D01*
X100381452Y-144327000D01*
X100541227Y-144295218D01*
X100691731Y-144232877D01*
X100827181Y-144142372D01*
X100942372Y-144027181D01*
X101032877Y-143891731D01*
X101095218Y-143741227D01*
X101112967Y-143652000D01*
X102871356Y-143652000D01*
X105091356Y-145872002D01*
X105067123Y-145908269D01*
X105004782Y-146058773D01*
X104973000Y-146218548D01*
X104973000Y-146381452D01*
X105004782Y-146541227D01*
X105067123Y-146691731D01*
X105157628Y-146827181D01*
X105272819Y-146942372D01*
X105408269Y-147032877D01*
X105558773Y-147095218D01*
X105718548Y-147127000D01*
X105881452Y-147127000D01*
X106041227Y-147095218D01*
X106191731Y-147032877D01*
X106327181Y-146942372D01*
X106442372Y-146827181D01*
X106532877Y-146691731D01*
X106595218Y-146541227D01*
X106627000Y-146381452D01*
X106627000Y-146218548D01*
X106595218Y-146058773D01*
X106532877Y-145908269D01*
X106442372Y-145772819D01*
X106336466Y-145666913D01*
X106312448Y-145587737D01*
X106261191Y-145491842D01*
X106209492Y-145428846D01*
X106209491Y-145428845D01*
X106192211Y-145407789D01*
X106171154Y-145390508D01*
X103509500Y-142728856D01*
X103492211Y-142707789D01*
X103408158Y-142638809D01*
X103312263Y-142587552D01*
X103208211Y-142555988D01*
X103127109Y-142548000D01*
X103127106Y-142548000D01*
X103100000Y-142545330D01*
X103072894Y-142548000D01*
X100727097Y-142548000D01*
X100699999Y-142545331D01*
X100672901Y-142548000D01*
X100672891Y-142548000D01*
X100591789Y-142555988D01*
X100487737Y-142587552D01*
X100443098Y-142611412D01*
X100391841Y-142638809D01*
X100350180Y-142673000D01*
X100218548Y-142673000D01*
X100058773Y-142704782D01*
X99908269Y-142767123D01*
X99772819Y-142857628D01*
X99657628Y-142972819D01*
X99567123Y-143108269D01*
X99504782Y-143258773D01*
X99473000Y-143418548D01*
X94952000Y-143418548D01*
X94952000Y-141827105D01*
X94954670Y-141799999D01*
X94949960Y-141752181D01*
X94944012Y-141691789D01*
X94912448Y-141587737D01*
X94861191Y-141491842D01*
X94792211Y-141407789D01*
X94771154Y-141390508D01*
X94524194Y-141143548D01*
X105573000Y-141143548D01*
X105573000Y-141306452D01*
X105604782Y-141466227D01*
X105667123Y-141616731D01*
X105757628Y-141752181D01*
X105872819Y-141867372D01*
X106008269Y-141957877D01*
X106158773Y-142020218D01*
X106318548Y-142052000D01*
X106481452Y-142052000D01*
X106641227Y-142020218D01*
X106791731Y-141957877D01*
X106927181Y-141867372D01*
X107042372Y-141752181D01*
X107132877Y-141616731D01*
X107195218Y-141466227D01*
X107227000Y-141306452D01*
X107227000Y-141153644D01*
X108428646Y-139952000D01*
X116182447Y-139952000D01*
X116272819Y-140042372D01*
X116408269Y-140132877D01*
X116558773Y-140195218D01*
X116718548Y-140227000D01*
X116881452Y-140227000D01*
X117041227Y-140195218D01*
X117191731Y-140132877D01*
X117327181Y-140042372D01*
X117442372Y-139927181D01*
X117532877Y-139791731D01*
X117595218Y-139641227D01*
X117627000Y-139481452D01*
X117627000Y-139318548D01*
X117595218Y-139158773D01*
X117532877Y-139008269D01*
X117442372Y-138872819D01*
X117327181Y-138757628D01*
X117191731Y-138667123D01*
X117041227Y-138604782D01*
X116881452Y-138573000D01*
X116718548Y-138573000D01*
X116558773Y-138604782D01*
X116408269Y-138667123D01*
X116272819Y-138757628D01*
X116182447Y-138848000D01*
X108227097Y-138848000D01*
X108199999Y-138845331D01*
X108172901Y-138848000D01*
X108172891Y-138848000D01*
X108091789Y-138855988D01*
X107987737Y-138887552D01*
X107943098Y-138911412D01*
X107891841Y-138938809D01*
X107834679Y-138985721D01*
X107807789Y-139007789D01*
X107790508Y-139028846D01*
X106421356Y-140398000D01*
X106318548Y-140398000D01*
X106158773Y-140429782D01*
X106008269Y-140492123D01*
X105872819Y-140582628D01*
X105757628Y-140697819D01*
X105667123Y-140833269D01*
X105604782Y-140983773D01*
X105573000Y-141143548D01*
X94524194Y-141143548D01*
X90414347Y-137033703D01*
X90414347Y-136905895D01*
X90382565Y-136746120D01*
X90320224Y-136595616D01*
X90229719Y-136460166D01*
X90114528Y-136344975D01*
X89979078Y-136254470D01*
X89828574Y-136192129D01*
X89668799Y-136160347D01*
X89505895Y-136160347D01*
X89346120Y-136192129D01*
X89195616Y-136254470D01*
X89060166Y-136344975D01*
X88944975Y-136460166D01*
X88854470Y-136595616D01*
X88792129Y-136746120D01*
X88760347Y-136905895D01*
X79452000Y-136905895D01*
X79452000Y-130693065D01*
X80344234Y-130693065D01*
X80405260Y-130926539D01*
X80510662Y-131143622D01*
X80656389Y-131335971D01*
X80836841Y-131496194D01*
X81045084Y-131618134D01*
X81273115Y-131697104D01*
X81366935Y-131715766D01*
X81559500Y-131635750D01*
X81559500Y-130500500D01*
X81560500Y-130500500D01*
X81560500Y-131635750D01*
X81753065Y-131715766D01*
X81846885Y-131697104D01*
X82074916Y-131618134D01*
X82283159Y-131496194D01*
X82463611Y-131335971D01*
X82609338Y-131143622D01*
X82714740Y-130926539D01*
X82775766Y-130693065D01*
X82695750Y-130500500D01*
X81560500Y-130500500D01*
X81559500Y-130500500D01*
X80424250Y-130500500D01*
X80344234Y-130693065D01*
X79452000Y-130693065D01*
X79452000Y-130306935D01*
X80344234Y-130306935D01*
X80424250Y-130499500D01*
X81559500Y-130499500D01*
X81559500Y-129364250D01*
X81560500Y-129364250D01*
X81560500Y-130499500D01*
X82695750Y-130499500D01*
X82775766Y-130306935D01*
X82714740Y-130073461D01*
X82609338Y-129856378D01*
X82463611Y-129664029D01*
X82447811Y-129650000D01*
X82820934Y-129650000D01*
X82820934Y-131350000D01*
X82829178Y-131433707D01*
X82853595Y-131514196D01*
X82893245Y-131588376D01*
X82946605Y-131653395D01*
X83011624Y-131706755D01*
X83085804Y-131746405D01*
X83166293Y-131770822D01*
X83250000Y-131779066D01*
X84950000Y-131779066D01*
X85033707Y-131770822D01*
X85114196Y-131746405D01*
X85188376Y-131706755D01*
X85253395Y-131653395D01*
X85306755Y-131588376D01*
X85346405Y-131514196D01*
X85370822Y-131433707D01*
X85379066Y-131350000D01*
X85379066Y-130400358D01*
X87723000Y-130400358D01*
X87723000Y-130799642D01*
X87800896Y-131191254D01*
X87953696Y-131560145D01*
X88175526Y-131892137D01*
X88457863Y-132174474D01*
X88789855Y-132396304D01*
X89158746Y-132549104D01*
X89550358Y-132627000D01*
X89949642Y-132627000D01*
X90341254Y-132549104D01*
X90710145Y-132396304D01*
X91042137Y-132174474D01*
X91324474Y-131892137D01*
X91546304Y-131560145D01*
X91699104Y-131191254D01*
X91755513Y-130907662D01*
X95383045Y-130907662D01*
X95463340Y-131101012D01*
X95672589Y-131223542D01*
X95901724Y-131302896D01*
X96141937Y-131336023D01*
X96383996Y-131321650D01*
X96618601Y-131260329D01*
X96836734Y-131154418D01*
X96916660Y-131101012D01*
X96996955Y-130907662D01*
X96190000Y-130100707D01*
X95383045Y-130907662D01*
X91755513Y-130907662D01*
X91777000Y-130799642D01*
X91777000Y-130400358D01*
X91707696Y-130051937D01*
X94953977Y-130051937D01*
X94968350Y-130293996D01*
X95029671Y-130528601D01*
X95135582Y-130746734D01*
X95188988Y-130826660D01*
X95382338Y-130906955D01*
X96189293Y-130100000D01*
X96190707Y-130100000D01*
X96997662Y-130906955D01*
X97191012Y-130826660D01*
X97313542Y-130617411D01*
X97392896Y-130388276D01*
X97426023Y-130148063D01*
X97415701Y-129974226D01*
X97453000Y-129974226D01*
X97453000Y-130225774D01*
X97502074Y-130472487D01*
X97598337Y-130704886D01*
X97738089Y-130914040D01*
X97915960Y-131091911D01*
X98125114Y-131231663D01*
X98357513Y-131327926D01*
X98604226Y-131377000D01*
X98855774Y-131377000D01*
X99102487Y-131327926D01*
X99334886Y-131231663D01*
X99544040Y-131091911D01*
X99721911Y-130914040D01*
X99861663Y-130704886D01*
X99957926Y-130472487D01*
X100000000Y-130260966D01*
X100042074Y-130472487D01*
X100138337Y-130704886D01*
X100278089Y-130914040D01*
X100455960Y-131091911D01*
X100665114Y-131231663D01*
X100897513Y-131327926D01*
X101144226Y-131377000D01*
X101395774Y-131377000D01*
X101642487Y-131327926D01*
X101874886Y-131231663D01*
X102084040Y-131091911D01*
X102261911Y-130914040D01*
X102401663Y-130704886D01*
X102497926Y-130472487D01*
X102540000Y-130260966D01*
X102582074Y-130472487D01*
X102678337Y-130704886D01*
X102818089Y-130914040D01*
X102995960Y-131091911D01*
X103205114Y-131231663D01*
X103437513Y-131327926D01*
X103684226Y-131377000D01*
X103935774Y-131377000D01*
X104182487Y-131327926D01*
X104414886Y-131231663D01*
X104624040Y-131091911D01*
X104801911Y-130914040D01*
X104941663Y-130704886D01*
X105037926Y-130472487D01*
X105052273Y-130400358D01*
X108223000Y-130400358D01*
X108223000Y-130799642D01*
X108300896Y-131191254D01*
X108453696Y-131560145D01*
X108675526Y-131892137D01*
X108957863Y-132174474D01*
X109289855Y-132396304D01*
X109658746Y-132549104D01*
X110050358Y-132627000D01*
X110449642Y-132627000D01*
X110841254Y-132549104D01*
X111210145Y-132396304D01*
X111542137Y-132174474D01*
X111824474Y-131892137D01*
X112046304Y-131560145D01*
X112199104Y-131191254D01*
X112277000Y-130799642D01*
X112277000Y-130400358D01*
X112199104Y-130008746D01*
X112046304Y-129639855D01*
X111824474Y-129307863D01*
X111542137Y-129025526D01*
X111210145Y-128803696D01*
X110841254Y-128650896D01*
X110449642Y-128573000D01*
X110050358Y-128573000D01*
X109658746Y-128650896D01*
X109289855Y-128803696D01*
X108957863Y-129025526D01*
X108675526Y-129307863D01*
X108453696Y-129639855D01*
X108300896Y-130008746D01*
X108223000Y-130400358D01*
X105052273Y-130400358D01*
X105087000Y-130225774D01*
X105087000Y-129974226D01*
X105037926Y-129727513D01*
X104941663Y-129495114D01*
X104801911Y-129285960D01*
X104624040Y-129108089D01*
X104414886Y-128968337D01*
X104182487Y-128872074D01*
X103935774Y-128823000D01*
X103684226Y-128823000D01*
X103437513Y-128872074D01*
X103205114Y-128968337D01*
X102995960Y-129108089D01*
X102818089Y-129285960D01*
X102678337Y-129495114D01*
X102582074Y-129727513D01*
X102540000Y-129939034D01*
X102497926Y-129727513D01*
X102401663Y-129495114D01*
X102261911Y-129285960D01*
X102084040Y-129108089D01*
X101874886Y-128968337D01*
X101642487Y-128872074D01*
X101395774Y-128823000D01*
X101144226Y-128823000D01*
X100897513Y-128872074D01*
X100665114Y-128968337D01*
X100455960Y-129108089D01*
X100278089Y-129285960D01*
X100138337Y-129495114D01*
X100042074Y-129727513D01*
X100000000Y-129939034D01*
X99957926Y-129727513D01*
X99861663Y-129495114D01*
X99721911Y-129285960D01*
X99544040Y-129108089D01*
X99334886Y-128968337D01*
X99102487Y-128872074D01*
X98855774Y-128823000D01*
X98604226Y-128823000D01*
X98357513Y-128872074D01*
X98125114Y-128968337D01*
X97915960Y-129108089D01*
X97738089Y-129285960D01*
X97598337Y-129495114D01*
X97502074Y-129727513D01*
X97453000Y-129974226D01*
X97415701Y-129974226D01*
X97411650Y-129906004D01*
X97350329Y-129671399D01*
X97244418Y-129453266D01*
X97191012Y-129373340D01*
X96997662Y-129293045D01*
X96190707Y-130100000D01*
X96189293Y-130100000D01*
X95382338Y-129293045D01*
X95188988Y-129373340D01*
X95066458Y-129582589D01*
X94987104Y-129811724D01*
X94953977Y-130051937D01*
X91707696Y-130051937D01*
X91699104Y-130008746D01*
X91546304Y-129639855D01*
X91324474Y-129307863D01*
X91308949Y-129292338D01*
X95383045Y-129292338D01*
X96190000Y-130099293D01*
X96996955Y-129292338D01*
X96916660Y-129098988D01*
X96707411Y-128976458D01*
X96478276Y-128897104D01*
X96238063Y-128863977D01*
X95996004Y-128878350D01*
X95761399Y-128939671D01*
X95543266Y-129045582D01*
X95463340Y-129098988D01*
X95383045Y-129292338D01*
X91308949Y-129292338D01*
X91042137Y-129025526D01*
X90710145Y-128803696D01*
X90341254Y-128650896D01*
X89949642Y-128573000D01*
X89550358Y-128573000D01*
X89158746Y-128650896D01*
X88789855Y-128803696D01*
X88457863Y-129025526D01*
X88175526Y-129307863D01*
X87953696Y-129639855D01*
X87800896Y-130008746D01*
X87723000Y-130400358D01*
X85379066Y-130400358D01*
X85379066Y-129650000D01*
X85370822Y-129566293D01*
X85346405Y-129485804D01*
X85306755Y-129411624D01*
X85253395Y-129346605D01*
X85188376Y-129293245D01*
X85114196Y-129253595D01*
X85033707Y-129229178D01*
X84950000Y-129220934D01*
X83250000Y-129220934D01*
X83166293Y-129229178D01*
X83085804Y-129253595D01*
X83011624Y-129293245D01*
X82946605Y-129346605D01*
X82893245Y-129411624D01*
X82853595Y-129485804D01*
X82829178Y-129566293D01*
X82820934Y-129650000D01*
X82447811Y-129650000D01*
X82283159Y-129503806D01*
X82074916Y-129381866D01*
X81846885Y-129302896D01*
X81753065Y-129284234D01*
X81560500Y-129364250D01*
X81559500Y-129364250D01*
X81366935Y-129284234D01*
X81273115Y-129302896D01*
X81045084Y-129381866D01*
X80836841Y-129503806D01*
X80656389Y-129664029D01*
X80510662Y-129856378D01*
X80405260Y-130073461D01*
X80344234Y-130306935D01*
X79452000Y-130306935D01*
X79452000Y-127327000D01*
X120548001Y-127327000D01*
X120548000Y-177977893D01*
G37*
X120548000Y-177977893D02*
X120537342Y-178086595D01*
X120512193Y-178169891D01*
X120471340Y-178246725D01*
X120416350Y-178314148D01*
X120349306Y-178369612D01*
X120272769Y-178410996D01*
X120189646Y-178436727D01*
X120082386Y-178448000D01*
X104000999Y-178448000D01*
X104122607Y-178348314D01*
X104232246Y-178214873D01*
X104313746Y-178062606D01*
X104363974Y-177897365D01*
X104381000Y-177725500D01*
X104381000Y-177400500D01*
X103500500Y-177400500D01*
X103500500Y-177420500D01*
X103499500Y-177420500D01*
X103499500Y-177400500D01*
X102619000Y-177400500D01*
X102619000Y-177725500D01*
X102636026Y-177897365D01*
X102686254Y-178062606D01*
X102767754Y-178214873D01*
X102877393Y-178348314D01*
X102999001Y-178448000D01*
X97000999Y-178448000D01*
X97122607Y-178348314D01*
X97232246Y-178214873D01*
X97313746Y-178062606D01*
X97363974Y-177897365D01*
X97381000Y-177725500D01*
X97381000Y-177400500D01*
X96500500Y-177400500D01*
X96500500Y-177420500D01*
X96499500Y-177420500D01*
X96499500Y-177400500D01*
X95619000Y-177400500D01*
X95619000Y-177725500D01*
X95636026Y-177897365D01*
X95686254Y-178062606D01*
X95767754Y-178214873D01*
X95877393Y-178348314D01*
X95999001Y-178448000D01*
X79922107Y-178448000D01*
X79813405Y-178437342D01*
X79730109Y-178412193D01*
X79653275Y-178371340D01*
X79585852Y-178316350D01*
X79530388Y-178249306D01*
X79489004Y-178172769D01*
X79463273Y-178089646D01*
X79452000Y-177982386D01*
X79452000Y-177074500D01*
X95619000Y-177074500D01*
X95619000Y-177399500D01*
X96499500Y-177399500D01*
X96499500Y-176289250D01*
X96500500Y-176289250D01*
X96500500Y-177399500D01*
X97381000Y-177399500D01*
X97381000Y-177074500D01*
X102619000Y-177074500D01*
X102619000Y-177399500D01*
X103499500Y-177399500D01*
X103499500Y-176289250D01*
X103500500Y-176289250D01*
X103500500Y-177399500D01*
X104381000Y-177399500D01*
X104381000Y-177074500D01*
X104363974Y-176902635D01*
X104313746Y-176737394D01*
X104232246Y-176585127D01*
X104122607Y-176451686D01*
X103989041Y-176342198D01*
X103836682Y-176260871D01*
X103671384Y-176210831D01*
X103638313Y-176204925D01*
X103500500Y-176289250D01*
X103499500Y-176289250D01*
X103361687Y-176204925D01*
X103328616Y-176210831D01*
X103163318Y-176260871D01*
X103010959Y-176342198D01*
X102877393Y-176451686D01*
X102767754Y-176585127D01*
X102686254Y-176737394D01*
X102636026Y-176902635D01*
X102619000Y-177074500D01*
X97381000Y-177074500D01*
X97363974Y-176902635D01*
X97313746Y-176737394D01*
X97232246Y-176585127D01*
X97122607Y-176451686D01*
X96989041Y-176342198D01*
X96836682Y-176260871D01*
X96671384Y-176210831D01*
X96638313Y-176204925D01*
X96500500Y-176289250D01*
X96499500Y-176289250D01*
X96361687Y-176204925D01*
X96328616Y-176210831D01*
X96163318Y-176260871D01*
X96010959Y-176342198D01*
X95877393Y-176451686D01*
X95767754Y-176585127D01*
X95686254Y-176737394D01*
X95636026Y-176902635D01*
X95619000Y-177074500D01*
X79452000Y-177074500D01*
X79452000Y-174834402D01*
X96504617Y-174834402D01*
X96510349Y-174866509D01*
X96558967Y-175027117D01*
X96637984Y-175175154D01*
X96744363Y-175304931D01*
X96874016Y-175411461D01*
X97021961Y-175490650D01*
X97182512Y-175539455D01*
X97349500Y-175556000D01*
X97499500Y-175556000D01*
X97499500Y-174700500D01*
X97500500Y-174700500D01*
X97500500Y-175556000D01*
X97650500Y-175556000D01*
X97817488Y-175539455D01*
X97978039Y-175490650D01*
X98125984Y-175411461D01*
X98255637Y-175304931D01*
X98362016Y-175175154D01*
X98441033Y-175027117D01*
X98489651Y-174866509D01*
X98495383Y-174834402D01*
X101504617Y-174834402D01*
X101510349Y-174866509D01*
X101558967Y-175027117D01*
X101637984Y-175175154D01*
X101744363Y-175304931D01*
X101874016Y-175411461D01*
X102021961Y-175490650D01*
X102182512Y-175539455D01*
X102349500Y-175556000D01*
X102499500Y-175556000D01*
X102499500Y-174700500D01*
X102500500Y-174700500D01*
X102500500Y-175556000D01*
X102650500Y-175556000D01*
X102817488Y-175539455D01*
X102978039Y-175490650D01*
X103125984Y-175411461D01*
X103255637Y-175304931D01*
X103362016Y-175175154D01*
X103441033Y-175027117D01*
X103489651Y-174866509D01*
X103495383Y-174834402D01*
X103410750Y-174700500D01*
X102500500Y-174700500D01*
X102499500Y-174700500D01*
X101589250Y-174700500D01*
X101504617Y-174834402D01*
X98495383Y-174834402D01*
X98410750Y-174700500D01*
X97500500Y-174700500D01*
X97499500Y-174700500D01*
X96589250Y-174700500D01*
X96504617Y-174834402D01*
X79452000Y-174834402D01*
X79452000Y-174565598D01*
X96504617Y-174565598D01*
X96589250Y-174699500D01*
X97499500Y-174699500D01*
X97499500Y-173844000D01*
X97500500Y-173844000D01*
X97500500Y-174699500D01*
X98410750Y-174699500D01*
X98495383Y-174565598D01*
X101504617Y-174565598D01*
X101589250Y-174699500D01*
X102499500Y-174699500D01*
X102499500Y-173844000D01*
X102500500Y-173844000D01*
X102500500Y-174699500D01*
X103410750Y-174699500D01*
X103495383Y-174565598D01*
X103489651Y-174533491D01*
X103441033Y-174372883D01*
X103362016Y-174224846D01*
X103255637Y-174095069D01*
X103125984Y-173988539D01*
X102978039Y-173909350D01*
X102817488Y-173860545D01*
X102650500Y-173844000D01*
X102500500Y-173844000D01*
X102499500Y-173844000D01*
X102349500Y-173844000D01*
X102182512Y-173860545D01*
X102021961Y-173909350D01*
X101874016Y-173988539D01*
X101744363Y-174095069D01*
X101637984Y-174224846D01*
X101558967Y-174372883D01*
X101510349Y-174533491D01*
X101504617Y-174565598D01*
X98495383Y-174565598D01*
X98489651Y-174533491D01*
X98441033Y-174372883D01*
X98362016Y-174224846D01*
X98255637Y-174095069D01*
X98125984Y-173988539D01*
X97978039Y-173909350D01*
X97817488Y-173860545D01*
X97650500Y-173844000D01*
X97500500Y-173844000D01*
X97499500Y-173844000D01*
X97349500Y-173844000D01*
X97182512Y-173860545D01*
X97021961Y-173909350D01*
X96874016Y-173988539D01*
X96744363Y-174095069D01*
X96637984Y-174224846D01*
X96558967Y-174372883D01*
X96510349Y-174533491D01*
X96504617Y-174565598D01*
X79452000Y-174565598D01*
X79452000Y-166220008D01*
X97897174Y-166220008D01*
X97897174Y-166373064D01*
X97927033Y-166523179D01*
X97985605Y-166664584D01*
X98070638Y-166791845D01*
X98178865Y-166900072D01*
X98306126Y-166985105D01*
X98447531Y-167043677D01*
X98597646Y-167073536D01*
X98750702Y-167073536D01*
X98900817Y-167043677D01*
X99042222Y-166985105D01*
X99169483Y-166900072D01*
X99277710Y-166791845D01*
X99362743Y-166664584D01*
X99421315Y-166523179D01*
X99451174Y-166373064D01*
X99451174Y-166220008D01*
X99421315Y-166069893D01*
X99362743Y-165928488D01*
X99277710Y-165801227D01*
X99169483Y-165693000D01*
X99042222Y-165607967D01*
X98900817Y-165549395D01*
X98750702Y-165519536D01*
X98597646Y-165519536D01*
X98447531Y-165549395D01*
X98306126Y-165607967D01*
X98178865Y-165693000D01*
X98070638Y-165801227D01*
X97985605Y-165928488D01*
X97927033Y-166069893D01*
X97897174Y-166220008D01*
X79452000Y-166220008D01*
X79452000Y-163518229D01*
X100434180Y-163518229D01*
X100434180Y-163700831D01*
X100469804Y-163879926D01*
X100539684Y-164048629D01*
X100641132Y-164200458D01*
X100770252Y-164329578D01*
X100922081Y-164431026D01*
X101090784Y-164500906D01*
X101269879Y-164536530D01*
X101452481Y-164536530D01*
X101631576Y-164500906D01*
X101800279Y-164431026D01*
X101952108Y-164329578D01*
X102081228Y-164200458D01*
X102182676Y-164048629D01*
X102252556Y-163879926D01*
X102288180Y-163700831D01*
X102288180Y-163518229D01*
X102252556Y-163339134D01*
X102182676Y-163170431D01*
X102081228Y-163018602D01*
X101952108Y-162889482D01*
X101800279Y-162788034D01*
X101631576Y-162718154D01*
X101452481Y-162682530D01*
X101269879Y-162682530D01*
X101090784Y-162718154D01*
X100922081Y-162788034D01*
X100770252Y-162889482D01*
X100641132Y-163018602D01*
X100539684Y-163170431D01*
X100469804Y-163339134D01*
X100434180Y-163518229D01*
X79452000Y-163518229D01*
X79452000Y-159000000D01*
X82445330Y-159000000D01*
X82448001Y-159027116D01*
X82448000Y-160472894D01*
X82445330Y-160500000D01*
X82448000Y-160527106D01*
X82448000Y-160527108D01*
X82455988Y-160608210D01*
X82479518Y-160685779D01*
X82473000Y-160718548D01*
X82473000Y-160881452D01*
X82504782Y-161041227D01*
X82567123Y-161191731D01*
X82657628Y-161327181D01*
X82772819Y-161442372D01*
X82908269Y-161532877D01*
X83058773Y-161595218D01*
X83218548Y-161627000D01*
X83381452Y-161627000D01*
X83541227Y-161595218D01*
X83691731Y-161532877D01*
X83827181Y-161442372D01*
X83942372Y-161327181D01*
X84032877Y-161191731D01*
X84095218Y-161041227D01*
X84127000Y-160881452D01*
X84127000Y-160718548D01*
X84095218Y-160558773D01*
X84032877Y-160408269D01*
X83942372Y-160272819D01*
X83827181Y-160157628D01*
X83691731Y-160067123D01*
X83552000Y-160009244D01*
X83552000Y-159228644D01*
X83663406Y-159117238D01*
X83604782Y-159258769D01*
X83573000Y-159418544D01*
X83573000Y-159581448D01*
X83604782Y-159741223D01*
X83667123Y-159891727D01*
X83757628Y-160027177D01*
X83872819Y-160142368D01*
X84008269Y-160232873D01*
X84158773Y-160295214D01*
X84318548Y-160326996D01*
X84481452Y-160326996D01*
X84641227Y-160295214D01*
X84791731Y-160232873D01*
X84927181Y-160142368D01*
X85017553Y-160051996D01*
X87207391Y-160051996D01*
X87257628Y-160127181D01*
X87372819Y-160242372D01*
X87508269Y-160332877D01*
X87658773Y-160395218D01*
X87818548Y-160427000D01*
X87981452Y-160427000D01*
X88141227Y-160395218D01*
X88291731Y-160332877D01*
X88427181Y-160242372D01*
X88542372Y-160127181D01*
X88632877Y-159991731D01*
X88695218Y-159841227D01*
X88727000Y-159681452D01*
X88727000Y-159518548D01*
X88695218Y-159358773D01*
X88632877Y-159208269D01*
X88542372Y-159072819D01*
X88427181Y-158957628D01*
X88291731Y-158867123D01*
X88141227Y-158804782D01*
X87981452Y-158773000D01*
X87818548Y-158773000D01*
X87658773Y-158804782D01*
X87508269Y-158867123D01*
X87387234Y-158947996D01*
X85017553Y-158947996D01*
X84927181Y-158857624D01*
X84791731Y-158767119D01*
X84641227Y-158704778D01*
X84481452Y-158672996D01*
X84318548Y-158672996D01*
X84158773Y-158704778D01*
X84017243Y-158763402D01*
X84428646Y-158352000D01*
X84982447Y-158352000D01*
X85072819Y-158442372D01*
X85208269Y-158532877D01*
X85358773Y-158595218D01*
X85518548Y-158627000D01*
X85681452Y-158627000D01*
X85841227Y-158595218D01*
X85991731Y-158532877D01*
X86127181Y-158442372D01*
X86242372Y-158327181D01*
X86332877Y-158191731D01*
X86395218Y-158041227D01*
X86427000Y-157881452D01*
X86427000Y-157718548D01*
X86395218Y-157558773D01*
X86332877Y-157408269D01*
X86242372Y-157272819D01*
X86127181Y-157157628D01*
X85991731Y-157067123D01*
X85841227Y-157004782D01*
X85681452Y-156973000D01*
X85518548Y-156973000D01*
X85358773Y-157004782D01*
X85208269Y-157067123D01*
X85072819Y-157157628D01*
X84982447Y-157248000D01*
X84227097Y-157248000D01*
X84199999Y-157245331D01*
X84172901Y-157248000D01*
X84172891Y-157248000D01*
X84091789Y-157255988D01*
X83987737Y-157287552D01*
X83943098Y-157311412D01*
X83891841Y-157338809D01*
X83834679Y-157385721D01*
X83807789Y-157407789D01*
X83790508Y-157428846D01*
X82628852Y-158590504D01*
X82607790Y-158607789D01*
X82554276Y-158672996D01*
X82538809Y-158691843D01*
X82487552Y-158787738D01*
X82455989Y-158891790D01*
X82445330Y-159000000D01*
X79452000Y-159000000D01*
X79452000Y-153400358D01*
X87723000Y-153400358D01*
X87723000Y-153799642D01*
X87800896Y-154191254D01*
X87953696Y-154560145D01*
X88175526Y-154892137D01*
X88457863Y-155174474D01*
X88789855Y-155396304D01*
X89158746Y-155549104D01*
X89550358Y-155627000D01*
X89949642Y-155627000D01*
X90341254Y-155549104D01*
X90710145Y-155396304D01*
X91042137Y-155174474D01*
X91324474Y-154892137D01*
X91546304Y-154560145D01*
X91699104Y-154191254D01*
X91777000Y-153799642D01*
X91777000Y-153400358D01*
X108223000Y-153400358D01*
X108223000Y-153799642D01*
X108300896Y-154191254D01*
X108453696Y-154560145D01*
X108675526Y-154892137D01*
X108957863Y-155174474D01*
X109289855Y-155396304D01*
X109658746Y-155549104D01*
X110050358Y-155627000D01*
X110449642Y-155627000D01*
X110841254Y-155549104D01*
X111210145Y-155396304D01*
X111542137Y-155174474D01*
X111824474Y-154892137D01*
X112046304Y-154560145D01*
X112199104Y-154191254D01*
X112277000Y-153799642D01*
X112277000Y-153713065D01*
X117484234Y-153713065D01*
X117502896Y-153806885D01*
X117581866Y-154034916D01*
X117703806Y-154243159D01*
X117864029Y-154423611D01*
X118056378Y-154569338D01*
X118273461Y-154674740D01*
X118506935Y-154735766D01*
X118699500Y-154655750D01*
X118699500Y-153520500D01*
X118700500Y-153520500D01*
X118700500Y-154655750D01*
X118893065Y-154735766D01*
X119126539Y-154674740D01*
X119343622Y-154569338D01*
X119535971Y-154423611D01*
X119696194Y-154243159D01*
X119818134Y-154034916D01*
X119897104Y-153806885D01*
X119915766Y-153713065D01*
X119835750Y-153520500D01*
X118700500Y-153520500D01*
X118699500Y-153520500D01*
X117564250Y-153520500D01*
X117484234Y-153713065D01*
X112277000Y-153713065D01*
X112277000Y-153400358D01*
X112262396Y-153326935D01*
X117484234Y-153326935D01*
X117564250Y-153519500D01*
X118699500Y-153519500D01*
X118699500Y-152384250D01*
X118700500Y-152384250D01*
X118700500Y-153519500D01*
X119835750Y-153519500D01*
X119915766Y-153326935D01*
X119897104Y-153233115D01*
X119818134Y-153005084D01*
X119696194Y-152796841D01*
X119535971Y-152616389D01*
X119343622Y-152470662D01*
X119126539Y-152365260D01*
X118893065Y-152304234D01*
X118700500Y-152384250D01*
X118699500Y-152384250D01*
X118506935Y-152304234D01*
X118273461Y-152365260D01*
X118056378Y-152470662D01*
X117864029Y-152616389D01*
X117703806Y-152796841D01*
X117581866Y-153005084D01*
X117502896Y-153233115D01*
X117484234Y-153326935D01*
X112262396Y-153326935D01*
X112199104Y-153008746D01*
X112046304Y-152639855D01*
X111824474Y-152307863D01*
X111542137Y-152025526D01*
X111210145Y-151803696D01*
X110841254Y-151650896D01*
X110449642Y-151573000D01*
X110050358Y-151573000D01*
X109658746Y-151650896D01*
X109289855Y-151803696D01*
X108957863Y-152025526D01*
X108675526Y-152307863D01*
X108453696Y-152639855D01*
X108300896Y-153008746D01*
X108223000Y-153400358D01*
X91777000Y-153400358D01*
X91699104Y-153008746D01*
X91546304Y-152639855D01*
X91324474Y-152307863D01*
X91042137Y-152025526D01*
X90710145Y-151803696D01*
X90341254Y-151650896D01*
X89949642Y-151573000D01*
X89550358Y-151573000D01*
X89158746Y-151650896D01*
X88789855Y-151803696D01*
X88457863Y-152025526D01*
X88175526Y-152307863D01*
X87953696Y-152639855D01*
X87800896Y-153008746D01*
X87723000Y-153400358D01*
X79452000Y-153400358D01*
X79452000Y-136905895D01*
X88760347Y-136905895D01*
X88760347Y-137068799D01*
X88792129Y-137228574D01*
X88854470Y-137379078D01*
X88944975Y-137514528D01*
X89060166Y-137629719D01*
X89195616Y-137720224D01*
X89346120Y-137782565D01*
X89505895Y-137814347D01*
X89633703Y-137814347D01*
X93848000Y-142028646D01*
X93848001Y-146382446D01*
X93757628Y-146472819D01*
X93667123Y-146608269D01*
X93604782Y-146758773D01*
X93573000Y-146918548D01*
X93573000Y-147081452D01*
X93604782Y-147241227D01*
X93667123Y-147391731D01*
X93757628Y-147527181D01*
X93872819Y-147642372D01*
X94008269Y-147732877D01*
X94158773Y-147795218D01*
X94318548Y-147827000D01*
X94481452Y-147827000D01*
X94641227Y-147795218D01*
X94791731Y-147732877D01*
X94927181Y-147642372D01*
X94951005Y-147618548D01*
X100173000Y-147618548D01*
X100173000Y-147781452D01*
X100204782Y-147941227D01*
X100267123Y-148091731D01*
X100357628Y-148227181D01*
X100472819Y-148342372D01*
X100608269Y-148432877D01*
X100758773Y-148495218D01*
X100918548Y-148527000D01*
X101081452Y-148527000D01*
X101241227Y-148495218D01*
X101391731Y-148432877D01*
X101527181Y-148342372D01*
X101617553Y-148252000D01*
X103471356Y-148252000D01*
X104590508Y-149371154D01*
X104607789Y-149392211D01*
X104628845Y-149409491D01*
X104628846Y-149409492D01*
X104691842Y-149461191D01*
X104787737Y-149512448D01*
X104891789Y-149544012D01*
X105000000Y-149554670D01*
X105027108Y-149552000D01*
X109182447Y-149552000D01*
X109272819Y-149642372D01*
X109408269Y-149732877D01*
X109558773Y-149795218D01*
X109718548Y-149827000D01*
X109881452Y-149827000D01*
X110041227Y-149795218D01*
X110191731Y-149732877D01*
X110327181Y-149642372D01*
X110442372Y-149527181D01*
X110532877Y-149391731D01*
X110555784Y-149336429D01*
X111090508Y-149871154D01*
X111107789Y-149892211D01*
X111191842Y-149961191D01*
X111287737Y-150012448D01*
X111391789Y-150044012D01*
X111472891Y-150052000D01*
X111472901Y-150052000D01*
X111499999Y-150054669D01*
X111527097Y-150052000D01*
X117572894Y-150052000D01*
X117600000Y-150054670D01*
X117626854Y-150052025D01*
X117666962Y-150054014D01*
X117774527Y-150038109D01*
X117870081Y-150003968D01*
X117708089Y-150165960D01*
X117568337Y-150375114D01*
X117546431Y-150428000D01*
X115647108Y-150428000D01*
X115620000Y-150425330D01*
X115592891Y-150428000D01*
X115511789Y-150435988D01*
X115407737Y-150467552D01*
X115311842Y-150518809D01*
X115245810Y-150573000D01*
X115118548Y-150573000D01*
X114958773Y-150604782D01*
X114808269Y-150667123D01*
X114672819Y-150757628D01*
X114557628Y-150872819D01*
X114467123Y-151008269D01*
X114404782Y-151158773D01*
X114373000Y-151318548D01*
X114373000Y-151481452D01*
X114404782Y-151641227D01*
X114467123Y-151791731D01*
X114557628Y-151927181D01*
X114672819Y-152042372D01*
X114808269Y-152132877D01*
X114958773Y-152195218D01*
X115118548Y-152227000D01*
X115281452Y-152227000D01*
X115441227Y-152195218D01*
X115591731Y-152132877D01*
X115727181Y-152042372D01*
X115842372Y-151927181D01*
X115932877Y-151791731D01*
X115995218Y-151641227D01*
X116016945Y-151532000D01*
X117546431Y-151532000D01*
X117568337Y-151584886D01*
X117708089Y-151794040D01*
X117885960Y-151971911D01*
X118095114Y-152111663D01*
X118327513Y-152207926D01*
X118574226Y-152257000D01*
X118825774Y-152257000D01*
X119072487Y-152207926D01*
X119304886Y-152111663D01*
X119514040Y-151971911D01*
X119691911Y-151794040D01*
X119831663Y-151584886D01*
X119927926Y-151352487D01*
X119977000Y-151105774D01*
X119977000Y-150854226D01*
X119927926Y-150607513D01*
X119831663Y-150375114D01*
X119691911Y-150165960D01*
X119514040Y-149988089D01*
X119304886Y-149848337D01*
X119072487Y-149752074D01*
X118860966Y-149710000D01*
X119072487Y-149667926D01*
X119304886Y-149571663D01*
X119514040Y-149431911D01*
X119691911Y-149254040D01*
X119831663Y-149044886D01*
X119927926Y-148812487D01*
X119977000Y-148565774D01*
X119977000Y-148314226D01*
X119927926Y-148067513D01*
X119831663Y-147835114D01*
X119691911Y-147625960D01*
X119514040Y-147448089D01*
X119304886Y-147308337D01*
X119072487Y-147212074D01*
X118860966Y-147170000D01*
X119072487Y-147127926D01*
X119304886Y-147031663D01*
X119514040Y-146891911D01*
X119691911Y-146714040D01*
X119831663Y-146504886D01*
X119927926Y-146272487D01*
X119977000Y-146025774D01*
X119977000Y-145774226D01*
X119927926Y-145527513D01*
X119831663Y-145295114D01*
X119691911Y-145085960D01*
X119514040Y-144908089D01*
X119304886Y-144768337D01*
X119072487Y-144672074D01*
X118860966Y-144630000D01*
X119072487Y-144587926D01*
X119304886Y-144491663D01*
X119514040Y-144351911D01*
X119691911Y-144174040D01*
X119831663Y-143964886D01*
X119927926Y-143732487D01*
X119977000Y-143485774D01*
X119977000Y-143234226D01*
X119927926Y-142987513D01*
X119831663Y-142755114D01*
X119691911Y-142545960D01*
X119514040Y-142368089D01*
X119304886Y-142228337D01*
X119072487Y-142132074D01*
X118860966Y-142090000D01*
X119072487Y-142047926D01*
X119304886Y-141951663D01*
X119514040Y-141811911D01*
X119691911Y-141634040D01*
X119831663Y-141424886D01*
X119927926Y-141192487D01*
X119977000Y-140945774D01*
X119977000Y-140694226D01*
X119927926Y-140447513D01*
X119831663Y-140215114D01*
X119691911Y-140005960D01*
X119514040Y-139828089D01*
X119304886Y-139688337D01*
X119072487Y-139592074D01*
X118860966Y-139550000D01*
X119072487Y-139507926D01*
X119304886Y-139411663D01*
X119514040Y-139271911D01*
X119691911Y-139094040D01*
X119831663Y-138884886D01*
X119927926Y-138652487D01*
X119977000Y-138405774D01*
X119977000Y-138154226D01*
X119927926Y-137907513D01*
X119831663Y-137675114D01*
X119691911Y-137465960D01*
X119514040Y-137288089D01*
X119304886Y-137148337D01*
X119072487Y-137052074D01*
X118860966Y-137010000D01*
X119072487Y-136967926D01*
X119304886Y-136871663D01*
X119514040Y-136731911D01*
X119691911Y-136554040D01*
X119831663Y-136344886D01*
X119927926Y-136112487D01*
X119977000Y-135865774D01*
X119977000Y-135614226D01*
X119927926Y-135367513D01*
X119831663Y-135135114D01*
X119691911Y-134925960D01*
X119514040Y-134748089D01*
X119304886Y-134608337D01*
X119072487Y-134512074D01*
X118906544Y-134479066D01*
X119550000Y-134479066D01*
X119633707Y-134470822D01*
X119714196Y-134446405D01*
X119788376Y-134406755D01*
X119853395Y-134353395D01*
X119906755Y-134288376D01*
X119946405Y-134214196D01*
X119970822Y-134133707D01*
X119979066Y-134050000D01*
X119979066Y-132350000D01*
X119970822Y-132266293D01*
X119946405Y-132185804D01*
X119906755Y-132111624D01*
X119853395Y-132046605D01*
X119788376Y-131993245D01*
X119714196Y-131953595D01*
X119633707Y-131929178D01*
X119550000Y-131920934D01*
X117850000Y-131920934D01*
X117766293Y-131929178D01*
X117685804Y-131953595D01*
X117611624Y-131993245D01*
X117546605Y-132046605D01*
X117493245Y-132111624D01*
X117453595Y-132185804D01*
X117429178Y-132266293D01*
X117420934Y-132350000D01*
X117420934Y-132648000D01*
X110227102Y-132648000D01*
X110199996Y-132645330D01*
X110172890Y-132648000D01*
X110172887Y-132648000D01*
X110091785Y-132655988D01*
X109987733Y-132687552D01*
X109891838Y-132738809D01*
X109807785Y-132807789D01*
X109790500Y-132828851D01*
X107846356Y-134772996D01*
X107718548Y-134772996D01*
X107558773Y-134804778D01*
X107408269Y-134867119D01*
X107272819Y-134957624D01*
X107157628Y-135072815D01*
X107067123Y-135208265D01*
X107004782Y-135358769D01*
X106973000Y-135518544D01*
X106973000Y-135681448D01*
X107004782Y-135841223D01*
X107067123Y-135991727D01*
X107157628Y-136127177D01*
X107272819Y-136242368D01*
X107408269Y-136332873D01*
X107558773Y-136395214D01*
X107718548Y-136426996D01*
X107881452Y-136426996D01*
X108041227Y-136395214D01*
X108191731Y-136332873D01*
X108327181Y-136242368D01*
X108442372Y-136127177D01*
X108532877Y-135991727D01*
X108595218Y-135841223D01*
X108627000Y-135681448D01*
X108627000Y-135553640D01*
X110428641Y-133752000D01*
X117420934Y-133752000D01*
X117420934Y-134050000D01*
X117429178Y-134133707D01*
X117453595Y-134214196D01*
X117493245Y-134288376D01*
X117546605Y-134353395D01*
X117611624Y-134406755D01*
X117685804Y-134446405D01*
X117766293Y-134470822D01*
X117850000Y-134479066D01*
X118493456Y-134479066D01*
X118327513Y-134512074D01*
X118095114Y-134608337D01*
X117885960Y-134748089D01*
X117708089Y-134925960D01*
X117568337Y-135135114D01*
X117472074Y-135367513D01*
X117423000Y-135614226D01*
X117423000Y-135865774D01*
X117472074Y-136112487D01*
X117568337Y-136344886D01*
X117708089Y-136554040D01*
X117885960Y-136731911D01*
X118095114Y-136871663D01*
X118327513Y-136967926D01*
X118539034Y-137010000D01*
X118327513Y-137052074D01*
X118095114Y-137148337D01*
X117885960Y-137288089D01*
X117708089Y-137465960D01*
X117568337Y-137675114D01*
X117472074Y-137907513D01*
X117423000Y-138154226D01*
X117423000Y-138405774D01*
X117472074Y-138652487D01*
X117568337Y-138884886D01*
X117708089Y-139094040D01*
X117885960Y-139271911D01*
X118095114Y-139411663D01*
X118327513Y-139507926D01*
X118539034Y-139550000D01*
X118327513Y-139592074D01*
X118095114Y-139688337D01*
X117885960Y-139828089D01*
X117708089Y-140005960D01*
X117568337Y-140215114D01*
X117472074Y-140447513D01*
X117423000Y-140694226D01*
X117423000Y-140945774D01*
X117472074Y-141192487D01*
X117493980Y-141245374D01*
X112391356Y-146348000D01*
X112017553Y-146348000D01*
X111927181Y-146257628D01*
X111791731Y-146167123D01*
X111641227Y-146104782D01*
X111481452Y-146073000D01*
X111318548Y-146073000D01*
X111158773Y-146104782D01*
X111008269Y-146167123D01*
X110872819Y-146257628D01*
X110757628Y-146372819D01*
X110667123Y-146508269D01*
X110604782Y-146658773D01*
X110573000Y-146818548D01*
X110573000Y-146981452D01*
X110604782Y-147141227D01*
X110627300Y-147195589D01*
X110612263Y-147187552D01*
X110508211Y-147155988D01*
X110427109Y-147148000D01*
X110427106Y-147148000D01*
X110400000Y-147145330D01*
X110372894Y-147148000D01*
X105328646Y-147148000D01*
X103509500Y-145328856D01*
X103492211Y-145307789D01*
X103408158Y-145238809D01*
X103312263Y-145187552D01*
X103208211Y-145155988D01*
X103127109Y-145148000D01*
X103127106Y-145148000D01*
X103100000Y-145145330D01*
X103072894Y-145148000D01*
X102617557Y-145148000D01*
X102527185Y-145057628D01*
X102391735Y-144967123D01*
X102241231Y-144904782D01*
X102081456Y-144873000D01*
X101918552Y-144873000D01*
X101758777Y-144904782D01*
X101608273Y-144967123D01*
X101472823Y-145057628D01*
X101357632Y-145172819D01*
X101267127Y-145308269D01*
X101204786Y-145458773D01*
X101173004Y-145618548D01*
X101173004Y-145781452D01*
X101204786Y-145941227D01*
X101267127Y-146091731D01*
X101339468Y-146199997D01*
X101267123Y-146308269D01*
X101204782Y-146458773D01*
X101173000Y-146618548D01*
X101173000Y-146781452D01*
X101195732Y-146895732D01*
X101081452Y-146873000D01*
X100918548Y-146873000D01*
X100758773Y-146904782D01*
X100608269Y-146967123D01*
X100472819Y-147057628D01*
X100357628Y-147172819D01*
X100267123Y-147308269D01*
X100204782Y-147458773D01*
X100173000Y-147618548D01*
X94951005Y-147618548D01*
X95042372Y-147527181D01*
X95132877Y-147391731D01*
X95195218Y-147241227D01*
X95227000Y-147081452D01*
X95227000Y-146918548D01*
X95195218Y-146758773D01*
X95132877Y-146608269D01*
X95042372Y-146472819D01*
X94952000Y-146382447D01*
X94952000Y-143418548D01*
X99473000Y-143418548D01*
X99473000Y-143581452D01*
X99504782Y-143741227D01*
X99567123Y-143891731D01*
X99657628Y-144027181D01*
X99772819Y-144142372D01*
X99908269Y-144232877D01*
X100058773Y-144295218D01*
X100218548Y-144327000D01*
X100381452Y-144327000D01*
X100541227Y-144295218D01*
X100691731Y-144232877D01*
X100827181Y-144142372D01*
X100942372Y-144027181D01*
X101032877Y-143891731D01*
X101095218Y-143741227D01*
X101112967Y-143652000D01*
X102871356Y-143652000D01*
X105091356Y-145872002D01*
X105067123Y-145908269D01*
X105004782Y-146058773D01*
X104973000Y-146218548D01*
X104973000Y-146381452D01*
X105004782Y-146541227D01*
X105067123Y-146691731D01*
X105157628Y-146827181D01*
X105272819Y-146942372D01*
X105408269Y-147032877D01*
X105558773Y-147095218D01*
X105718548Y-147127000D01*
X105881452Y-147127000D01*
X106041227Y-147095218D01*
X106191731Y-147032877D01*
X106327181Y-146942372D01*
X106442372Y-146827181D01*
X106532877Y-146691731D01*
X106595218Y-146541227D01*
X106627000Y-146381452D01*
X106627000Y-146218548D01*
X106595218Y-146058773D01*
X106532877Y-145908269D01*
X106442372Y-145772819D01*
X106336466Y-145666913D01*
X106312448Y-145587737D01*
X106261191Y-145491842D01*
X106209492Y-145428846D01*
X106209491Y-145428845D01*
X106192211Y-145407789D01*
X106171154Y-145390508D01*
X103509500Y-142728856D01*
X103492211Y-142707789D01*
X103408158Y-142638809D01*
X103312263Y-142587552D01*
X103208211Y-142555988D01*
X103127109Y-142548000D01*
X103127106Y-142548000D01*
X103100000Y-142545330D01*
X103072894Y-142548000D01*
X100727097Y-142548000D01*
X100699999Y-142545331D01*
X100672901Y-142548000D01*
X100672891Y-142548000D01*
X100591789Y-142555988D01*
X100487737Y-142587552D01*
X100443098Y-142611412D01*
X100391841Y-142638809D01*
X100350180Y-142673000D01*
X100218548Y-142673000D01*
X100058773Y-142704782D01*
X99908269Y-142767123D01*
X99772819Y-142857628D01*
X99657628Y-142972819D01*
X99567123Y-143108269D01*
X99504782Y-143258773D01*
X99473000Y-143418548D01*
X94952000Y-143418548D01*
X94952000Y-141827105D01*
X94954670Y-141799999D01*
X94949960Y-141752181D01*
X94944012Y-141691789D01*
X94912448Y-141587737D01*
X94861191Y-141491842D01*
X94792211Y-141407789D01*
X94771154Y-141390508D01*
X94524194Y-141143548D01*
X105573000Y-141143548D01*
X105573000Y-141306452D01*
X105604782Y-141466227D01*
X105667123Y-141616731D01*
X105757628Y-141752181D01*
X105872819Y-141867372D01*
X106008269Y-141957877D01*
X106158773Y-142020218D01*
X106318548Y-142052000D01*
X106481452Y-142052000D01*
X106641227Y-142020218D01*
X106791731Y-141957877D01*
X106927181Y-141867372D01*
X107042372Y-141752181D01*
X107132877Y-141616731D01*
X107195218Y-141466227D01*
X107227000Y-141306452D01*
X107227000Y-141153644D01*
X108428646Y-139952000D01*
X116182447Y-139952000D01*
X116272819Y-140042372D01*
X116408269Y-140132877D01*
X116558773Y-140195218D01*
X116718548Y-140227000D01*
X116881452Y-140227000D01*
X117041227Y-140195218D01*
X117191731Y-140132877D01*
X117327181Y-140042372D01*
X117442372Y-139927181D01*
X117532877Y-139791731D01*
X117595218Y-139641227D01*
X117627000Y-139481452D01*
X117627000Y-139318548D01*
X117595218Y-139158773D01*
X117532877Y-139008269D01*
X117442372Y-138872819D01*
X117327181Y-138757628D01*
X117191731Y-138667123D01*
X117041227Y-138604782D01*
X116881452Y-138573000D01*
X116718548Y-138573000D01*
X116558773Y-138604782D01*
X116408269Y-138667123D01*
X116272819Y-138757628D01*
X116182447Y-138848000D01*
X108227097Y-138848000D01*
X108199999Y-138845331D01*
X108172901Y-138848000D01*
X108172891Y-138848000D01*
X108091789Y-138855988D01*
X107987737Y-138887552D01*
X107943098Y-138911412D01*
X107891841Y-138938809D01*
X107834679Y-138985721D01*
X107807789Y-139007789D01*
X107790508Y-139028846D01*
X106421356Y-140398000D01*
X106318548Y-140398000D01*
X106158773Y-140429782D01*
X106008269Y-140492123D01*
X105872819Y-140582628D01*
X105757628Y-140697819D01*
X105667123Y-140833269D01*
X105604782Y-140983773D01*
X105573000Y-141143548D01*
X94524194Y-141143548D01*
X90414347Y-137033703D01*
X90414347Y-136905895D01*
X90382565Y-136746120D01*
X90320224Y-136595616D01*
X90229719Y-136460166D01*
X90114528Y-136344975D01*
X89979078Y-136254470D01*
X89828574Y-136192129D01*
X89668799Y-136160347D01*
X89505895Y-136160347D01*
X89346120Y-136192129D01*
X89195616Y-136254470D01*
X89060166Y-136344975D01*
X88944975Y-136460166D01*
X88854470Y-136595616D01*
X88792129Y-136746120D01*
X88760347Y-136905895D01*
X79452000Y-136905895D01*
X79452000Y-130693065D01*
X80344234Y-130693065D01*
X80405260Y-130926539D01*
X80510662Y-131143622D01*
X80656389Y-131335971D01*
X80836841Y-131496194D01*
X81045084Y-131618134D01*
X81273115Y-131697104D01*
X81366935Y-131715766D01*
X81559500Y-131635750D01*
X81559500Y-130500500D01*
X81560500Y-130500500D01*
X81560500Y-131635750D01*
X81753065Y-131715766D01*
X81846885Y-131697104D01*
X82074916Y-131618134D01*
X82283159Y-131496194D01*
X82463611Y-131335971D01*
X82609338Y-131143622D01*
X82714740Y-130926539D01*
X82775766Y-130693065D01*
X82695750Y-130500500D01*
X81560500Y-130500500D01*
X81559500Y-130500500D01*
X80424250Y-130500500D01*
X80344234Y-130693065D01*
X79452000Y-130693065D01*
X79452000Y-130306935D01*
X80344234Y-130306935D01*
X80424250Y-130499500D01*
X81559500Y-130499500D01*
X81559500Y-129364250D01*
X81560500Y-129364250D01*
X81560500Y-130499500D01*
X82695750Y-130499500D01*
X82775766Y-130306935D01*
X82714740Y-130073461D01*
X82609338Y-129856378D01*
X82463611Y-129664029D01*
X82447811Y-129650000D01*
X82820934Y-129650000D01*
X82820934Y-131350000D01*
X82829178Y-131433707D01*
X82853595Y-131514196D01*
X82893245Y-131588376D01*
X82946605Y-131653395D01*
X83011624Y-131706755D01*
X83085804Y-131746405D01*
X83166293Y-131770822D01*
X83250000Y-131779066D01*
X84950000Y-131779066D01*
X85033707Y-131770822D01*
X85114196Y-131746405D01*
X85188376Y-131706755D01*
X85253395Y-131653395D01*
X85306755Y-131588376D01*
X85346405Y-131514196D01*
X85370822Y-131433707D01*
X85379066Y-131350000D01*
X85379066Y-130400358D01*
X87723000Y-130400358D01*
X87723000Y-130799642D01*
X87800896Y-131191254D01*
X87953696Y-131560145D01*
X88175526Y-131892137D01*
X88457863Y-132174474D01*
X88789855Y-132396304D01*
X89158746Y-132549104D01*
X89550358Y-132627000D01*
X89949642Y-132627000D01*
X90341254Y-132549104D01*
X90710145Y-132396304D01*
X91042137Y-132174474D01*
X91324474Y-131892137D01*
X91546304Y-131560145D01*
X91699104Y-131191254D01*
X91755513Y-130907662D01*
X95383045Y-130907662D01*
X95463340Y-131101012D01*
X95672589Y-131223542D01*
X95901724Y-131302896D01*
X96141937Y-131336023D01*
X96383996Y-131321650D01*
X96618601Y-131260329D01*
X96836734Y-131154418D01*
X96916660Y-131101012D01*
X96996955Y-130907662D01*
X96190000Y-130100707D01*
X95383045Y-130907662D01*
X91755513Y-130907662D01*
X91777000Y-130799642D01*
X91777000Y-130400358D01*
X91707696Y-130051937D01*
X94953977Y-130051937D01*
X94968350Y-130293996D01*
X95029671Y-130528601D01*
X95135582Y-130746734D01*
X95188988Y-130826660D01*
X95382338Y-130906955D01*
X96189293Y-130100000D01*
X96190707Y-130100000D01*
X96997662Y-130906955D01*
X97191012Y-130826660D01*
X97313542Y-130617411D01*
X97392896Y-130388276D01*
X97426023Y-130148063D01*
X97415701Y-129974226D01*
X97453000Y-129974226D01*
X97453000Y-130225774D01*
X97502074Y-130472487D01*
X97598337Y-130704886D01*
X97738089Y-130914040D01*
X97915960Y-131091911D01*
X98125114Y-131231663D01*
X98357513Y-131327926D01*
X98604226Y-131377000D01*
X98855774Y-131377000D01*
X99102487Y-131327926D01*
X99334886Y-131231663D01*
X99544040Y-131091911D01*
X99721911Y-130914040D01*
X99861663Y-130704886D01*
X99957926Y-130472487D01*
X100000000Y-130260966D01*
X100042074Y-130472487D01*
X100138337Y-130704886D01*
X100278089Y-130914040D01*
X100455960Y-131091911D01*
X100665114Y-131231663D01*
X100897513Y-131327926D01*
X101144226Y-131377000D01*
X101395774Y-131377000D01*
X101642487Y-131327926D01*
X101874886Y-131231663D01*
X102084040Y-131091911D01*
X102261911Y-130914040D01*
X102401663Y-130704886D01*
X102497926Y-130472487D01*
X102540000Y-130260966D01*
X102582074Y-130472487D01*
X102678337Y-130704886D01*
X102818089Y-130914040D01*
X102995960Y-131091911D01*
X103205114Y-131231663D01*
X103437513Y-131327926D01*
X103684226Y-131377000D01*
X103935774Y-131377000D01*
X104182487Y-131327926D01*
X104414886Y-131231663D01*
X104624040Y-131091911D01*
X104801911Y-130914040D01*
X104941663Y-130704886D01*
X105037926Y-130472487D01*
X105052273Y-130400358D01*
X108223000Y-130400358D01*
X108223000Y-130799642D01*
X108300896Y-131191254D01*
X108453696Y-131560145D01*
X108675526Y-131892137D01*
X108957863Y-132174474D01*
X109289855Y-132396304D01*
X109658746Y-132549104D01*
X110050358Y-132627000D01*
X110449642Y-132627000D01*
X110841254Y-132549104D01*
X111210145Y-132396304D01*
X111542137Y-132174474D01*
X111824474Y-131892137D01*
X112046304Y-131560145D01*
X112199104Y-131191254D01*
X112277000Y-130799642D01*
X112277000Y-130400358D01*
X112199104Y-130008746D01*
X112046304Y-129639855D01*
X111824474Y-129307863D01*
X111542137Y-129025526D01*
X111210145Y-128803696D01*
X110841254Y-128650896D01*
X110449642Y-128573000D01*
X110050358Y-128573000D01*
X109658746Y-128650896D01*
X109289855Y-128803696D01*
X108957863Y-129025526D01*
X108675526Y-129307863D01*
X108453696Y-129639855D01*
X108300896Y-130008746D01*
X108223000Y-130400358D01*
X105052273Y-130400358D01*
X105087000Y-130225774D01*
X105087000Y-129974226D01*
X105037926Y-129727513D01*
X104941663Y-129495114D01*
X104801911Y-129285960D01*
X104624040Y-129108089D01*
X104414886Y-128968337D01*
X104182487Y-128872074D01*
X103935774Y-128823000D01*
X103684226Y-128823000D01*
X103437513Y-128872074D01*
X103205114Y-128968337D01*
X102995960Y-129108089D01*
X102818089Y-129285960D01*
X102678337Y-129495114D01*
X102582074Y-129727513D01*
X102540000Y-129939034D01*
X102497926Y-129727513D01*
X102401663Y-129495114D01*
X102261911Y-129285960D01*
X102084040Y-129108089D01*
X101874886Y-128968337D01*
X101642487Y-128872074D01*
X101395774Y-128823000D01*
X101144226Y-128823000D01*
X100897513Y-128872074D01*
X100665114Y-128968337D01*
X100455960Y-129108089D01*
X100278089Y-129285960D01*
X100138337Y-129495114D01*
X100042074Y-129727513D01*
X100000000Y-129939034D01*
X99957926Y-129727513D01*
X99861663Y-129495114D01*
X99721911Y-129285960D01*
X99544040Y-129108089D01*
X99334886Y-128968337D01*
X99102487Y-128872074D01*
X98855774Y-128823000D01*
X98604226Y-128823000D01*
X98357513Y-128872074D01*
X98125114Y-128968337D01*
X97915960Y-129108089D01*
X97738089Y-129285960D01*
X97598337Y-129495114D01*
X97502074Y-129727513D01*
X97453000Y-129974226D01*
X97415701Y-129974226D01*
X97411650Y-129906004D01*
X97350329Y-129671399D01*
X97244418Y-129453266D01*
X97191012Y-129373340D01*
X96997662Y-129293045D01*
X96190707Y-130100000D01*
X96189293Y-130100000D01*
X95382338Y-129293045D01*
X95188988Y-129373340D01*
X95066458Y-129582589D01*
X94987104Y-129811724D01*
X94953977Y-130051937D01*
X91707696Y-130051937D01*
X91699104Y-130008746D01*
X91546304Y-129639855D01*
X91324474Y-129307863D01*
X91308949Y-129292338D01*
X95383045Y-129292338D01*
X96190000Y-130099293D01*
X96996955Y-129292338D01*
X96916660Y-129098988D01*
X96707411Y-128976458D01*
X96478276Y-128897104D01*
X96238063Y-128863977D01*
X95996004Y-128878350D01*
X95761399Y-128939671D01*
X95543266Y-129045582D01*
X95463340Y-129098988D01*
X95383045Y-129292338D01*
X91308949Y-129292338D01*
X91042137Y-129025526D01*
X90710145Y-128803696D01*
X90341254Y-128650896D01*
X89949642Y-128573000D01*
X89550358Y-128573000D01*
X89158746Y-128650896D01*
X88789855Y-128803696D01*
X88457863Y-129025526D01*
X88175526Y-129307863D01*
X87953696Y-129639855D01*
X87800896Y-130008746D01*
X87723000Y-130400358D01*
X85379066Y-130400358D01*
X85379066Y-129650000D01*
X85370822Y-129566293D01*
X85346405Y-129485804D01*
X85306755Y-129411624D01*
X85253395Y-129346605D01*
X85188376Y-129293245D01*
X85114196Y-129253595D01*
X85033707Y-129229178D01*
X84950000Y-129220934D01*
X83250000Y-129220934D01*
X83166293Y-129229178D01*
X83085804Y-129253595D01*
X83011624Y-129293245D01*
X82946605Y-129346605D01*
X82893245Y-129411624D01*
X82853595Y-129485804D01*
X82829178Y-129566293D01*
X82820934Y-129650000D01*
X82447811Y-129650000D01*
X82283159Y-129503806D01*
X82074916Y-129381866D01*
X81846885Y-129302896D01*
X81753065Y-129284234D01*
X81560500Y-129364250D01*
X81559500Y-129364250D01*
X81366935Y-129284234D01*
X81273115Y-129302896D01*
X81045084Y-129381866D01*
X80836841Y-129503806D01*
X80656389Y-129664029D01*
X80510662Y-129856378D01*
X80405260Y-130073461D01*
X80344234Y-130306935D01*
X79452000Y-130306935D01*
X79452000Y-127327000D01*
X120548001Y-127327000D01*
X120548000Y-177977893D01*
M02*
