G04 #@! TF.GenerationSoftware,KiCad,Pcbnew,(5.1.5-0-10_14)*
G04 #@! TF.CreationDate,2020-01-07T13:17:42-08:00*
G04 #@! TF.ProjectId,PARmeter,5041526d-6574-4657-922e-6b696361645f,rev?*
G04 #@! TF.SameCoordinates,Original*
G04 #@! TF.FileFunction,Soldermask,Top*
G04 #@! TF.FilePolarity,Negative*
%FSLAX46Y46*%
G04 Gerber Fmt 4.6, Leading zero omitted, Abs format (unit mm)*
G04 Created by KiCad (PCBNEW (5.1.5-0-10_14)) date 2020-01-07 13:17:42*
%MOMM*%
%LPD*%
G04 APERTURE LIST*
%ADD10C,0.100000*%
G04 APERTURE END LIST*
D10*
G36*
X103520961Y-176523399D02*
G01*
X103533201Y-176524000D01*
X103604230Y-176524000D01*
X103606553Y-176525906D01*
X103628164Y-176537457D01*
X103639693Y-176541582D01*
X103711878Y-176563479D01*
X103755907Y-176587013D01*
X103807599Y-176614643D01*
X103807601Y-176614644D01*
X103807600Y-176614644D01*
X103891501Y-176683499D01*
X103960356Y-176767400D01*
X104011521Y-176863121D01*
X104043027Y-176966985D01*
X104051000Y-177047933D01*
X104051000Y-177752067D01*
X104043027Y-177833015D01*
X104011521Y-177936879D01*
X104011519Y-177936882D01*
X103960357Y-178032600D01*
X103891501Y-178116501D01*
X103807600Y-178185357D01*
X103745221Y-178218699D01*
X103711879Y-178236521D01*
X103671518Y-178248764D01*
X103639713Y-178258412D01*
X103617075Y-178267789D01*
X103604786Y-178276000D01*
X103533201Y-178276000D01*
X103520961Y-178276601D01*
X103500000Y-178278666D01*
X103479039Y-178276601D01*
X103466799Y-178276000D01*
X102249000Y-178276000D01*
X102249000Y-176524000D01*
X103466799Y-176524000D01*
X103479039Y-176523399D01*
X103500000Y-176521334D01*
X103520961Y-176523399D01*
G37*
G36*
X96520961Y-176523399D02*
G01*
X96533201Y-176524000D01*
X97751000Y-176524000D01*
X97751000Y-178276000D01*
X96533201Y-178276000D01*
X96520961Y-178276601D01*
X96500000Y-178278666D01*
X96479039Y-178276601D01*
X96466799Y-178276000D01*
X96395770Y-178276000D01*
X96393447Y-178274094D01*
X96371836Y-178262543D01*
X96360307Y-178258418D01*
X96288122Y-178236521D01*
X96260946Y-178221995D01*
X96192401Y-178185357D01*
X96108500Y-178116501D01*
X96039645Y-178032601D01*
X95988480Y-177936879D01*
X95956973Y-177833015D01*
X95949000Y-177752067D01*
X95949000Y-177047934D01*
X95956973Y-176966986D01*
X95988479Y-176863122D01*
X96039644Y-176767400D01*
X96108499Y-176683499D01*
X96192400Y-176614644D01*
X96192399Y-176614644D01*
X96192401Y-176614643D01*
X96236957Y-176590827D01*
X96288121Y-176563479D01*
X96328482Y-176551236D01*
X96360287Y-176541588D01*
X96382925Y-176532211D01*
X96395214Y-176524000D01*
X96466799Y-176524000D01*
X96479039Y-176523399D01*
X96500000Y-176521334D01*
X96520961Y-176523399D01*
G37*
G36*
X101801000Y-178276000D02*
G01*
X100199000Y-178276000D01*
X100199000Y-176524000D01*
X101801000Y-176524000D01*
X101801000Y-178276000D01*
G37*
G36*
X99801000Y-178276000D02*
G01*
X98199000Y-178276000D01*
X98199000Y-176524000D01*
X99801000Y-176524000D01*
X99801000Y-178276000D01*
G37*
G36*
X80826000Y-178176000D02*
G01*
X79724000Y-178176000D01*
X79724000Y-175274000D01*
X80826000Y-175274000D01*
X80826000Y-178176000D01*
G37*
G36*
X94476000Y-178176000D02*
G01*
X93074000Y-178176000D01*
X93074000Y-176174000D01*
X94476000Y-176174000D01*
X94476000Y-178176000D01*
G37*
G36*
X115401000Y-177001000D02*
G01*
X111999000Y-177001000D01*
X111999000Y-173399000D01*
X115401000Y-173399000D01*
X115401000Y-177001000D01*
G37*
G36*
X101526000Y-175576000D02*
G01*
X98424000Y-175576000D01*
X98424000Y-174752260D01*
X98421598Y-174727874D01*
X98414485Y-174704425D01*
X98412053Y-174699874D01*
X98418618Y-174684025D01*
X98423398Y-174659992D01*
X98424000Y-174647740D01*
X98424000Y-173824000D01*
X101526000Y-173824000D01*
X101526000Y-175576000D01*
G37*
G36*
X102753114Y-174181611D02*
G01*
X102852265Y-174211688D01*
X102943644Y-174260531D01*
X103023738Y-174326262D01*
X103089469Y-174406356D01*
X103138312Y-174497735D01*
X103168389Y-174596886D01*
X103178545Y-174700000D01*
X103168389Y-174803114D01*
X103138312Y-174902265D01*
X103089469Y-174993644D01*
X103023738Y-175073738D01*
X102943644Y-175139469D01*
X102852265Y-175188312D01*
X102753114Y-175218389D01*
X102675839Y-175226000D01*
X102324161Y-175226000D01*
X102246886Y-175218389D01*
X102147735Y-175188312D01*
X102056356Y-175139469D01*
X101976262Y-175073738D01*
X101910531Y-174993644D01*
X101861688Y-174902265D01*
X101831611Y-174803114D01*
X101821455Y-174700000D01*
X101831611Y-174596886D01*
X101861688Y-174497735D01*
X101910531Y-174406356D01*
X101976262Y-174326262D01*
X102056356Y-174260531D01*
X102147735Y-174211688D01*
X102246886Y-174181611D01*
X102324161Y-174174000D01*
X102675839Y-174174000D01*
X102753114Y-174181611D01*
G37*
G36*
X97753114Y-174181611D02*
G01*
X97852265Y-174211688D01*
X97943644Y-174260531D01*
X98023738Y-174326262D01*
X98089469Y-174406356D01*
X98138312Y-174497735D01*
X98168389Y-174596886D01*
X98173398Y-174647740D01*
X98174604Y-174659992D01*
X98179384Y-174684025D01*
X98185949Y-174699874D01*
X98183517Y-174704425D01*
X98176404Y-174727874D01*
X98174605Y-174739998D01*
X98168389Y-174803114D01*
X98138312Y-174902265D01*
X98089469Y-174993644D01*
X98023738Y-175073738D01*
X97943644Y-175139469D01*
X97852265Y-175188312D01*
X97753114Y-175218389D01*
X97675839Y-175226000D01*
X97324161Y-175226000D01*
X97246886Y-175218389D01*
X97147735Y-175188312D01*
X97056356Y-175139469D01*
X96976262Y-175073738D01*
X96910531Y-174993644D01*
X96861688Y-174902265D01*
X96831611Y-174803114D01*
X96821455Y-174700000D01*
X96831611Y-174596886D01*
X96861688Y-174497735D01*
X96910531Y-174406356D01*
X96976262Y-174326262D01*
X97056356Y-174260531D01*
X97147735Y-174211688D01*
X97246886Y-174181611D01*
X97324161Y-174174000D01*
X97675839Y-174174000D01*
X97753114Y-174181611D01*
G37*
G36*
X80826000Y-173026000D02*
G01*
X79724000Y-173026000D01*
X79724000Y-172124000D01*
X80826000Y-172124000D01*
X80826000Y-173026000D01*
G37*
G36*
X115202490Y-162346950D02*
G01*
X115604613Y-162513515D01*
X116139913Y-162735243D01*
X116983571Y-163298957D01*
X117701043Y-164016429D01*
X118264757Y-164860087D01*
X118264757Y-164860088D01*
X118653050Y-165797510D01*
X118851000Y-166792669D01*
X118851000Y-167807331D01*
X118653050Y-168802490D01*
X118425593Y-169351620D01*
X118264757Y-169739913D01*
X117701043Y-170583571D01*
X116983571Y-171301043D01*
X116139913Y-171864757D01*
X115751620Y-172025593D01*
X115202490Y-172253050D01*
X114207331Y-172451000D01*
X113192669Y-172451000D01*
X112197510Y-172253050D01*
X111648380Y-172025593D01*
X111260087Y-171864757D01*
X110416429Y-171301043D01*
X109698957Y-170583571D01*
X109135243Y-169739913D01*
X108974407Y-169351620D01*
X108746950Y-168802490D01*
X108549000Y-167807331D01*
X108549000Y-166792669D01*
X108746950Y-165797510D01*
X109135243Y-164860088D01*
X109135243Y-164860087D01*
X109698957Y-164016429D01*
X110416429Y-163298957D01*
X111260087Y-162735243D01*
X111795387Y-162513515D01*
X112197510Y-162346950D01*
X113192669Y-162149000D01*
X114207331Y-162149000D01*
X115202490Y-162346950D01*
G37*
G36*
X104297087Y-166402602D02*
G01*
X101467246Y-169232443D01*
X100405172Y-168170369D01*
X101255114Y-167320427D01*
X101306734Y-167268808D01*
X101306743Y-167268797D01*
X102333441Y-166242099D01*
X102333452Y-166242090D01*
X102385071Y-166190470D01*
X103235013Y-165340528D01*
X104297087Y-166402602D01*
G37*
G36*
X98569523Y-167887526D02*
G01*
X97224606Y-169232443D01*
X95738267Y-167746104D01*
X97083184Y-166401187D01*
X98569523Y-167887526D01*
G37*
G36*
X80826000Y-167026000D02*
G01*
X79724000Y-167026000D01*
X79724000Y-165724000D01*
X80826000Y-165724000D01*
X80826000Y-167026000D01*
G37*
G36*
X98752405Y-165903241D02*
G01*
X98791141Y-165910946D01*
X98821369Y-165923467D01*
X98864118Y-165941174D01*
X98929796Y-165985059D01*
X98985651Y-166040914D01*
X99029536Y-166106592D01*
X99047243Y-166149341D01*
X99059764Y-166179569D01*
X99075174Y-166257041D01*
X99075174Y-166336031D01*
X99062214Y-166401188D01*
X99059764Y-166413502D01*
X99029536Y-166486480D01*
X98985651Y-166552158D01*
X98929796Y-166608013D01*
X98864118Y-166651898D01*
X98821369Y-166669605D01*
X98791141Y-166682126D01*
X98752405Y-166689831D01*
X98713670Y-166697536D01*
X98634678Y-166697536D01*
X98595943Y-166689831D01*
X98557207Y-166682126D01*
X98526979Y-166669605D01*
X98484230Y-166651898D01*
X98418552Y-166608013D01*
X98362697Y-166552158D01*
X98318812Y-166486480D01*
X98288584Y-166413502D01*
X98286135Y-166401188D01*
X98273174Y-166336031D01*
X98273174Y-166257041D01*
X98288584Y-166179569D01*
X98301105Y-166149341D01*
X98318812Y-166106592D01*
X98362697Y-166040914D01*
X98418552Y-165985059D01*
X98484230Y-165941174D01*
X98526979Y-165923467D01*
X98557207Y-165910946D01*
X98595943Y-165903241D01*
X98634678Y-165895536D01*
X98713670Y-165895536D01*
X98752405Y-165903241D01*
G37*
G36*
X99630182Y-161735697D02*
G01*
X98728621Y-162637259D01*
X97701903Y-163663977D01*
X96800341Y-164565538D01*
X95738267Y-163503464D01*
X96676587Y-162565144D01*
X96676598Y-162565135D01*
X96728218Y-162513516D01*
X96728217Y-162513515D01*
X97578159Y-161663573D01*
X97578160Y-161663574D01*
X97629779Y-161611954D01*
X97629788Y-161611943D01*
X98568108Y-160673623D01*
X99630182Y-161735697D01*
G37*
G36*
X101521901Y-163079704D02*
G01*
X101622175Y-163121239D01*
X101622176Y-163121240D01*
X101712422Y-163181540D01*
X101789170Y-163258288D01*
X101789171Y-163258290D01*
X101849471Y-163348535D01*
X101891006Y-163448809D01*
X101912180Y-163555260D01*
X101912180Y-163663800D01*
X101891006Y-163770251D01*
X101849471Y-163870525D01*
X101849470Y-163870526D01*
X101789170Y-163960772D01*
X101712422Y-164037520D01*
X101666992Y-164067875D01*
X101622175Y-164097821D01*
X101521901Y-164139356D01*
X101415450Y-164160530D01*
X101306910Y-164160530D01*
X101200459Y-164139356D01*
X101100185Y-164097821D01*
X101055368Y-164067875D01*
X101009938Y-164037520D01*
X100933190Y-163960772D01*
X100872890Y-163870526D01*
X100872889Y-163870525D01*
X100831354Y-163770251D01*
X100810180Y-163663800D01*
X100810180Y-163555260D01*
X100831354Y-163448809D01*
X100872889Y-163348535D01*
X100933189Y-163258290D01*
X100933190Y-163258288D01*
X101009938Y-163181540D01*
X101100184Y-163121240D01*
X101100185Y-163121239D01*
X101200459Y-163079704D01*
X101306910Y-163058530D01*
X101415450Y-163058530D01*
X101521901Y-163079704D01*
G37*
G36*
X104297087Y-162159962D02*
G01*
X102952170Y-163504879D01*
X101465831Y-162018540D01*
X102810748Y-160673623D01*
X104297087Y-162159962D01*
G37*
G36*
X91976000Y-162726000D02*
G01*
X90874000Y-162726000D01*
X90874000Y-161424000D01*
X91976000Y-161424000D01*
X91976000Y-162726000D01*
G37*
G36*
X90276000Y-162726000D02*
G01*
X89474000Y-162726000D01*
X89474000Y-161424000D01*
X90276000Y-161424000D01*
X90276000Y-162726000D01*
G37*
G36*
X89176000Y-162726000D02*
G01*
X88374000Y-162726000D01*
X88374000Y-161424000D01*
X89176000Y-161424000D01*
X89176000Y-162726000D01*
G37*
G36*
X88076000Y-162726000D02*
G01*
X87274000Y-162726000D01*
X87274000Y-161424000D01*
X88076000Y-161424000D01*
X88076000Y-162726000D01*
G37*
G36*
X86976000Y-162726000D02*
G01*
X86174000Y-162726000D01*
X86174000Y-161424000D01*
X86976000Y-161424000D01*
X86976000Y-162726000D01*
G37*
G36*
X85876000Y-162726000D02*
G01*
X85074000Y-162726000D01*
X85074000Y-161424000D01*
X85876000Y-161424000D01*
X85876000Y-162726000D01*
G37*
G36*
X84776000Y-162726000D02*
G01*
X83974000Y-162726000D01*
X83974000Y-161424000D01*
X84776000Y-161424000D01*
X84776000Y-162726000D01*
G37*
G36*
X83676000Y-162726000D02*
G01*
X82874000Y-162726000D01*
X82874000Y-161424000D01*
X83676000Y-161424000D01*
X83676000Y-162726000D01*
G37*
G36*
X82576000Y-162726000D02*
G01*
X80824000Y-162726000D01*
X80824000Y-161424000D01*
X82576000Y-161424000D01*
X82576000Y-162726000D01*
G37*
G36*
X115401000Y-161201000D02*
G01*
X111999000Y-161201000D01*
X111999000Y-157599000D01*
X115401000Y-157599000D01*
X115401000Y-161201000D01*
G37*
G36*
X103606000Y-159661000D02*
G01*
X102994000Y-159661000D01*
X102994000Y-158859000D01*
X103606000Y-158859000D01*
X103606000Y-159661000D01*
G37*
G36*
X102656000Y-159661000D02*
G01*
X102044000Y-159661000D01*
X102044000Y-158859000D01*
X102656000Y-158859000D01*
X102656000Y-159661000D01*
G37*
G36*
X104556000Y-159661000D02*
G01*
X103944000Y-159661000D01*
X103944000Y-158859000D01*
X104556000Y-158859000D01*
X104556000Y-159661000D01*
G37*
G36*
X95709468Y-158153565D02*
G01*
X95748138Y-158165296D01*
X95783777Y-158184346D01*
X95815017Y-158209983D01*
X95840654Y-158241223D01*
X95859704Y-158276862D01*
X95871435Y-158315532D01*
X95876000Y-158361888D01*
X95876000Y-159438112D01*
X95871435Y-159484468D01*
X95859704Y-159523138D01*
X95840654Y-159558777D01*
X95815017Y-159590017D01*
X95783777Y-159615654D01*
X95748138Y-159634704D01*
X95709468Y-159646435D01*
X95663112Y-159651000D01*
X95011888Y-159651000D01*
X94965532Y-159646435D01*
X94926862Y-159634704D01*
X94891223Y-159615654D01*
X94859983Y-159590017D01*
X94834346Y-159558777D01*
X94815296Y-159523138D01*
X94803565Y-159484468D01*
X94799000Y-159438112D01*
X94799000Y-158361888D01*
X94803565Y-158315532D01*
X94815296Y-158276862D01*
X94834346Y-158241223D01*
X94859983Y-158209983D01*
X94891223Y-158184346D01*
X94926862Y-158165296D01*
X94965532Y-158153565D01*
X95011888Y-158149000D01*
X95663112Y-158149000D01*
X95709468Y-158153565D01*
G37*
G36*
X93834468Y-158153565D02*
G01*
X93873138Y-158165296D01*
X93908777Y-158184346D01*
X93940017Y-158209983D01*
X93965654Y-158241223D01*
X93984704Y-158276862D01*
X93996435Y-158315532D01*
X94001000Y-158361888D01*
X94001000Y-159438112D01*
X93996435Y-159484468D01*
X93984704Y-159523138D01*
X93965654Y-159558777D01*
X93940017Y-159590017D01*
X93908777Y-159615654D01*
X93873138Y-159634704D01*
X93834468Y-159646435D01*
X93788112Y-159651000D01*
X93136888Y-159651000D01*
X93090532Y-159646435D01*
X93051862Y-159634704D01*
X93016223Y-159615654D01*
X92984983Y-159590017D01*
X92959346Y-159558777D01*
X92940296Y-159523138D01*
X92928565Y-159484468D01*
X92924000Y-159438112D01*
X92924000Y-158361888D01*
X92928565Y-158315532D01*
X92940296Y-158276862D01*
X92959346Y-158241223D01*
X92984983Y-158209983D01*
X93016223Y-158184346D01*
X93051862Y-158165296D01*
X93090532Y-158153565D01*
X93136888Y-158149000D01*
X93788112Y-158149000D01*
X93834468Y-158153565D01*
G37*
G36*
X104556000Y-157341000D02*
G01*
X103944000Y-157341000D01*
X103944000Y-156539000D01*
X104556000Y-156539000D01*
X104556000Y-157341000D01*
G37*
G36*
X103606000Y-157341000D02*
G01*
X102994000Y-157341000D01*
X102994000Y-156539000D01*
X103606000Y-156539000D01*
X103606000Y-157341000D01*
G37*
G36*
X102656000Y-157341000D02*
G01*
X102044000Y-157341000D01*
X102044000Y-156539000D01*
X102656000Y-156539000D01*
X102656000Y-157341000D01*
G37*
G36*
X96226000Y-157181000D02*
G01*
X93574000Y-157181000D01*
X93574000Y-156019000D01*
X96226000Y-156019000D01*
X96226000Y-157181000D01*
G37*
G36*
X110593508Y-151984983D02*
G01*
X110731579Y-152012447D01*
X111032042Y-152136903D01*
X111302451Y-152317585D01*
X111532415Y-152547549D01*
X111693154Y-152788112D01*
X111713098Y-152817960D01*
X111739521Y-152881750D01*
X111837553Y-153118421D01*
X111840792Y-153134704D01*
X111901000Y-153437389D01*
X111901000Y-153762611D01*
X111878075Y-153877861D01*
X111837553Y-154081579D01*
X111713097Y-154382042D01*
X111532415Y-154652451D01*
X111302451Y-154882415D01*
X111032042Y-155063097D01*
X110731579Y-155187553D01*
X110625256Y-155208702D01*
X110412611Y-155251000D01*
X110087389Y-155251000D01*
X109874744Y-155208702D01*
X109768421Y-155187553D01*
X109467958Y-155063097D01*
X109197549Y-154882415D01*
X108967585Y-154652451D01*
X108786903Y-154382042D01*
X108662447Y-154081579D01*
X108621925Y-153877861D01*
X108599000Y-153762611D01*
X108599000Y-153437389D01*
X108659208Y-153134704D01*
X108662447Y-153118421D01*
X108760479Y-152881750D01*
X108786902Y-152817960D01*
X108806846Y-152788112D01*
X108967585Y-152547549D01*
X109197549Y-152317585D01*
X109467958Y-152136903D01*
X109768421Y-152012447D01*
X109906492Y-151984983D01*
X110087389Y-151949000D01*
X110412611Y-151949000D01*
X110593508Y-151984983D01*
G37*
G36*
X90093508Y-151984983D02*
G01*
X90231579Y-152012447D01*
X90532042Y-152136903D01*
X90802451Y-152317585D01*
X91032415Y-152547549D01*
X91193154Y-152788112D01*
X91213098Y-152817960D01*
X91239521Y-152881750D01*
X91337553Y-153118421D01*
X91340792Y-153134704D01*
X91401000Y-153437389D01*
X91401000Y-153762611D01*
X91378075Y-153877861D01*
X91337553Y-154081579D01*
X91213097Y-154382042D01*
X91032415Y-154652451D01*
X90802451Y-154882415D01*
X90532042Y-155063097D01*
X90231579Y-155187553D01*
X90125256Y-155208702D01*
X89912611Y-155251000D01*
X89587389Y-155251000D01*
X89374744Y-155208702D01*
X89268421Y-155187553D01*
X88967958Y-155063097D01*
X88697549Y-154882415D01*
X88467585Y-154652451D01*
X88286903Y-154382042D01*
X88162447Y-154081579D01*
X88121925Y-153877861D01*
X88099000Y-153762611D01*
X88099000Y-153437389D01*
X88159208Y-153134704D01*
X88162447Y-153118421D01*
X88260479Y-152881750D01*
X88286902Y-152817960D01*
X88306846Y-152788112D01*
X88467585Y-152547549D01*
X88697549Y-152317585D01*
X88967958Y-152136903D01*
X89268421Y-152012447D01*
X89406492Y-151984983D01*
X89587389Y-151949000D01*
X89912611Y-151949000D01*
X90093508Y-151984983D01*
G37*
G36*
X96226000Y-154981000D02*
G01*
X95474000Y-154981000D01*
X95474000Y-153819000D01*
X96226000Y-153819000D01*
X96226000Y-154981000D01*
G37*
G36*
X94326000Y-154981000D02*
G01*
X93574000Y-154981000D01*
X93574000Y-153819000D01*
X94326000Y-153819000D01*
X94326000Y-154981000D01*
G37*
G36*
X106384468Y-153841065D02*
G01*
X106423138Y-153852796D01*
X106458777Y-153871846D01*
X106490017Y-153897483D01*
X106515654Y-153928723D01*
X106534704Y-153964362D01*
X106546435Y-154003032D01*
X106551000Y-154049388D01*
X106551000Y-154700612D01*
X106546435Y-154746968D01*
X106534704Y-154785638D01*
X106515654Y-154821277D01*
X106490017Y-154852517D01*
X106458777Y-154878154D01*
X106423138Y-154897204D01*
X106384468Y-154908935D01*
X106338112Y-154913500D01*
X105261888Y-154913500D01*
X105215532Y-154908935D01*
X105176862Y-154897204D01*
X105141223Y-154878154D01*
X105109983Y-154852517D01*
X105084346Y-154821277D01*
X105065296Y-154785638D01*
X105053565Y-154746968D01*
X105049000Y-154700612D01*
X105049000Y-154049388D01*
X105053565Y-154003032D01*
X105065296Y-153964362D01*
X105084346Y-153928723D01*
X105109983Y-153897483D01*
X105141223Y-153871846D01*
X105176862Y-153852796D01*
X105215532Y-153841065D01*
X105261888Y-153836500D01*
X106338112Y-153836500D01*
X106384468Y-153841065D01*
G37*
G36*
X104284468Y-153803565D02*
G01*
X104323138Y-153815296D01*
X104358777Y-153834346D01*
X104390017Y-153859983D01*
X104415654Y-153891223D01*
X104434704Y-153926862D01*
X104446435Y-153965532D01*
X104451000Y-154011888D01*
X104451000Y-154663112D01*
X104446435Y-154709468D01*
X104434704Y-154748138D01*
X104415654Y-154783777D01*
X104390017Y-154815017D01*
X104358777Y-154840654D01*
X104323138Y-154859704D01*
X104284468Y-154871435D01*
X104238112Y-154876000D01*
X103161888Y-154876000D01*
X103115532Y-154871435D01*
X103076862Y-154859704D01*
X103041223Y-154840654D01*
X103009983Y-154815017D01*
X102984346Y-154783777D01*
X102965296Y-154748138D01*
X102953565Y-154709468D01*
X102949000Y-154663112D01*
X102949000Y-154011888D01*
X102953565Y-153965532D01*
X102965296Y-153926862D01*
X102984346Y-153891223D01*
X103009983Y-153859983D01*
X103041223Y-153834346D01*
X103076862Y-153815296D01*
X103115532Y-153803565D01*
X103161888Y-153799000D01*
X104238112Y-153799000D01*
X104284468Y-153803565D01*
G37*
G36*
X118813512Y-152623927D02*
G01*
X118962812Y-152653624D01*
X119126784Y-152721544D01*
X119274354Y-152820147D01*
X119399853Y-152945646D01*
X119498456Y-153093216D01*
X119566376Y-153257188D01*
X119601000Y-153431259D01*
X119601000Y-153608741D01*
X119566376Y-153782812D01*
X119498456Y-153946784D01*
X119399853Y-154094354D01*
X119274354Y-154219853D01*
X119126784Y-154318456D01*
X118962812Y-154386376D01*
X118813512Y-154416073D01*
X118788742Y-154421000D01*
X118611258Y-154421000D01*
X118586488Y-154416073D01*
X118437188Y-154386376D01*
X118273216Y-154318456D01*
X118125646Y-154219853D01*
X118000147Y-154094354D01*
X117901544Y-153946784D01*
X117833624Y-153782812D01*
X117799000Y-153608741D01*
X117799000Y-153431259D01*
X117833624Y-153257188D01*
X117901544Y-153093216D01*
X118000147Y-152945646D01*
X118125646Y-152820147D01*
X118273216Y-152721544D01*
X118437188Y-152653624D01*
X118586488Y-152623927D01*
X118611258Y-152619000D01*
X118788742Y-152619000D01*
X118813512Y-152623927D01*
G37*
G36*
X96209468Y-151653565D02*
G01*
X96248138Y-151665296D01*
X96283777Y-151684346D01*
X96315017Y-151709983D01*
X96340654Y-151741223D01*
X96359704Y-151776862D01*
X96371435Y-151815532D01*
X96376000Y-151861888D01*
X96376000Y-152938112D01*
X96371435Y-152984468D01*
X96359704Y-153023138D01*
X96340654Y-153058777D01*
X96315017Y-153090017D01*
X96283777Y-153115654D01*
X96248138Y-153134704D01*
X96209468Y-153146435D01*
X96163112Y-153151000D01*
X95511888Y-153151000D01*
X95465532Y-153146435D01*
X95426862Y-153134704D01*
X95391223Y-153115654D01*
X95359983Y-153090017D01*
X95334346Y-153058777D01*
X95315296Y-153023138D01*
X95303565Y-152984468D01*
X95299000Y-152938112D01*
X95299000Y-151861888D01*
X95303565Y-151815532D01*
X95315296Y-151776862D01*
X95334346Y-151741223D01*
X95359983Y-151709983D01*
X95391223Y-151684346D01*
X95426862Y-151665296D01*
X95465532Y-151653565D01*
X95511888Y-151649000D01*
X96163112Y-151649000D01*
X96209468Y-151653565D01*
G37*
G36*
X94334468Y-151653565D02*
G01*
X94373138Y-151665296D01*
X94408777Y-151684346D01*
X94440017Y-151709983D01*
X94465654Y-151741223D01*
X94484704Y-151776862D01*
X94496435Y-151815532D01*
X94501000Y-151861888D01*
X94501000Y-152938112D01*
X94496435Y-152984468D01*
X94484704Y-153023138D01*
X94465654Y-153058777D01*
X94440017Y-153090017D01*
X94408777Y-153115654D01*
X94373138Y-153134704D01*
X94334468Y-153146435D01*
X94288112Y-153151000D01*
X93636888Y-153151000D01*
X93590532Y-153146435D01*
X93551862Y-153134704D01*
X93516223Y-153115654D01*
X93484983Y-153090017D01*
X93459346Y-153058777D01*
X93440296Y-153023138D01*
X93428565Y-152984468D01*
X93424000Y-152938112D01*
X93424000Y-151861888D01*
X93428565Y-151815532D01*
X93440296Y-151776862D01*
X93459346Y-151741223D01*
X93484983Y-151709983D01*
X93516223Y-151684346D01*
X93551862Y-151665296D01*
X93590532Y-151653565D01*
X93636888Y-151649000D01*
X94288112Y-151649000D01*
X94334468Y-151653565D01*
G37*
G36*
X106384468Y-151966065D02*
G01*
X106423138Y-151977796D01*
X106458777Y-151996846D01*
X106490017Y-152022483D01*
X106515654Y-152053723D01*
X106534704Y-152089362D01*
X106546435Y-152128032D01*
X106551000Y-152174388D01*
X106551000Y-152825612D01*
X106546435Y-152871968D01*
X106534704Y-152910638D01*
X106515654Y-152946277D01*
X106490017Y-152977517D01*
X106458777Y-153003154D01*
X106423138Y-153022204D01*
X106384468Y-153033935D01*
X106338112Y-153038500D01*
X105261888Y-153038500D01*
X105215532Y-153033935D01*
X105176862Y-153022204D01*
X105141223Y-153003154D01*
X105109983Y-152977517D01*
X105084346Y-152946277D01*
X105065296Y-152910638D01*
X105053565Y-152871968D01*
X105049000Y-152825612D01*
X105049000Y-152174388D01*
X105053565Y-152128032D01*
X105065296Y-152089362D01*
X105084346Y-152053723D01*
X105109983Y-152022483D01*
X105141223Y-151996846D01*
X105176862Y-151977796D01*
X105215532Y-151966065D01*
X105261888Y-151961500D01*
X106338112Y-151961500D01*
X106384468Y-151966065D01*
G37*
G36*
X104284468Y-151928565D02*
G01*
X104323138Y-151940296D01*
X104358777Y-151959346D01*
X104390017Y-151984983D01*
X104415654Y-152016223D01*
X104434704Y-152051862D01*
X104446435Y-152090532D01*
X104451000Y-152136888D01*
X104451000Y-152788112D01*
X104446435Y-152834468D01*
X104434704Y-152873138D01*
X104415654Y-152908777D01*
X104390017Y-152940017D01*
X104358777Y-152965654D01*
X104323138Y-152984704D01*
X104284468Y-152996435D01*
X104238112Y-153001000D01*
X103161888Y-153001000D01*
X103115532Y-152996435D01*
X103076862Y-152984704D01*
X103041223Y-152965654D01*
X103009983Y-152940017D01*
X102984346Y-152908777D01*
X102965296Y-152873138D01*
X102953565Y-152834468D01*
X102949000Y-152788112D01*
X102949000Y-152136888D01*
X102953565Y-152090532D01*
X102965296Y-152051862D01*
X102984346Y-152016223D01*
X103009983Y-151984983D01*
X103041223Y-151959346D01*
X103076862Y-151940296D01*
X103115532Y-151928565D01*
X103161888Y-151924000D01*
X104238112Y-151924000D01*
X104284468Y-151928565D01*
G37*
G36*
X118813512Y-150083927D02*
G01*
X118962812Y-150113624D01*
X119126784Y-150181544D01*
X119274354Y-150280147D01*
X119399853Y-150405646D01*
X119498456Y-150553216D01*
X119566376Y-150717188D01*
X119601000Y-150891259D01*
X119601000Y-151068741D01*
X119566376Y-151242812D01*
X119498456Y-151406784D01*
X119399853Y-151554354D01*
X119274354Y-151679853D01*
X119126784Y-151778456D01*
X118962812Y-151846376D01*
X118813512Y-151876073D01*
X118788742Y-151881000D01*
X118611258Y-151881000D01*
X118586488Y-151876073D01*
X118437188Y-151846376D01*
X118273216Y-151778456D01*
X118125646Y-151679853D01*
X118000147Y-151554354D01*
X117901544Y-151406784D01*
X117833624Y-151242812D01*
X117799000Y-151068741D01*
X117799000Y-150891259D01*
X117833624Y-150717188D01*
X117901544Y-150553216D01*
X118000147Y-150405646D01*
X118125646Y-150280147D01*
X118273216Y-150181544D01*
X118437188Y-150113624D01*
X118586488Y-150083927D01*
X118611258Y-150079000D01*
X118788742Y-150079000D01*
X118813512Y-150083927D01*
G37*
G36*
X107384468Y-150203565D02*
G01*
X107423138Y-150215296D01*
X107458777Y-150234346D01*
X107490017Y-150259983D01*
X107515654Y-150291223D01*
X107534704Y-150326862D01*
X107546435Y-150365532D01*
X107551000Y-150411888D01*
X107551000Y-151063112D01*
X107546435Y-151109468D01*
X107534704Y-151148138D01*
X107515654Y-151183777D01*
X107490017Y-151215017D01*
X107458777Y-151240654D01*
X107423138Y-151259704D01*
X107384468Y-151271435D01*
X107338112Y-151276000D01*
X106261888Y-151276000D01*
X106215532Y-151271435D01*
X106176862Y-151259704D01*
X106141223Y-151240654D01*
X106109983Y-151215017D01*
X106084346Y-151183777D01*
X106065296Y-151148138D01*
X106053565Y-151109468D01*
X106049000Y-151063112D01*
X106049000Y-150411888D01*
X106053565Y-150365532D01*
X106065296Y-150326862D01*
X106084346Y-150291223D01*
X106109983Y-150259983D01*
X106141223Y-150234346D01*
X106176862Y-150215296D01*
X106215532Y-150203565D01*
X106261888Y-150199000D01*
X107338112Y-150199000D01*
X107384468Y-150203565D01*
G37*
G36*
X97420295Y-149575323D02*
G01*
X97427309Y-149577451D01*
X97441077Y-149584810D01*
X97463716Y-149594187D01*
X97487749Y-149598967D01*
X97512253Y-149598967D01*
X97536286Y-149594186D01*
X97558923Y-149584810D01*
X97572691Y-149577451D01*
X97579705Y-149575323D01*
X97593140Y-149574000D01*
X97906860Y-149574000D01*
X97920295Y-149575323D01*
X97927309Y-149577451D01*
X97941077Y-149584810D01*
X97963716Y-149594187D01*
X97987749Y-149598967D01*
X98012253Y-149598967D01*
X98036286Y-149594186D01*
X98058923Y-149584810D01*
X98072691Y-149577451D01*
X98079705Y-149575323D01*
X98093140Y-149574000D01*
X98406860Y-149574000D01*
X98420295Y-149575323D01*
X98427309Y-149577451D01*
X98441077Y-149584810D01*
X98463716Y-149594187D01*
X98487749Y-149598967D01*
X98512253Y-149598967D01*
X98536286Y-149594186D01*
X98558923Y-149584810D01*
X98572691Y-149577451D01*
X98579705Y-149575323D01*
X98593140Y-149574000D01*
X98906860Y-149574000D01*
X98920295Y-149575323D01*
X98927309Y-149577451D01*
X98941077Y-149584810D01*
X98963716Y-149594187D01*
X98987749Y-149598967D01*
X99012253Y-149598967D01*
X99036286Y-149594186D01*
X99058923Y-149584810D01*
X99072691Y-149577451D01*
X99079705Y-149575323D01*
X99093140Y-149574000D01*
X99406860Y-149574000D01*
X99420295Y-149575323D01*
X99427309Y-149577451D01*
X99441077Y-149584810D01*
X99463716Y-149594187D01*
X99487749Y-149598967D01*
X99512253Y-149598967D01*
X99536286Y-149594186D01*
X99558923Y-149584810D01*
X99572691Y-149577451D01*
X99579705Y-149575323D01*
X99593140Y-149574000D01*
X99906860Y-149574000D01*
X99920295Y-149575323D01*
X99927309Y-149577451D01*
X99941077Y-149584810D01*
X99963716Y-149594187D01*
X99987749Y-149598967D01*
X100012253Y-149598967D01*
X100036286Y-149594186D01*
X100058923Y-149584810D01*
X100072691Y-149577451D01*
X100079705Y-149575323D01*
X100093140Y-149574000D01*
X100406860Y-149574000D01*
X100420295Y-149575323D01*
X100427309Y-149577451D01*
X100441077Y-149584810D01*
X100463716Y-149594187D01*
X100487749Y-149598967D01*
X100512253Y-149598967D01*
X100536286Y-149594186D01*
X100558923Y-149584810D01*
X100572691Y-149577451D01*
X100579705Y-149575323D01*
X100593140Y-149574000D01*
X100906860Y-149574000D01*
X100920295Y-149575323D01*
X100927309Y-149577451D01*
X100941077Y-149584810D01*
X100963716Y-149594187D01*
X100987749Y-149598967D01*
X101012253Y-149598967D01*
X101036286Y-149594186D01*
X101058923Y-149584810D01*
X101072691Y-149577451D01*
X101079705Y-149575323D01*
X101093140Y-149574000D01*
X101406860Y-149574000D01*
X101420295Y-149575323D01*
X101427309Y-149577451D01*
X101441077Y-149584810D01*
X101463716Y-149594187D01*
X101487749Y-149598967D01*
X101512253Y-149598967D01*
X101536286Y-149594186D01*
X101558923Y-149584810D01*
X101572691Y-149577451D01*
X101579705Y-149575323D01*
X101593140Y-149574000D01*
X101906860Y-149574000D01*
X101920295Y-149575323D01*
X101927309Y-149577451D01*
X101941077Y-149584810D01*
X101963716Y-149594187D01*
X101987749Y-149598967D01*
X102012253Y-149598967D01*
X102036286Y-149594186D01*
X102058923Y-149584810D01*
X102072691Y-149577451D01*
X102079705Y-149575323D01*
X102093140Y-149574000D01*
X102406860Y-149574000D01*
X102420295Y-149575323D01*
X102427309Y-149577451D01*
X102441077Y-149584810D01*
X102463716Y-149594187D01*
X102487749Y-149598967D01*
X102512253Y-149598967D01*
X102536286Y-149594186D01*
X102558923Y-149584810D01*
X102572691Y-149577451D01*
X102579705Y-149575323D01*
X102593140Y-149574000D01*
X102906860Y-149574000D01*
X102920295Y-149575323D01*
X102927310Y-149577451D01*
X102933776Y-149580908D01*
X102939442Y-149585558D01*
X102944092Y-149591224D01*
X102947549Y-149597690D01*
X102949677Y-149604705D01*
X102951000Y-149618140D01*
X102951000Y-151106860D01*
X102949677Y-151120295D01*
X102947549Y-151127310D01*
X102944092Y-151133776D01*
X102939442Y-151139442D01*
X102933776Y-151144092D01*
X102927310Y-151147549D01*
X102920295Y-151149677D01*
X102906860Y-151151000D01*
X102593140Y-151151000D01*
X102579705Y-151149677D01*
X102572691Y-151147549D01*
X102558923Y-151140190D01*
X102536284Y-151130813D01*
X102512251Y-151126033D01*
X102487747Y-151126033D01*
X102463714Y-151130814D01*
X102441077Y-151140190D01*
X102427309Y-151147549D01*
X102420295Y-151149677D01*
X102406860Y-151151000D01*
X102093140Y-151151000D01*
X102079705Y-151149677D01*
X102072691Y-151147549D01*
X102058923Y-151140190D01*
X102036284Y-151130813D01*
X102012251Y-151126033D01*
X101987747Y-151126033D01*
X101963714Y-151130814D01*
X101941077Y-151140190D01*
X101927309Y-151147549D01*
X101920295Y-151149677D01*
X101906860Y-151151000D01*
X101593140Y-151151000D01*
X101579705Y-151149677D01*
X101572691Y-151147549D01*
X101558923Y-151140190D01*
X101536284Y-151130813D01*
X101512251Y-151126033D01*
X101487747Y-151126033D01*
X101463714Y-151130814D01*
X101441077Y-151140190D01*
X101427309Y-151147549D01*
X101420295Y-151149677D01*
X101406860Y-151151000D01*
X101093140Y-151151000D01*
X101079705Y-151149677D01*
X101072691Y-151147549D01*
X101058923Y-151140190D01*
X101036284Y-151130813D01*
X101012251Y-151126033D01*
X100987747Y-151126033D01*
X100963714Y-151130814D01*
X100941077Y-151140190D01*
X100927309Y-151147549D01*
X100920295Y-151149677D01*
X100906860Y-151151000D01*
X100593140Y-151151000D01*
X100579705Y-151149677D01*
X100572691Y-151147549D01*
X100558923Y-151140190D01*
X100536284Y-151130813D01*
X100512251Y-151126033D01*
X100487747Y-151126033D01*
X100463714Y-151130814D01*
X100441077Y-151140190D01*
X100427309Y-151147549D01*
X100420295Y-151149677D01*
X100406860Y-151151000D01*
X100093140Y-151151000D01*
X100079705Y-151149677D01*
X100072691Y-151147549D01*
X100058923Y-151140190D01*
X100036284Y-151130813D01*
X100012251Y-151126033D01*
X99987747Y-151126033D01*
X99963714Y-151130814D01*
X99941077Y-151140190D01*
X99927309Y-151147549D01*
X99920295Y-151149677D01*
X99906860Y-151151000D01*
X99593140Y-151151000D01*
X99579705Y-151149677D01*
X99572691Y-151147549D01*
X99558923Y-151140190D01*
X99536284Y-151130813D01*
X99512251Y-151126033D01*
X99487747Y-151126033D01*
X99463714Y-151130814D01*
X99441077Y-151140190D01*
X99427309Y-151147549D01*
X99420295Y-151149677D01*
X99406860Y-151151000D01*
X99093140Y-151151000D01*
X99079705Y-151149677D01*
X99072691Y-151147549D01*
X99058923Y-151140190D01*
X99036284Y-151130813D01*
X99012251Y-151126033D01*
X98987747Y-151126033D01*
X98963714Y-151130814D01*
X98941077Y-151140190D01*
X98927309Y-151147549D01*
X98920295Y-151149677D01*
X98906860Y-151151000D01*
X98593140Y-151151000D01*
X98579705Y-151149677D01*
X98572691Y-151147549D01*
X98558923Y-151140190D01*
X98536284Y-151130813D01*
X98512251Y-151126033D01*
X98487747Y-151126033D01*
X98463714Y-151130814D01*
X98441077Y-151140190D01*
X98427309Y-151147549D01*
X98420295Y-151149677D01*
X98406860Y-151151000D01*
X98093140Y-151151000D01*
X98079705Y-151149677D01*
X98072691Y-151147549D01*
X98058923Y-151140190D01*
X98036284Y-151130813D01*
X98012251Y-151126033D01*
X97987747Y-151126033D01*
X97963714Y-151130814D01*
X97941077Y-151140190D01*
X97927309Y-151147549D01*
X97920295Y-151149677D01*
X97906860Y-151151000D01*
X97593140Y-151151000D01*
X97579705Y-151149677D01*
X97572691Y-151147549D01*
X97558923Y-151140190D01*
X97536284Y-151130813D01*
X97512251Y-151126033D01*
X97487747Y-151126033D01*
X97463714Y-151130814D01*
X97441077Y-151140190D01*
X97427309Y-151147549D01*
X97420295Y-151149677D01*
X97406860Y-151151000D01*
X97093140Y-151151000D01*
X97079705Y-151149677D01*
X97072690Y-151147549D01*
X97066224Y-151144092D01*
X97060558Y-151139442D01*
X97055908Y-151133776D01*
X97052451Y-151127310D01*
X97050323Y-151120295D01*
X97049000Y-151106860D01*
X97049000Y-149618140D01*
X97050323Y-149604705D01*
X97052451Y-149597690D01*
X97055908Y-149591224D01*
X97060558Y-149585558D01*
X97066224Y-149580908D01*
X97072690Y-149577451D01*
X97079705Y-149575323D01*
X97093140Y-149574000D01*
X97406860Y-149574000D01*
X97420295Y-149575323D01*
G37*
G36*
X93684468Y-149803565D02*
G01*
X93723138Y-149815296D01*
X93758777Y-149834346D01*
X93790017Y-149859983D01*
X93815654Y-149891223D01*
X93834704Y-149926862D01*
X93846435Y-149965532D01*
X93851000Y-150011888D01*
X93851000Y-150663112D01*
X93846435Y-150709468D01*
X93834704Y-150748138D01*
X93815654Y-150783777D01*
X93790017Y-150815017D01*
X93758777Y-150840654D01*
X93723138Y-150859704D01*
X93684468Y-150871435D01*
X93638112Y-150876000D01*
X92561888Y-150876000D01*
X92515532Y-150871435D01*
X92476862Y-150859704D01*
X92441223Y-150840654D01*
X92409983Y-150815017D01*
X92384346Y-150783777D01*
X92365296Y-150748138D01*
X92353565Y-150709468D01*
X92349000Y-150663112D01*
X92349000Y-150011888D01*
X92353565Y-149965532D01*
X92365296Y-149926862D01*
X92384346Y-149891223D01*
X92409983Y-149859983D01*
X92441223Y-149834346D01*
X92476862Y-149815296D01*
X92515532Y-149803565D01*
X92561888Y-149799000D01*
X93638112Y-149799000D01*
X93684468Y-149803565D01*
G37*
G36*
X113734468Y-149153565D02*
G01*
X113773138Y-149165296D01*
X113808777Y-149184346D01*
X113840017Y-149209983D01*
X113865654Y-149241223D01*
X113884704Y-149276862D01*
X113896435Y-149315532D01*
X113901000Y-149361888D01*
X113901000Y-150438112D01*
X113896435Y-150484468D01*
X113884704Y-150523138D01*
X113865654Y-150558777D01*
X113840017Y-150590017D01*
X113808777Y-150615654D01*
X113773138Y-150634704D01*
X113734468Y-150646435D01*
X113688112Y-150651000D01*
X113036888Y-150651000D01*
X112990532Y-150646435D01*
X112951862Y-150634704D01*
X112916223Y-150615654D01*
X112884983Y-150590017D01*
X112859346Y-150558777D01*
X112840296Y-150523138D01*
X112828565Y-150484468D01*
X112824000Y-150438112D01*
X112824000Y-149361888D01*
X112828565Y-149315532D01*
X112840296Y-149276862D01*
X112859346Y-149241223D01*
X112884983Y-149209983D01*
X112916223Y-149184346D01*
X112951862Y-149165296D01*
X112990532Y-149153565D01*
X113036888Y-149149000D01*
X113688112Y-149149000D01*
X113734468Y-149153565D01*
G37*
G36*
X115609468Y-149153565D02*
G01*
X115648138Y-149165296D01*
X115683777Y-149184346D01*
X115715017Y-149209983D01*
X115740654Y-149241223D01*
X115759704Y-149276862D01*
X115771435Y-149315532D01*
X115776000Y-149361888D01*
X115776000Y-150438112D01*
X115771435Y-150484468D01*
X115759704Y-150523138D01*
X115740654Y-150558777D01*
X115715017Y-150590017D01*
X115683777Y-150615654D01*
X115648138Y-150634704D01*
X115609468Y-150646435D01*
X115563112Y-150651000D01*
X114911888Y-150651000D01*
X114865532Y-150646435D01*
X114826862Y-150634704D01*
X114791223Y-150615654D01*
X114759983Y-150590017D01*
X114734346Y-150558777D01*
X114715296Y-150523138D01*
X114703565Y-150484468D01*
X114699000Y-150438112D01*
X114699000Y-149361888D01*
X114703565Y-149315532D01*
X114715296Y-149276862D01*
X114734346Y-149241223D01*
X114759983Y-149209983D01*
X114791223Y-149184346D01*
X114826862Y-149165296D01*
X114865532Y-149153565D01*
X114911888Y-149149000D01*
X115563112Y-149149000D01*
X115609468Y-149153565D01*
G37*
G36*
X107384468Y-148328565D02*
G01*
X107423138Y-148340296D01*
X107458777Y-148359346D01*
X107490017Y-148384983D01*
X107515654Y-148416223D01*
X107534704Y-148451862D01*
X107546435Y-148490532D01*
X107551000Y-148536888D01*
X107551000Y-149188112D01*
X107546435Y-149234468D01*
X107534704Y-149273138D01*
X107515654Y-149308777D01*
X107490017Y-149340017D01*
X107458777Y-149365654D01*
X107423138Y-149384704D01*
X107384468Y-149396435D01*
X107338112Y-149401000D01*
X106261888Y-149401000D01*
X106215532Y-149396435D01*
X106176862Y-149384704D01*
X106141223Y-149365654D01*
X106109983Y-149340017D01*
X106084346Y-149308777D01*
X106065296Y-149273138D01*
X106053565Y-149234468D01*
X106049000Y-149188112D01*
X106049000Y-148536888D01*
X106053565Y-148490532D01*
X106065296Y-148451862D01*
X106084346Y-148416223D01*
X106109983Y-148384983D01*
X106141223Y-148359346D01*
X106176862Y-148340296D01*
X106215532Y-148328565D01*
X106261888Y-148324000D01*
X107338112Y-148324000D01*
X107384468Y-148328565D01*
G37*
G36*
X118813512Y-147543927D02*
G01*
X118962812Y-147573624D01*
X119126784Y-147641544D01*
X119274354Y-147740147D01*
X119399853Y-147865646D01*
X119498456Y-148013216D01*
X119566376Y-148177188D01*
X119601000Y-148351259D01*
X119601000Y-148528741D01*
X119566376Y-148702812D01*
X119498456Y-148866784D01*
X119399853Y-149014354D01*
X119274354Y-149139853D01*
X119126784Y-149238456D01*
X118962812Y-149306376D01*
X118813512Y-149336073D01*
X118788742Y-149341000D01*
X118611258Y-149341000D01*
X118586488Y-149336073D01*
X118437188Y-149306376D01*
X118273216Y-149238456D01*
X118125646Y-149139853D01*
X118000147Y-149014354D01*
X117901544Y-148866784D01*
X117833624Y-148702812D01*
X117799000Y-148528741D01*
X117799000Y-148351259D01*
X117833624Y-148177188D01*
X117901544Y-148013216D01*
X118000147Y-147865646D01*
X118125646Y-147740147D01*
X118273216Y-147641544D01*
X118437188Y-147573624D01*
X118586488Y-147543927D01*
X118611258Y-147539000D01*
X118788742Y-147539000D01*
X118813512Y-147543927D01*
G37*
G36*
X96595295Y-143250323D02*
G01*
X96602310Y-143252451D01*
X96608776Y-143255908D01*
X96614442Y-143260558D01*
X96619092Y-143266224D01*
X96622549Y-143272690D01*
X96624677Y-143279705D01*
X96626000Y-143293140D01*
X96626000Y-143606860D01*
X96624677Y-143620295D01*
X96622549Y-143627309D01*
X96615190Y-143641077D01*
X96605813Y-143663716D01*
X96601033Y-143687749D01*
X96601033Y-143712253D01*
X96605814Y-143736286D01*
X96615190Y-143758923D01*
X96622549Y-143772691D01*
X96624677Y-143779705D01*
X96626000Y-143793140D01*
X96626000Y-144106860D01*
X96624677Y-144120295D01*
X96622549Y-144127309D01*
X96615190Y-144141077D01*
X96605813Y-144163716D01*
X96601033Y-144187749D01*
X96601033Y-144212253D01*
X96605814Y-144236286D01*
X96615190Y-144258923D01*
X96622549Y-144272691D01*
X96624677Y-144279705D01*
X96626000Y-144293140D01*
X96626000Y-144606860D01*
X96624677Y-144620295D01*
X96622549Y-144627309D01*
X96615190Y-144641077D01*
X96605813Y-144663716D01*
X96601033Y-144687749D01*
X96601033Y-144712253D01*
X96605814Y-144736286D01*
X96615190Y-144758923D01*
X96622549Y-144772691D01*
X96624677Y-144779705D01*
X96626000Y-144793140D01*
X96626000Y-145106860D01*
X96624677Y-145120295D01*
X96622549Y-145127309D01*
X96615190Y-145141077D01*
X96605813Y-145163716D01*
X96601033Y-145187749D01*
X96601033Y-145212253D01*
X96605814Y-145236286D01*
X96615190Y-145258923D01*
X96622549Y-145272691D01*
X96624677Y-145279705D01*
X96626000Y-145293140D01*
X96626000Y-145606860D01*
X96624677Y-145620295D01*
X96622549Y-145627309D01*
X96615190Y-145641077D01*
X96605813Y-145663716D01*
X96601033Y-145687749D01*
X96601033Y-145712253D01*
X96605814Y-145736286D01*
X96615190Y-145758923D01*
X96622549Y-145772691D01*
X96624677Y-145779705D01*
X96626000Y-145793140D01*
X96626000Y-146106860D01*
X96624677Y-146120295D01*
X96622549Y-146127309D01*
X96615190Y-146141077D01*
X96605813Y-146163716D01*
X96601033Y-146187749D01*
X96601033Y-146212253D01*
X96605814Y-146236286D01*
X96615190Y-146258923D01*
X96622549Y-146272691D01*
X96624677Y-146279705D01*
X96626000Y-146293140D01*
X96626000Y-146606860D01*
X96624677Y-146620295D01*
X96622549Y-146627309D01*
X96615190Y-146641077D01*
X96605813Y-146663716D01*
X96601033Y-146687749D01*
X96601033Y-146712253D01*
X96605814Y-146736286D01*
X96615190Y-146758923D01*
X96622549Y-146772691D01*
X96624677Y-146779705D01*
X96626000Y-146793140D01*
X96626000Y-147106860D01*
X96624677Y-147120295D01*
X96622549Y-147127309D01*
X96615190Y-147141077D01*
X96605813Y-147163716D01*
X96601033Y-147187749D01*
X96601033Y-147212253D01*
X96605814Y-147236286D01*
X96615190Y-147258923D01*
X96622549Y-147272691D01*
X96624677Y-147279705D01*
X96626000Y-147293140D01*
X96626000Y-147606860D01*
X96624677Y-147620295D01*
X96622549Y-147627309D01*
X96615190Y-147641077D01*
X96605813Y-147663716D01*
X96601033Y-147687749D01*
X96601033Y-147712253D01*
X96605814Y-147736286D01*
X96615190Y-147758923D01*
X96622549Y-147772691D01*
X96624677Y-147779705D01*
X96626000Y-147793140D01*
X96626000Y-148106860D01*
X96624677Y-148120295D01*
X96622549Y-148127309D01*
X96615190Y-148141077D01*
X96605813Y-148163716D01*
X96601033Y-148187749D01*
X96601033Y-148212253D01*
X96605814Y-148236286D01*
X96615190Y-148258923D01*
X96622549Y-148272691D01*
X96624677Y-148279705D01*
X96626000Y-148293140D01*
X96626000Y-148606860D01*
X96624677Y-148620295D01*
X96622549Y-148627309D01*
X96615190Y-148641077D01*
X96605813Y-148663716D01*
X96601033Y-148687749D01*
X96601033Y-148712253D01*
X96605814Y-148736286D01*
X96615190Y-148758923D01*
X96622549Y-148772691D01*
X96624677Y-148779705D01*
X96626000Y-148793140D01*
X96626000Y-149106860D01*
X96624677Y-149120295D01*
X96622549Y-149127310D01*
X96619092Y-149133776D01*
X96614442Y-149139442D01*
X96608776Y-149144092D01*
X96602310Y-149147549D01*
X96595295Y-149149677D01*
X96581860Y-149151000D01*
X95093140Y-149151000D01*
X95079705Y-149149677D01*
X95072690Y-149147549D01*
X95066224Y-149144092D01*
X95060558Y-149139442D01*
X95055908Y-149133776D01*
X95052451Y-149127310D01*
X95050323Y-149120295D01*
X95049000Y-149106860D01*
X95049000Y-148793140D01*
X95050323Y-148779705D01*
X95052451Y-148772691D01*
X95059810Y-148758923D01*
X95069187Y-148736284D01*
X95073967Y-148712251D01*
X95073967Y-148687747D01*
X95069186Y-148663714D01*
X95059810Y-148641077D01*
X95052451Y-148627309D01*
X95050323Y-148620295D01*
X95049000Y-148606860D01*
X95049000Y-148293140D01*
X95050323Y-148279705D01*
X95052451Y-148272691D01*
X95059810Y-148258923D01*
X95069187Y-148236284D01*
X95073967Y-148212251D01*
X95073967Y-148187747D01*
X95069186Y-148163714D01*
X95059810Y-148141077D01*
X95052451Y-148127309D01*
X95050323Y-148120295D01*
X95049000Y-148106860D01*
X95049000Y-147793140D01*
X95050323Y-147779705D01*
X95052451Y-147772691D01*
X95059810Y-147758923D01*
X95069187Y-147736284D01*
X95073967Y-147712251D01*
X95073967Y-147687747D01*
X95069186Y-147663714D01*
X95059810Y-147641077D01*
X95052451Y-147627309D01*
X95050323Y-147620295D01*
X95049000Y-147606860D01*
X95049000Y-147293140D01*
X95050323Y-147279705D01*
X95052451Y-147272691D01*
X95059810Y-147258923D01*
X95069187Y-147236284D01*
X95073967Y-147212251D01*
X95073967Y-147187747D01*
X95069186Y-147163714D01*
X95059810Y-147141077D01*
X95052451Y-147127309D01*
X95050323Y-147120295D01*
X95049000Y-147106860D01*
X95049000Y-146793140D01*
X95050323Y-146779705D01*
X95052451Y-146772691D01*
X95059810Y-146758923D01*
X95069187Y-146736284D01*
X95073967Y-146712251D01*
X95073967Y-146687747D01*
X95069186Y-146663714D01*
X95059810Y-146641077D01*
X95052451Y-146627309D01*
X95050323Y-146620295D01*
X95049000Y-146606860D01*
X95049000Y-146293140D01*
X95050323Y-146279705D01*
X95052451Y-146272691D01*
X95059810Y-146258923D01*
X95069187Y-146236284D01*
X95073967Y-146212251D01*
X95073967Y-146187747D01*
X95069186Y-146163714D01*
X95059810Y-146141077D01*
X95052451Y-146127309D01*
X95050323Y-146120295D01*
X95049000Y-146106860D01*
X95049000Y-145793140D01*
X95050323Y-145779705D01*
X95052451Y-145772691D01*
X95059810Y-145758923D01*
X95069187Y-145736284D01*
X95073967Y-145712251D01*
X95073967Y-145687747D01*
X95069186Y-145663714D01*
X95059810Y-145641077D01*
X95052451Y-145627309D01*
X95050323Y-145620295D01*
X95049000Y-145606860D01*
X95049000Y-145293140D01*
X95050323Y-145279705D01*
X95052451Y-145272691D01*
X95059810Y-145258923D01*
X95069187Y-145236284D01*
X95073967Y-145212251D01*
X95073967Y-145187747D01*
X95069186Y-145163714D01*
X95059810Y-145141077D01*
X95052451Y-145127309D01*
X95050323Y-145120295D01*
X95049000Y-145106860D01*
X95049000Y-144793140D01*
X95050323Y-144779705D01*
X95052451Y-144772691D01*
X95059810Y-144758923D01*
X95069187Y-144736284D01*
X95073967Y-144712251D01*
X95073967Y-144687747D01*
X95069186Y-144663714D01*
X95059810Y-144641077D01*
X95052451Y-144627309D01*
X95050323Y-144620295D01*
X95049000Y-144606860D01*
X95049000Y-144293140D01*
X95050323Y-144279705D01*
X95052451Y-144272691D01*
X95059810Y-144258923D01*
X95069187Y-144236284D01*
X95073967Y-144212251D01*
X95073967Y-144187747D01*
X95069186Y-144163714D01*
X95059810Y-144141077D01*
X95052451Y-144127309D01*
X95050323Y-144120295D01*
X95049000Y-144106860D01*
X95049000Y-143793140D01*
X95050323Y-143779705D01*
X95052451Y-143772691D01*
X95059810Y-143758923D01*
X95069187Y-143736284D01*
X95073967Y-143712251D01*
X95073967Y-143687747D01*
X95069186Y-143663714D01*
X95059810Y-143641077D01*
X95052451Y-143627309D01*
X95050323Y-143620295D01*
X95049000Y-143606860D01*
X95049000Y-143293140D01*
X95050323Y-143279705D01*
X95052451Y-143272690D01*
X95055908Y-143266224D01*
X95060558Y-143260558D01*
X95066224Y-143255908D01*
X95072690Y-143252451D01*
X95079705Y-143250323D01*
X95093140Y-143249000D01*
X96581860Y-143249000D01*
X96595295Y-143250323D01*
G37*
G36*
X104920295Y-143250323D02*
G01*
X104927310Y-143252451D01*
X104933776Y-143255908D01*
X104939442Y-143260558D01*
X104944092Y-143266224D01*
X104947549Y-143272690D01*
X104949677Y-143279705D01*
X104951000Y-143293140D01*
X104951000Y-143606860D01*
X104949677Y-143620295D01*
X104947549Y-143627309D01*
X104940190Y-143641077D01*
X104930813Y-143663716D01*
X104926033Y-143687749D01*
X104926033Y-143712253D01*
X104930814Y-143736286D01*
X104940190Y-143758923D01*
X104947549Y-143772691D01*
X104949677Y-143779705D01*
X104951000Y-143793140D01*
X104951000Y-144106860D01*
X104949677Y-144120295D01*
X104947549Y-144127309D01*
X104940190Y-144141077D01*
X104930813Y-144163716D01*
X104926033Y-144187749D01*
X104926033Y-144212253D01*
X104930814Y-144236286D01*
X104940190Y-144258923D01*
X104947549Y-144272691D01*
X104949677Y-144279705D01*
X104951000Y-144293140D01*
X104951000Y-144606860D01*
X104949677Y-144620295D01*
X104947549Y-144627309D01*
X104940190Y-144641077D01*
X104930813Y-144663716D01*
X104926033Y-144687749D01*
X104926033Y-144712253D01*
X104930814Y-144736286D01*
X104940190Y-144758923D01*
X104947549Y-144772691D01*
X104949677Y-144779705D01*
X104951000Y-144793140D01*
X104951000Y-145106860D01*
X104949677Y-145120295D01*
X104947549Y-145127309D01*
X104940190Y-145141077D01*
X104930813Y-145163716D01*
X104926033Y-145187749D01*
X104926033Y-145212253D01*
X104930814Y-145236286D01*
X104940190Y-145258923D01*
X104947549Y-145272691D01*
X104949677Y-145279705D01*
X104951000Y-145293140D01*
X104951000Y-145606860D01*
X104949677Y-145620295D01*
X104947549Y-145627309D01*
X104940190Y-145641077D01*
X104930813Y-145663716D01*
X104926033Y-145687749D01*
X104926033Y-145712253D01*
X104930814Y-145736286D01*
X104940190Y-145758923D01*
X104947549Y-145772691D01*
X104949677Y-145779705D01*
X104951000Y-145793140D01*
X104951000Y-146106860D01*
X104949677Y-146120295D01*
X104947549Y-146127309D01*
X104940190Y-146141077D01*
X104930813Y-146163716D01*
X104926033Y-146187749D01*
X104926033Y-146212253D01*
X104930814Y-146236286D01*
X104940190Y-146258923D01*
X104947549Y-146272691D01*
X104949677Y-146279705D01*
X104951000Y-146293140D01*
X104951000Y-146606860D01*
X104949677Y-146620295D01*
X104947549Y-146627309D01*
X104940190Y-146641077D01*
X104930813Y-146663716D01*
X104926033Y-146687749D01*
X104926033Y-146712253D01*
X104930814Y-146736286D01*
X104940190Y-146758923D01*
X104947549Y-146772691D01*
X104949677Y-146779705D01*
X104951000Y-146793140D01*
X104951000Y-147106860D01*
X104949677Y-147120295D01*
X104947549Y-147127309D01*
X104940190Y-147141077D01*
X104930813Y-147163716D01*
X104926033Y-147187749D01*
X104926033Y-147212253D01*
X104930814Y-147236286D01*
X104940190Y-147258923D01*
X104947549Y-147272691D01*
X104949677Y-147279705D01*
X104951000Y-147293140D01*
X104951000Y-147606860D01*
X104949677Y-147620295D01*
X104947549Y-147627309D01*
X104940190Y-147641077D01*
X104930813Y-147663716D01*
X104926033Y-147687749D01*
X104926033Y-147712253D01*
X104930814Y-147736286D01*
X104940190Y-147758923D01*
X104947549Y-147772691D01*
X104949677Y-147779705D01*
X104951000Y-147793140D01*
X104951000Y-148106860D01*
X104949677Y-148120295D01*
X104947549Y-148127309D01*
X104940190Y-148141077D01*
X104930813Y-148163716D01*
X104926033Y-148187749D01*
X104926033Y-148212253D01*
X104930814Y-148236286D01*
X104940190Y-148258923D01*
X104947549Y-148272691D01*
X104949677Y-148279705D01*
X104951000Y-148293140D01*
X104951000Y-148606860D01*
X104949677Y-148620295D01*
X104947549Y-148627309D01*
X104940190Y-148641077D01*
X104930813Y-148663716D01*
X104926033Y-148687749D01*
X104926033Y-148712253D01*
X104930814Y-148736286D01*
X104940190Y-148758923D01*
X104947549Y-148772691D01*
X104949677Y-148779705D01*
X104951000Y-148793140D01*
X104951000Y-149106860D01*
X104949677Y-149120295D01*
X104947549Y-149127310D01*
X104944092Y-149133776D01*
X104939442Y-149139442D01*
X104933776Y-149144092D01*
X104927310Y-149147549D01*
X104920295Y-149149677D01*
X104906860Y-149151000D01*
X103418140Y-149151000D01*
X103404705Y-149149677D01*
X103397690Y-149147549D01*
X103391224Y-149144092D01*
X103385558Y-149139442D01*
X103380908Y-149133776D01*
X103377451Y-149127310D01*
X103375323Y-149120295D01*
X103374000Y-149106860D01*
X103374000Y-148793140D01*
X103375323Y-148779705D01*
X103377451Y-148772691D01*
X103384810Y-148758923D01*
X103394187Y-148736284D01*
X103398967Y-148712251D01*
X103398967Y-148687747D01*
X103394186Y-148663714D01*
X103384810Y-148641077D01*
X103377451Y-148627309D01*
X103375323Y-148620295D01*
X103374000Y-148606860D01*
X103374000Y-148293140D01*
X103375323Y-148279705D01*
X103377451Y-148272691D01*
X103384810Y-148258923D01*
X103394187Y-148236284D01*
X103398967Y-148212251D01*
X103398967Y-148187747D01*
X103394186Y-148163714D01*
X103384810Y-148141077D01*
X103377451Y-148127309D01*
X103375323Y-148120295D01*
X103374000Y-148106860D01*
X103374000Y-147793140D01*
X103375323Y-147779705D01*
X103377451Y-147772691D01*
X103384810Y-147758923D01*
X103394187Y-147736284D01*
X103398967Y-147712251D01*
X103398967Y-147687747D01*
X103394186Y-147663714D01*
X103384810Y-147641077D01*
X103377451Y-147627309D01*
X103375323Y-147620295D01*
X103374000Y-147606860D01*
X103374000Y-147293140D01*
X103375323Y-147279705D01*
X103377451Y-147272691D01*
X103384810Y-147258923D01*
X103394187Y-147236284D01*
X103398967Y-147212251D01*
X103398967Y-147187747D01*
X103394186Y-147163714D01*
X103384810Y-147141077D01*
X103377451Y-147127309D01*
X103375323Y-147120295D01*
X103374000Y-147106860D01*
X103374000Y-146793140D01*
X103375323Y-146779705D01*
X103377451Y-146772691D01*
X103384810Y-146758923D01*
X103394187Y-146736284D01*
X103398967Y-146712251D01*
X103398967Y-146687747D01*
X103394186Y-146663714D01*
X103384810Y-146641077D01*
X103377451Y-146627309D01*
X103375323Y-146620295D01*
X103374000Y-146606860D01*
X103374000Y-146293140D01*
X103375323Y-146279705D01*
X103377451Y-146272691D01*
X103384810Y-146258923D01*
X103394187Y-146236284D01*
X103398967Y-146212251D01*
X103398967Y-146187747D01*
X103394186Y-146163714D01*
X103384810Y-146141077D01*
X103377451Y-146127309D01*
X103375323Y-146120295D01*
X103374000Y-146106860D01*
X103374000Y-145793140D01*
X103375323Y-145779705D01*
X103377451Y-145772691D01*
X103384810Y-145758923D01*
X103394187Y-145736284D01*
X103398967Y-145712251D01*
X103398967Y-145687747D01*
X103394186Y-145663714D01*
X103384810Y-145641077D01*
X103377451Y-145627309D01*
X103375323Y-145620295D01*
X103374000Y-145606860D01*
X103374000Y-145293140D01*
X103375323Y-145279705D01*
X103377451Y-145272691D01*
X103384810Y-145258923D01*
X103394187Y-145236284D01*
X103398967Y-145212251D01*
X103398967Y-145187747D01*
X103394186Y-145163714D01*
X103384810Y-145141077D01*
X103377451Y-145127309D01*
X103375323Y-145120295D01*
X103374000Y-145106860D01*
X103374000Y-144793140D01*
X103375323Y-144779705D01*
X103377451Y-144772691D01*
X103384810Y-144758923D01*
X103394187Y-144736284D01*
X103398967Y-144712251D01*
X103398967Y-144687747D01*
X103394186Y-144663714D01*
X103384810Y-144641077D01*
X103377451Y-144627309D01*
X103375323Y-144620295D01*
X103374000Y-144606860D01*
X103374000Y-144293140D01*
X103375323Y-144279705D01*
X103377451Y-144272691D01*
X103384810Y-144258923D01*
X103394187Y-144236284D01*
X103398967Y-144212251D01*
X103398967Y-144187747D01*
X103394186Y-144163714D01*
X103384810Y-144141077D01*
X103377451Y-144127309D01*
X103375323Y-144120295D01*
X103374000Y-144106860D01*
X103374000Y-143793140D01*
X103375323Y-143779705D01*
X103377451Y-143772691D01*
X103384810Y-143758923D01*
X103394187Y-143736284D01*
X103398967Y-143712251D01*
X103398967Y-143687747D01*
X103394186Y-143663714D01*
X103384810Y-143641077D01*
X103377451Y-143627309D01*
X103375323Y-143620295D01*
X103374000Y-143606860D01*
X103374000Y-143293140D01*
X103375323Y-143279705D01*
X103377451Y-143272690D01*
X103380908Y-143266224D01*
X103385558Y-143260558D01*
X103391224Y-143255908D01*
X103397690Y-143252451D01*
X103404705Y-143250323D01*
X103418140Y-143249000D01*
X104906860Y-143249000D01*
X104920295Y-143250323D01*
G37*
G36*
X93684468Y-147928565D02*
G01*
X93723138Y-147940296D01*
X93758777Y-147959346D01*
X93790017Y-147984983D01*
X93815654Y-148016223D01*
X93834704Y-148051862D01*
X93846435Y-148090532D01*
X93851000Y-148136888D01*
X93851000Y-148788112D01*
X93846435Y-148834468D01*
X93834704Y-148873138D01*
X93815654Y-148908777D01*
X93790017Y-148940017D01*
X93758777Y-148965654D01*
X93723138Y-148984704D01*
X93684468Y-148996435D01*
X93638112Y-149001000D01*
X92561888Y-149001000D01*
X92515532Y-148996435D01*
X92476862Y-148984704D01*
X92441223Y-148965654D01*
X92409983Y-148940017D01*
X92384346Y-148908777D01*
X92365296Y-148873138D01*
X92353565Y-148834468D01*
X92349000Y-148788112D01*
X92349000Y-148136888D01*
X92353565Y-148090532D01*
X92365296Y-148051862D01*
X92384346Y-148016223D01*
X92409983Y-147984983D01*
X92441223Y-147959346D01*
X92476862Y-147940296D01*
X92515532Y-147928565D01*
X92561888Y-147924000D01*
X93638112Y-147924000D01*
X93684468Y-147928565D01*
G37*
G36*
X85509468Y-146753565D02*
G01*
X85548138Y-146765296D01*
X85583777Y-146784346D01*
X85615017Y-146809983D01*
X85640654Y-146841223D01*
X85659704Y-146876862D01*
X85671435Y-146915532D01*
X85676000Y-146961888D01*
X85676000Y-148038112D01*
X85671435Y-148084468D01*
X85659704Y-148123138D01*
X85640654Y-148158777D01*
X85615017Y-148190017D01*
X85583777Y-148215654D01*
X85548138Y-148234704D01*
X85509468Y-148246435D01*
X85463112Y-148251000D01*
X84811888Y-148251000D01*
X84765532Y-148246435D01*
X84726862Y-148234704D01*
X84691223Y-148215654D01*
X84659983Y-148190017D01*
X84634346Y-148158777D01*
X84615296Y-148123138D01*
X84603565Y-148084468D01*
X84599000Y-148038112D01*
X84599000Y-146961888D01*
X84603565Y-146915532D01*
X84615296Y-146876862D01*
X84634346Y-146841223D01*
X84659983Y-146809983D01*
X84691223Y-146784346D01*
X84726862Y-146765296D01*
X84765532Y-146753565D01*
X84811888Y-146749000D01*
X85463112Y-146749000D01*
X85509468Y-146753565D01*
G37*
G36*
X83634468Y-146753565D02*
G01*
X83673138Y-146765296D01*
X83708777Y-146784346D01*
X83740017Y-146809983D01*
X83765654Y-146841223D01*
X83784704Y-146876862D01*
X83796435Y-146915532D01*
X83801000Y-146961888D01*
X83801000Y-148038112D01*
X83796435Y-148084468D01*
X83784704Y-148123138D01*
X83765654Y-148158777D01*
X83740017Y-148190017D01*
X83708777Y-148215654D01*
X83673138Y-148234704D01*
X83634468Y-148246435D01*
X83588112Y-148251000D01*
X82936888Y-148251000D01*
X82890532Y-148246435D01*
X82851862Y-148234704D01*
X82816223Y-148215654D01*
X82784983Y-148190017D01*
X82759346Y-148158777D01*
X82740296Y-148123138D01*
X82728565Y-148084468D01*
X82724000Y-148038112D01*
X82724000Y-146961888D01*
X82728565Y-146915532D01*
X82740296Y-146876862D01*
X82759346Y-146841223D01*
X82784983Y-146809983D01*
X82816223Y-146784346D01*
X82851862Y-146765296D01*
X82890532Y-146753565D01*
X82936888Y-146749000D01*
X83588112Y-146749000D01*
X83634468Y-146753565D01*
G37*
G36*
X115646968Y-146553565D02*
G01*
X115685638Y-146565296D01*
X115721277Y-146584346D01*
X115752517Y-146609983D01*
X115778154Y-146641223D01*
X115797204Y-146676862D01*
X115808935Y-146715532D01*
X115813500Y-146761888D01*
X115813500Y-147838112D01*
X115808935Y-147884468D01*
X115797204Y-147923138D01*
X115778154Y-147958777D01*
X115752517Y-147990017D01*
X115721277Y-148015654D01*
X115685638Y-148034704D01*
X115646968Y-148046435D01*
X115600612Y-148051000D01*
X114949388Y-148051000D01*
X114903032Y-148046435D01*
X114864362Y-148034704D01*
X114828723Y-148015654D01*
X114797483Y-147990017D01*
X114771846Y-147958777D01*
X114752796Y-147923138D01*
X114741065Y-147884468D01*
X114736500Y-147838112D01*
X114736500Y-146761888D01*
X114741065Y-146715532D01*
X114752796Y-146676862D01*
X114771846Y-146641223D01*
X114797483Y-146609983D01*
X114828723Y-146584346D01*
X114864362Y-146565296D01*
X114903032Y-146553565D01*
X114949388Y-146549000D01*
X115600612Y-146549000D01*
X115646968Y-146553565D01*
G37*
G36*
X113771968Y-146553565D02*
G01*
X113810638Y-146565296D01*
X113846277Y-146584346D01*
X113877517Y-146609983D01*
X113903154Y-146641223D01*
X113922204Y-146676862D01*
X113933935Y-146715532D01*
X113938500Y-146761888D01*
X113938500Y-147838112D01*
X113933935Y-147884468D01*
X113922204Y-147923138D01*
X113903154Y-147958777D01*
X113877517Y-147990017D01*
X113846277Y-148015654D01*
X113810638Y-148034704D01*
X113771968Y-148046435D01*
X113725612Y-148051000D01*
X113074388Y-148051000D01*
X113028032Y-148046435D01*
X112989362Y-148034704D01*
X112953723Y-148015654D01*
X112922483Y-147990017D01*
X112896846Y-147958777D01*
X112877796Y-147923138D01*
X112866065Y-147884468D01*
X112861500Y-147838112D01*
X112861500Y-146761888D01*
X112866065Y-146715532D01*
X112877796Y-146676862D01*
X112896846Y-146641223D01*
X112922483Y-146609983D01*
X112953723Y-146584346D01*
X112989362Y-146565296D01*
X113028032Y-146553565D01*
X113074388Y-146549000D01*
X113725612Y-146549000D01*
X113771968Y-146553565D01*
G37*
G36*
X81584468Y-146603565D02*
G01*
X81623138Y-146615296D01*
X81658777Y-146634346D01*
X81690017Y-146659983D01*
X81715654Y-146691223D01*
X81734704Y-146726862D01*
X81746435Y-146765532D01*
X81751000Y-146811888D01*
X81751000Y-147463112D01*
X81746435Y-147509468D01*
X81734704Y-147548138D01*
X81715654Y-147583777D01*
X81690017Y-147615017D01*
X81658777Y-147640654D01*
X81623138Y-147659704D01*
X81584468Y-147671435D01*
X81538112Y-147676000D01*
X80461888Y-147676000D01*
X80415532Y-147671435D01*
X80376862Y-147659704D01*
X80341223Y-147640654D01*
X80309983Y-147615017D01*
X80284346Y-147583777D01*
X80265296Y-147548138D01*
X80253565Y-147509468D01*
X80249000Y-147463112D01*
X80249000Y-146811888D01*
X80253565Y-146765532D01*
X80265296Y-146726862D01*
X80284346Y-146691223D01*
X80309983Y-146659983D01*
X80341223Y-146634346D01*
X80376862Y-146615296D01*
X80415532Y-146603565D01*
X80461888Y-146599000D01*
X81538112Y-146599000D01*
X81584468Y-146603565D01*
G37*
G36*
X118813512Y-145003927D02*
G01*
X118962812Y-145033624D01*
X119126784Y-145101544D01*
X119274354Y-145200147D01*
X119399853Y-145325646D01*
X119498456Y-145473216D01*
X119566376Y-145637188D01*
X119594471Y-145778436D01*
X119600957Y-145811040D01*
X119601000Y-145811259D01*
X119601000Y-145988741D01*
X119566376Y-146162812D01*
X119498456Y-146326784D01*
X119399853Y-146474354D01*
X119274354Y-146599853D01*
X119126784Y-146698456D01*
X118962812Y-146766376D01*
X118825617Y-146793665D01*
X118788742Y-146801000D01*
X118611258Y-146801000D01*
X118574383Y-146793665D01*
X118437188Y-146766376D01*
X118273216Y-146698456D01*
X118125646Y-146599853D01*
X118000147Y-146474354D01*
X117901544Y-146326784D01*
X117833624Y-146162812D01*
X117799000Y-145988741D01*
X117799000Y-145811259D01*
X117799044Y-145811040D01*
X117805529Y-145778436D01*
X117833624Y-145637188D01*
X117901544Y-145473216D01*
X118000147Y-145325646D01*
X118125646Y-145200147D01*
X118273216Y-145101544D01*
X118437188Y-145033624D01*
X118586488Y-145003927D01*
X118611258Y-144999000D01*
X118788742Y-144999000D01*
X118813512Y-145003927D01*
G37*
G36*
X85509468Y-144353565D02*
G01*
X85548138Y-144365296D01*
X85583777Y-144384346D01*
X85615017Y-144409983D01*
X85640654Y-144441223D01*
X85659704Y-144476862D01*
X85671435Y-144515532D01*
X85676000Y-144561888D01*
X85676000Y-145638112D01*
X85671435Y-145684468D01*
X85659704Y-145723138D01*
X85640654Y-145758777D01*
X85615017Y-145790017D01*
X85583777Y-145815654D01*
X85548138Y-145834704D01*
X85509468Y-145846435D01*
X85463112Y-145851000D01*
X84811888Y-145851000D01*
X84765532Y-145846435D01*
X84726862Y-145834704D01*
X84691223Y-145815654D01*
X84659983Y-145790017D01*
X84634346Y-145758777D01*
X84615296Y-145723138D01*
X84603565Y-145684468D01*
X84599000Y-145638112D01*
X84599000Y-144561888D01*
X84603565Y-144515532D01*
X84615296Y-144476862D01*
X84634346Y-144441223D01*
X84659983Y-144409983D01*
X84691223Y-144384346D01*
X84726862Y-144365296D01*
X84765532Y-144353565D01*
X84811888Y-144349000D01*
X85463112Y-144349000D01*
X85509468Y-144353565D01*
G37*
G36*
X83634468Y-144353565D02*
G01*
X83673138Y-144365296D01*
X83708777Y-144384346D01*
X83740017Y-144409983D01*
X83765654Y-144441223D01*
X83784704Y-144476862D01*
X83796435Y-144515532D01*
X83801000Y-144561888D01*
X83801000Y-145638112D01*
X83796435Y-145684468D01*
X83784704Y-145723138D01*
X83765654Y-145758777D01*
X83740017Y-145790017D01*
X83708777Y-145815654D01*
X83673138Y-145834704D01*
X83634468Y-145846435D01*
X83588112Y-145851000D01*
X82936888Y-145851000D01*
X82890532Y-145846435D01*
X82851862Y-145834704D01*
X82816223Y-145815654D01*
X82784983Y-145790017D01*
X82759346Y-145758777D01*
X82740296Y-145723138D01*
X82728565Y-145684468D01*
X82724000Y-145638112D01*
X82724000Y-144561888D01*
X82728565Y-144515532D01*
X82740296Y-144476862D01*
X82759346Y-144441223D01*
X82784983Y-144409983D01*
X82816223Y-144384346D01*
X82851862Y-144365296D01*
X82890532Y-144353565D01*
X82936888Y-144349000D01*
X83588112Y-144349000D01*
X83634468Y-144353565D01*
G37*
G36*
X81584468Y-144728565D02*
G01*
X81623138Y-144740296D01*
X81658777Y-144759346D01*
X81690017Y-144784983D01*
X81715654Y-144816223D01*
X81734704Y-144851862D01*
X81746435Y-144890532D01*
X81751000Y-144936888D01*
X81751000Y-145588112D01*
X81746435Y-145634468D01*
X81734704Y-145673138D01*
X81715654Y-145708777D01*
X81690017Y-145740017D01*
X81658777Y-145765654D01*
X81623138Y-145784704D01*
X81584468Y-145796435D01*
X81538112Y-145801000D01*
X80461888Y-145801000D01*
X80415532Y-145796435D01*
X80376862Y-145784704D01*
X80341223Y-145765654D01*
X80309983Y-145740017D01*
X80284346Y-145708777D01*
X80265296Y-145673138D01*
X80253565Y-145634468D01*
X80249000Y-145588112D01*
X80249000Y-144936888D01*
X80253565Y-144890532D01*
X80265296Y-144851862D01*
X80284346Y-144816223D01*
X80309983Y-144784983D01*
X80341223Y-144759346D01*
X80376862Y-144740296D01*
X80415532Y-144728565D01*
X80461888Y-144724000D01*
X81538112Y-144724000D01*
X81584468Y-144728565D01*
G37*
G36*
X88034468Y-144153565D02*
G01*
X88073138Y-144165296D01*
X88108777Y-144184346D01*
X88140017Y-144209983D01*
X88165654Y-144241223D01*
X88184704Y-144276862D01*
X88196435Y-144315532D01*
X88201000Y-144361888D01*
X88201000Y-145438112D01*
X88196435Y-145484468D01*
X88184704Y-145523138D01*
X88165654Y-145558777D01*
X88140017Y-145590017D01*
X88108777Y-145615654D01*
X88073138Y-145634704D01*
X88034468Y-145646435D01*
X87988112Y-145651000D01*
X87336888Y-145651000D01*
X87290532Y-145646435D01*
X87251862Y-145634704D01*
X87216223Y-145615654D01*
X87184983Y-145590017D01*
X87159346Y-145558777D01*
X87140296Y-145523138D01*
X87128565Y-145484468D01*
X87124000Y-145438112D01*
X87124000Y-144361888D01*
X87128565Y-144315532D01*
X87140296Y-144276862D01*
X87159346Y-144241223D01*
X87184983Y-144209983D01*
X87216223Y-144184346D01*
X87251862Y-144165296D01*
X87290532Y-144153565D01*
X87336888Y-144149000D01*
X87988112Y-144149000D01*
X88034468Y-144153565D01*
G37*
G36*
X89909468Y-144153565D02*
G01*
X89948138Y-144165296D01*
X89983777Y-144184346D01*
X90015017Y-144209983D01*
X90040654Y-144241223D01*
X90059704Y-144276862D01*
X90071435Y-144315532D01*
X90076000Y-144361888D01*
X90076000Y-145438112D01*
X90071435Y-145484468D01*
X90059704Y-145523138D01*
X90040654Y-145558777D01*
X90015017Y-145590017D01*
X89983777Y-145615654D01*
X89948138Y-145634704D01*
X89909468Y-145646435D01*
X89863112Y-145651000D01*
X89211888Y-145651000D01*
X89165532Y-145646435D01*
X89126862Y-145634704D01*
X89091223Y-145615654D01*
X89059983Y-145590017D01*
X89034346Y-145558777D01*
X89015296Y-145523138D01*
X89003565Y-145484468D01*
X88999000Y-145438112D01*
X88999000Y-144361888D01*
X89003565Y-144315532D01*
X89015296Y-144276862D01*
X89034346Y-144241223D01*
X89059983Y-144209983D01*
X89091223Y-144184346D01*
X89126862Y-144165296D01*
X89165532Y-144153565D01*
X89211888Y-144149000D01*
X89863112Y-144149000D01*
X89909468Y-144153565D01*
G37*
G36*
X114151000Y-145051000D02*
G01*
X113049000Y-145051000D01*
X113049000Y-144049000D01*
X114151000Y-144049000D01*
X114151000Y-145051000D01*
G37*
G36*
X115751000Y-145051000D02*
G01*
X114649000Y-145051000D01*
X114649000Y-144049000D01*
X115751000Y-144049000D01*
X115751000Y-145051000D01*
G37*
G36*
X118813512Y-142463927D02*
G01*
X118962812Y-142493624D01*
X119126784Y-142561544D01*
X119274354Y-142660147D01*
X119399853Y-142785646D01*
X119498456Y-142933216D01*
X119566376Y-143097188D01*
X119585203Y-143191840D01*
X119599942Y-143265937D01*
X119601000Y-143271259D01*
X119601000Y-143448741D01*
X119566376Y-143622812D01*
X119498456Y-143786784D01*
X119399853Y-143934354D01*
X119274354Y-144059853D01*
X119126784Y-144158456D01*
X118962812Y-144226376D01*
X118813512Y-144256073D01*
X118788742Y-144261000D01*
X118611258Y-144261000D01*
X118586488Y-144256073D01*
X118437188Y-144226376D01*
X118273216Y-144158456D01*
X118125646Y-144059853D01*
X118000147Y-143934354D01*
X117901544Y-143786784D01*
X117833624Y-143622812D01*
X117799000Y-143448741D01*
X117799000Y-143271259D01*
X117800059Y-143265937D01*
X117814797Y-143191840D01*
X117833624Y-143097188D01*
X117901544Y-142933216D01*
X118000147Y-142785646D01*
X118125646Y-142660147D01*
X118273216Y-142561544D01*
X118437188Y-142493624D01*
X118586488Y-142463927D01*
X118611258Y-142459000D01*
X118788742Y-142459000D01*
X118813512Y-142463927D01*
G37*
G36*
X107234468Y-142653565D02*
G01*
X107273138Y-142665296D01*
X107308777Y-142684346D01*
X107340017Y-142709983D01*
X107365654Y-142741223D01*
X107384704Y-142776862D01*
X107396435Y-142815532D01*
X107401000Y-142861888D01*
X107401000Y-143938112D01*
X107396435Y-143984468D01*
X107384704Y-144023138D01*
X107365654Y-144058777D01*
X107340017Y-144090017D01*
X107308777Y-144115654D01*
X107273138Y-144134704D01*
X107234468Y-144146435D01*
X107188112Y-144151000D01*
X106536888Y-144151000D01*
X106490532Y-144146435D01*
X106451862Y-144134704D01*
X106416223Y-144115654D01*
X106384983Y-144090017D01*
X106359346Y-144058777D01*
X106340296Y-144023138D01*
X106328565Y-143984468D01*
X106324000Y-143938112D01*
X106324000Y-142861888D01*
X106328565Y-142815532D01*
X106340296Y-142776862D01*
X106359346Y-142741223D01*
X106384983Y-142709983D01*
X106416223Y-142684346D01*
X106451862Y-142665296D01*
X106490532Y-142653565D01*
X106536888Y-142649000D01*
X107188112Y-142649000D01*
X107234468Y-142653565D01*
G37*
G36*
X109109468Y-142653565D02*
G01*
X109148138Y-142665296D01*
X109183777Y-142684346D01*
X109215017Y-142709983D01*
X109240654Y-142741223D01*
X109259704Y-142776862D01*
X109271435Y-142815532D01*
X109276000Y-142861888D01*
X109276000Y-143938112D01*
X109271435Y-143984468D01*
X109259704Y-144023138D01*
X109240654Y-144058777D01*
X109215017Y-144090017D01*
X109183777Y-144115654D01*
X109148138Y-144134704D01*
X109109468Y-144146435D01*
X109063112Y-144151000D01*
X108411888Y-144151000D01*
X108365532Y-144146435D01*
X108326862Y-144134704D01*
X108291223Y-144115654D01*
X108259983Y-144090017D01*
X108234346Y-144058777D01*
X108215296Y-144023138D01*
X108203565Y-143984468D01*
X108199000Y-143938112D01*
X108199000Y-142861888D01*
X108203565Y-142815532D01*
X108215296Y-142776862D01*
X108234346Y-142741223D01*
X108259983Y-142709983D01*
X108291223Y-142684346D01*
X108326862Y-142665296D01*
X108365532Y-142653565D01*
X108411888Y-142649000D01*
X109063112Y-142649000D01*
X109109468Y-142653565D01*
G37*
G36*
X89909468Y-141953565D02*
G01*
X89948138Y-141965296D01*
X89983777Y-141984346D01*
X90015017Y-142009983D01*
X90040654Y-142041223D01*
X90059704Y-142076862D01*
X90071435Y-142115532D01*
X90076000Y-142161888D01*
X90076000Y-143238112D01*
X90071435Y-143284468D01*
X90059704Y-143323138D01*
X90040654Y-143358777D01*
X90015017Y-143390017D01*
X89983777Y-143415654D01*
X89948138Y-143434704D01*
X89909468Y-143446435D01*
X89863112Y-143451000D01*
X89211888Y-143451000D01*
X89165532Y-143446435D01*
X89126862Y-143434704D01*
X89091223Y-143415654D01*
X89059983Y-143390017D01*
X89034346Y-143358777D01*
X89015296Y-143323138D01*
X89003565Y-143284468D01*
X88999000Y-143238112D01*
X88999000Y-142161888D01*
X89003565Y-142115532D01*
X89015296Y-142076862D01*
X89034346Y-142041223D01*
X89059983Y-142009983D01*
X89091223Y-141984346D01*
X89126862Y-141965296D01*
X89165532Y-141953565D01*
X89211888Y-141949000D01*
X89863112Y-141949000D01*
X89909468Y-141953565D01*
G37*
G36*
X88034468Y-141953565D02*
G01*
X88073138Y-141965296D01*
X88108777Y-141984346D01*
X88140017Y-142009983D01*
X88165654Y-142041223D01*
X88184704Y-142076862D01*
X88196435Y-142115532D01*
X88201000Y-142161888D01*
X88201000Y-143238112D01*
X88196435Y-143284468D01*
X88184704Y-143323138D01*
X88165654Y-143358777D01*
X88140017Y-143390017D01*
X88108777Y-143415654D01*
X88073138Y-143434704D01*
X88034468Y-143446435D01*
X87988112Y-143451000D01*
X87336888Y-143451000D01*
X87290532Y-143446435D01*
X87251862Y-143434704D01*
X87216223Y-143415654D01*
X87184983Y-143390017D01*
X87159346Y-143358777D01*
X87140296Y-143323138D01*
X87128565Y-143284468D01*
X87124000Y-143238112D01*
X87124000Y-142161888D01*
X87128565Y-142115532D01*
X87140296Y-142076862D01*
X87159346Y-142041223D01*
X87184983Y-142009983D01*
X87216223Y-141984346D01*
X87251862Y-141965296D01*
X87290532Y-141953565D01*
X87336888Y-141949000D01*
X87988112Y-141949000D01*
X88034468Y-141953565D01*
G37*
G36*
X85264928Y-141151764D02*
G01*
X85286009Y-141158160D01*
X85305445Y-141168548D01*
X85322476Y-141182524D01*
X85336452Y-141199555D01*
X85346840Y-141218991D01*
X85353236Y-141240072D01*
X85356000Y-141268140D01*
X85356000Y-143081860D01*
X85353236Y-143109928D01*
X85346840Y-143131009D01*
X85336452Y-143150445D01*
X85322476Y-143167476D01*
X85305445Y-143181452D01*
X85286009Y-143191840D01*
X85264928Y-143198236D01*
X85236860Y-143201000D01*
X84773140Y-143201000D01*
X84745072Y-143198236D01*
X84723991Y-143191840D01*
X84704555Y-143181452D01*
X84687524Y-143167476D01*
X84673548Y-143150445D01*
X84663160Y-143131009D01*
X84656764Y-143109928D01*
X84654000Y-143081860D01*
X84654000Y-141268140D01*
X84656764Y-141240072D01*
X84663160Y-141218991D01*
X84673548Y-141199555D01*
X84687524Y-141182524D01*
X84704555Y-141168548D01*
X84723991Y-141158160D01*
X84745072Y-141151764D01*
X84773140Y-141149000D01*
X85236860Y-141149000D01*
X85264928Y-141151764D01*
G37*
G36*
X83994928Y-141151764D02*
G01*
X84016009Y-141158160D01*
X84035445Y-141168548D01*
X84052476Y-141182524D01*
X84066452Y-141199555D01*
X84076840Y-141218991D01*
X84083236Y-141240072D01*
X84086000Y-141268140D01*
X84086000Y-143081860D01*
X84083236Y-143109928D01*
X84076840Y-143131009D01*
X84066452Y-143150445D01*
X84052476Y-143167476D01*
X84035445Y-143181452D01*
X84016009Y-143191840D01*
X83994928Y-143198236D01*
X83966860Y-143201000D01*
X83503140Y-143201000D01*
X83475072Y-143198236D01*
X83453991Y-143191840D01*
X83434555Y-143181452D01*
X83417524Y-143167476D01*
X83403548Y-143150445D01*
X83393160Y-143131009D01*
X83386764Y-143109928D01*
X83384000Y-143081860D01*
X83384000Y-141268140D01*
X83386764Y-141240072D01*
X83393160Y-141218991D01*
X83403548Y-141199555D01*
X83417524Y-141182524D01*
X83434555Y-141168548D01*
X83453991Y-141158160D01*
X83475072Y-141151764D01*
X83503140Y-141149000D01*
X83966860Y-141149000D01*
X83994928Y-141151764D01*
G37*
G36*
X82724928Y-141151764D02*
G01*
X82746009Y-141158160D01*
X82765445Y-141168548D01*
X82782476Y-141182524D01*
X82796452Y-141199555D01*
X82806840Y-141218991D01*
X82813236Y-141240072D01*
X82816000Y-141268140D01*
X82816000Y-143081860D01*
X82813236Y-143109928D01*
X82806840Y-143131009D01*
X82796452Y-143150445D01*
X82782476Y-143167476D01*
X82765445Y-143181452D01*
X82746009Y-143191840D01*
X82724928Y-143198236D01*
X82696860Y-143201000D01*
X82233140Y-143201000D01*
X82205072Y-143198236D01*
X82183991Y-143191840D01*
X82164555Y-143181452D01*
X82147524Y-143167476D01*
X82133548Y-143150445D01*
X82123160Y-143131009D01*
X82116764Y-143109928D01*
X82114000Y-143081860D01*
X82114000Y-141268140D01*
X82116764Y-141240072D01*
X82123160Y-141218991D01*
X82133548Y-141199555D01*
X82147524Y-141182524D01*
X82164555Y-141168548D01*
X82183991Y-141158160D01*
X82205072Y-141151764D01*
X82233140Y-141149000D01*
X82696860Y-141149000D01*
X82724928Y-141151764D01*
G37*
G36*
X81454928Y-141151764D02*
G01*
X81476009Y-141158160D01*
X81495445Y-141168548D01*
X81512476Y-141182524D01*
X81526452Y-141199555D01*
X81536840Y-141218991D01*
X81543236Y-141240072D01*
X81546000Y-141268140D01*
X81546000Y-143081860D01*
X81543236Y-143109928D01*
X81536840Y-143131009D01*
X81526452Y-143150445D01*
X81512476Y-143167476D01*
X81495445Y-143181452D01*
X81476009Y-143191840D01*
X81454928Y-143198236D01*
X81426860Y-143201000D01*
X80963140Y-143201000D01*
X80935072Y-143198236D01*
X80913991Y-143191840D01*
X80894555Y-143181452D01*
X80877524Y-143167476D01*
X80863548Y-143150445D01*
X80853160Y-143131009D01*
X80846764Y-143109928D01*
X80844000Y-143081860D01*
X80844000Y-141268140D01*
X80846764Y-141240072D01*
X80853160Y-141218991D01*
X80863548Y-141199555D01*
X80877524Y-141182524D01*
X80894555Y-141168548D01*
X80913991Y-141158160D01*
X80935072Y-141151764D01*
X80963140Y-141149000D01*
X81426860Y-141149000D01*
X81454928Y-141151764D01*
G37*
G36*
X97420295Y-141250323D02*
G01*
X97427309Y-141252451D01*
X97441077Y-141259810D01*
X97463716Y-141269187D01*
X97487749Y-141273967D01*
X97512253Y-141273967D01*
X97536286Y-141269186D01*
X97558923Y-141259810D01*
X97572691Y-141252451D01*
X97579705Y-141250323D01*
X97593140Y-141249000D01*
X97906860Y-141249000D01*
X97920295Y-141250323D01*
X97927309Y-141252451D01*
X97941077Y-141259810D01*
X97963716Y-141269187D01*
X97987749Y-141273967D01*
X98012253Y-141273967D01*
X98036286Y-141269186D01*
X98058923Y-141259810D01*
X98072691Y-141252451D01*
X98079705Y-141250323D01*
X98093140Y-141249000D01*
X98406860Y-141249000D01*
X98420295Y-141250323D01*
X98427309Y-141252451D01*
X98441077Y-141259810D01*
X98463716Y-141269187D01*
X98487749Y-141273967D01*
X98512253Y-141273967D01*
X98536286Y-141269186D01*
X98558923Y-141259810D01*
X98572691Y-141252451D01*
X98579705Y-141250323D01*
X98593140Y-141249000D01*
X98906860Y-141249000D01*
X98920295Y-141250323D01*
X98927309Y-141252451D01*
X98941077Y-141259810D01*
X98963716Y-141269187D01*
X98987749Y-141273967D01*
X99012253Y-141273967D01*
X99036286Y-141269186D01*
X99058923Y-141259810D01*
X99072691Y-141252451D01*
X99079705Y-141250323D01*
X99093140Y-141249000D01*
X99406860Y-141249000D01*
X99420295Y-141250323D01*
X99427309Y-141252451D01*
X99441077Y-141259810D01*
X99463716Y-141269187D01*
X99487749Y-141273967D01*
X99512253Y-141273967D01*
X99536286Y-141269186D01*
X99558923Y-141259810D01*
X99572691Y-141252451D01*
X99579705Y-141250323D01*
X99593140Y-141249000D01*
X99906860Y-141249000D01*
X99920295Y-141250323D01*
X99927309Y-141252451D01*
X99941077Y-141259810D01*
X99963716Y-141269187D01*
X99987749Y-141273967D01*
X100012253Y-141273967D01*
X100036286Y-141269186D01*
X100058923Y-141259810D01*
X100072691Y-141252451D01*
X100079705Y-141250323D01*
X100093140Y-141249000D01*
X100406860Y-141249000D01*
X100420295Y-141250323D01*
X100427309Y-141252451D01*
X100441077Y-141259810D01*
X100463716Y-141269187D01*
X100487749Y-141273967D01*
X100512253Y-141273967D01*
X100536286Y-141269186D01*
X100558923Y-141259810D01*
X100572691Y-141252451D01*
X100579705Y-141250323D01*
X100593140Y-141249000D01*
X100906860Y-141249000D01*
X100920295Y-141250323D01*
X100927309Y-141252451D01*
X100941077Y-141259810D01*
X100963716Y-141269187D01*
X100987749Y-141273967D01*
X101012253Y-141273967D01*
X101036286Y-141269186D01*
X101058923Y-141259810D01*
X101072691Y-141252451D01*
X101079705Y-141250323D01*
X101093140Y-141249000D01*
X101406860Y-141249000D01*
X101420295Y-141250323D01*
X101427309Y-141252451D01*
X101441077Y-141259810D01*
X101463716Y-141269187D01*
X101487749Y-141273967D01*
X101512253Y-141273967D01*
X101536286Y-141269186D01*
X101558923Y-141259810D01*
X101572691Y-141252451D01*
X101579705Y-141250323D01*
X101593140Y-141249000D01*
X101906860Y-141249000D01*
X101920295Y-141250323D01*
X101927309Y-141252451D01*
X101941077Y-141259810D01*
X101963716Y-141269187D01*
X101987749Y-141273967D01*
X102012253Y-141273967D01*
X102036286Y-141269186D01*
X102058923Y-141259810D01*
X102072691Y-141252451D01*
X102079705Y-141250323D01*
X102093140Y-141249000D01*
X102406860Y-141249000D01*
X102420295Y-141250323D01*
X102427309Y-141252451D01*
X102441077Y-141259810D01*
X102463716Y-141269187D01*
X102487749Y-141273967D01*
X102512253Y-141273967D01*
X102536286Y-141269186D01*
X102558923Y-141259810D01*
X102572691Y-141252451D01*
X102579705Y-141250323D01*
X102593140Y-141249000D01*
X102906860Y-141249000D01*
X102920295Y-141250323D01*
X102927310Y-141252451D01*
X102933776Y-141255908D01*
X102939442Y-141260558D01*
X102944092Y-141266224D01*
X102947549Y-141272690D01*
X102949677Y-141279705D01*
X102951000Y-141293140D01*
X102951000Y-142781860D01*
X102949677Y-142795295D01*
X102947549Y-142802310D01*
X102944092Y-142808776D01*
X102939442Y-142814442D01*
X102933776Y-142819092D01*
X102927310Y-142822549D01*
X102920295Y-142824677D01*
X102906860Y-142826000D01*
X102593140Y-142826000D01*
X102579705Y-142824677D01*
X102572691Y-142822549D01*
X102558923Y-142815190D01*
X102536284Y-142805813D01*
X102512251Y-142801033D01*
X102487747Y-142801033D01*
X102463714Y-142805814D01*
X102441077Y-142815190D01*
X102427309Y-142822549D01*
X102420295Y-142824677D01*
X102406860Y-142826000D01*
X102093140Y-142826000D01*
X102079705Y-142824677D01*
X102072691Y-142822549D01*
X102058923Y-142815190D01*
X102036284Y-142805813D01*
X102012251Y-142801033D01*
X101987747Y-142801033D01*
X101963714Y-142805814D01*
X101941077Y-142815190D01*
X101927309Y-142822549D01*
X101920295Y-142824677D01*
X101906860Y-142826000D01*
X101593140Y-142826000D01*
X101579705Y-142824677D01*
X101572691Y-142822549D01*
X101558923Y-142815190D01*
X101536284Y-142805813D01*
X101512251Y-142801033D01*
X101487747Y-142801033D01*
X101463714Y-142805814D01*
X101441077Y-142815190D01*
X101427309Y-142822549D01*
X101420295Y-142824677D01*
X101406860Y-142826000D01*
X101093140Y-142826000D01*
X101079705Y-142824677D01*
X101072691Y-142822549D01*
X101058923Y-142815190D01*
X101036284Y-142805813D01*
X101012251Y-142801033D01*
X100987747Y-142801033D01*
X100963714Y-142805814D01*
X100941077Y-142815190D01*
X100927309Y-142822549D01*
X100920295Y-142824677D01*
X100906860Y-142826000D01*
X100593140Y-142826000D01*
X100579705Y-142824677D01*
X100572691Y-142822549D01*
X100558923Y-142815190D01*
X100536284Y-142805813D01*
X100512251Y-142801033D01*
X100487747Y-142801033D01*
X100463714Y-142805814D01*
X100441077Y-142815190D01*
X100427309Y-142822549D01*
X100420295Y-142824677D01*
X100406860Y-142826000D01*
X100093140Y-142826000D01*
X100079705Y-142824677D01*
X100072691Y-142822549D01*
X100058923Y-142815190D01*
X100036284Y-142805813D01*
X100012251Y-142801033D01*
X99987747Y-142801033D01*
X99963714Y-142805814D01*
X99941077Y-142815190D01*
X99927309Y-142822549D01*
X99920295Y-142824677D01*
X99906860Y-142826000D01*
X99593140Y-142826000D01*
X99579705Y-142824677D01*
X99572691Y-142822549D01*
X99558923Y-142815190D01*
X99536284Y-142805813D01*
X99512251Y-142801033D01*
X99487747Y-142801033D01*
X99463714Y-142805814D01*
X99441077Y-142815190D01*
X99427309Y-142822549D01*
X99420295Y-142824677D01*
X99406860Y-142826000D01*
X99093140Y-142826000D01*
X99079705Y-142824677D01*
X99072691Y-142822549D01*
X99058923Y-142815190D01*
X99036284Y-142805813D01*
X99012251Y-142801033D01*
X98987747Y-142801033D01*
X98963714Y-142805814D01*
X98941077Y-142815190D01*
X98927309Y-142822549D01*
X98920295Y-142824677D01*
X98906860Y-142826000D01*
X98593140Y-142826000D01*
X98579705Y-142824677D01*
X98572691Y-142822549D01*
X98558923Y-142815190D01*
X98536284Y-142805813D01*
X98512251Y-142801033D01*
X98487747Y-142801033D01*
X98463714Y-142805814D01*
X98441077Y-142815190D01*
X98427309Y-142822549D01*
X98420295Y-142824677D01*
X98406860Y-142826000D01*
X98093140Y-142826000D01*
X98079705Y-142824677D01*
X98072691Y-142822549D01*
X98058923Y-142815190D01*
X98036284Y-142805813D01*
X98012251Y-142801033D01*
X97987747Y-142801033D01*
X97963714Y-142805814D01*
X97941077Y-142815190D01*
X97927309Y-142822549D01*
X97920295Y-142824677D01*
X97906860Y-142826000D01*
X97593140Y-142826000D01*
X97579705Y-142824677D01*
X97572691Y-142822549D01*
X97558923Y-142815190D01*
X97536284Y-142805813D01*
X97512251Y-142801033D01*
X97487747Y-142801033D01*
X97463714Y-142805814D01*
X97441077Y-142815190D01*
X97427309Y-142822549D01*
X97420295Y-142824677D01*
X97406860Y-142826000D01*
X97093140Y-142826000D01*
X97079705Y-142824677D01*
X97072690Y-142822549D01*
X97066224Y-142819092D01*
X97060558Y-142814442D01*
X97055908Y-142808776D01*
X97052451Y-142802310D01*
X97050323Y-142795295D01*
X97049000Y-142781860D01*
X97049000Y-141293140D01*
X97050323Y-141279705D01*
X97052451Y-141272690D01*
X97055908Y-141266224D01*
X97060558Y-141260558D01*
X97066224Y-141255908D01*
X97072690Y-141252451D01*
X97079705Y-141250323D01*
X97093140Y-141249000D01*
X97406860Y-141249000D01*
X97420295Y-141250323D01*
G37*
G36*
X118813512Y-139923927D02*
G01*
X118962812Y-139953624D01*
X119126784Y-140021544D01*
X119274354Y-140120147D01*
X119399853Y-140245646D01*
X119498456Y-140393216D01*
X119566376Y-140557188D01*
X119587926Y-140665532D01*
X119601000Y-140731258D01*
X119601000Y-140908742D01*
X119600792Y-140909788D01*
X119566376Y-141082812D01*
X119498456Y-141246784D01*
X119399853Y-141394354D01*
X119274354Y-141519853D01*
X119126784Y-141618456D01*
X118962812Y-141686376D01*
X118813512Y-141716073D01*
X118788742Y-141721000D01*
X118611258Y-141721000D01*
X118586488Y-141716073D01*
X118437188Y-141686376D01*
X118273216Y-141618456D01*
X118125646Y-141519853D01*
X118000147Y-141394354D01*
X117901544Y-141246784D01*
X117833624Y-141082812D01*
X117799208Y-140909788D01*
X117799000Y-140908742D01*
X117799000Y-140731258D01*
X117812074Y-140665532D01*
X117833624Y-140557188D01*
X117901544Y-140393216D01*
X118000147Y-140245646D01*
X118125646Y-140120147D01*
X118273216Y-140021544D01*
X118437188Y-139953624D01*
X118586488Y-139923927D01*
X118611258Y-139919000D01*
X118788742Y-139919000D01*
X118813512Y-139923927D01*
G37*
G36*
X109884468Y-140503565D02*
G01*
X109923138Y-140515296D01*
X109958777Y-140534346D01*
X109990017Y-140559983D01*
X110015654Y-140591223D01*
X110034704Y-140626862D01*
X110046435Y-140665532D01*
X110051000Y-140711888D01*
X110051000Y-141363112D01*
X110046435Y-141409468D01*
X110034704Y-141448138D01*
X110015654Y-141483777D01*
X109990017Y-141515017D01*
X109958777Y-141540654D01*
X109923138Y-141559704D01*
X109884468Y-141571435D01*
X109838112Y-141576000D01*
X108761888Y-141576000D01*
X108715532Y-141571435D01*
X108676862Y-141559704D01*
X108641223Y-141540654D01*
X108609983Y-141515017D01*
X108584346Y-141483777D01*
X108565296Y-141448138D01*
X108553565Y-141409468D01*
X108549000Y-141363112D01*
X108549000Y-140711888D01*
X108553565Y-140665532D01*
X108565296Y-140626862D01*
X108584346Y-140591223D01*
X108609983Y-140559983D01*
X108641223Y-140534346D01*
X108676862Y-140515296D01*
X108715532Y-140503565D01*
X108761888Y-140499000D01*
X109838112Y-140499000D01*
X109884468Y-140503565D01*
G37*
G36*
X88584468Y-140003565D02*
G01*
X88623138Y-140015296D01*
X88658777Y-140034346D01*
X88690017Y-140059983D01*
X88715654Y-140091223D01*
X88734704Y-140126862D01*
X88746435Y-140165532D01*
X88751000Y-140211888D01*
X88751000Y-140863112D01*
X88746435Y-140909468D01*
X88734704Y-140948138D01*
X88715654Y-140983777D01*
X88690017Y-141015017D01*
X88658777Y-141040654D01*
X88623138Y-141059704D01*
X88584468Y-141071435D01*
X88538112Y-141076000D01*
X87461888Y-141076000D01*
X87415532Y-141071435D01*
X87376862Y-141059704D01*
X87341223Y-141040654D01*
X87309983Y-141015017D01*
X87284346Y-140983777D01*
X87265296Y-140948138D01*
X87253565Y-140909468D01*
X87249000Y-140863112D01*
X87249000Y-140211888D01*
X87253565Y-140165532D01*
X87265296Y-140126862D01*
X87284346Y-140091223D01*
X87309983Y-140059983D01*
X87341223Y-140034346D01*
X87376862Y-140015296D01*
X87415532Y-140003565D01*
X87461888Y-139999000D01*
X88538112Y-139999000D01*
X88584468Y-140003565D01*
G37*
G36*
X115751000Y-140951000D02*
G01*
X114649000Y-140951000D01*
X114649000Y-139949000D01*
X115751000Y-139949000D01*
X115751000Y-140951000D01*
G37*
G36*
X114151000Y-140951000D02*
G01*
X113049000Y-140951000D01*
X113049000Y-139949000D01*
X114151000Y-139949000D01*
X114151000Y-140951000D01*
G37*
G36*
X94084468Y-138703565D02*
G01*
X94123138Y-138715296D01*
X94158777Y-138734346D01*
X94190017Y-138759983D01*
X94215654Y-138791223D01*
X94234704Y-138826862D01*
X94246435Y-138865532D01*
X94251000Y-138911888D01*
X94251000Y-139563112D01*
X94246435Y-139609468D01*
X94234704Y-139648138D01*
X94215654Y-139683777D01*
X94190017Y-139715017D01*
X94158777Y-139740654D01*
X94123138Y-139759704D01*
X94084468Y-139771435D01*
X94038112Y-139776000D01*
X92961888Y-139776000D01*
X92915532Y-139771435D01*
X92876862Y-139759704D01*
X92841223Y-139740654D01*
X92809983Y-139715017D01*
X92784346Y-139683777D01*
X92765296Y-139648138D01*
X92753565Y-139609468D01*
X92749000Y-139563112D01*
X92749000Y-138911888D01*
X92753565Y-138865532D01*
X92765296Y-138826862D01*
X92784346Y-138791223D01*
X92809983Y-138759983D01*
X92841223Y-138734346D01*
X92876862Y-138715296D01*
X92915532Y-138703565D01*
X92961888Y-138699000D01*
X94038112Y-138699000D01*
X94084468Y-138703565D01*
G37*
G36*
X91884468Y-138703565D02*
G01*
X91923138Y-138715296D01*
X91958777Y-138734346D01*
X91990017Y-138759983D01*
X92015654Y-138791223D01*
X92034704Y-138826862D01*
X92046435Y-138865532D01*
X92051000Y-138911888D01*
X92051000Y-139563112D01*
X92046435Y-139609468D01*
X92034704Y-139648138D01*
X92015654Y-139683777D01*
X91990017Y-139715017D01*
X91958777Y-139740654D01*
X91923138Y-139759704D01*
X91884468Y-139771435D01*
X91838112Y-139776000D01*
X90761888Y-139776000D01*
X90715532Y-139771435D01*
X90676862Y-139759704D01*
X90641223Y-139740654D01*
X90609983Y-139715017D01*
X90584346Y-139683777D01*
X90565296Y-139648138D01*
X90553565Y-139609468D01*
X90549000Y-139563112D01*
X90549000Y-138911888D01*
X90553565Y-138865532D01*
X90565296Y-138826862D01*
X90584346Y-138791223D01*
X90609983Y-138759983D01*
X90641223Y-138734346D01*
X90676862Y-138715296D01*
X90715532Y-138703565D01*
X90761888Y-138699000D01*
X91838112Y-138699000D01*
X91884468Y-138703565D01*
G37*
G36*
X109884468Y-138628565D02*
G01*
X109923138Y-138640296D01*
X109958777Y-138659346D01*
X109990017Y-138684983D01*
X110015654Y-138716223D01*
X110034704Y-138751862D01*
X110046435Y-138790532D01*
X110051000Y-138836888D01*
X110051000Y-139488112D01*
X110046435Y-139534468D01*
X110034704Y-139573138D01*
X110015654Y-139608777D01*
X109990017Y-139640017D01*
X109958777Y-139665654D01*
X109923138Y-139684704D01*
X109884468Y-139696435D01*
X109838112Y-139701000D01*
X108761888Y-139701000D01*
X108715532Y-139696435D01*
X108676862Y-139684704D01*
X108641223Y-139665654D01*
X108609983Y-139640017D01*
X108584346Y-139608777D01*
X108565296Y-139573138D01*
X108553565Y-139534468D01*
X108549000Y-139488112D01*
X108549000Y-138836888D01*
X108553565Y-138790532D01*
X108565296Y-138751862D01*
X108584346Y-138716223D01*
X108609983Y-138684983D01*
X108641223Y-138659346D01*
X108676862Y-138640296D01*
X108715532Y-138628565D01*
X108761888Y-138624000D01*
X109838112Y-138624000D01*
X109884468Y-138628565D01*
G37*
G36*
X104101000Y-139551000D02*
G01*
X102999000Y-139551000D01*
X102999000Y-137649000D01*
X104101000Y-137649000D01*
X104101000Y-139551000D01*
G37*
G36*
X106601000Y-139551000D02*
G01*
X105499000Y-139551000D01*
X105499000Y-137649000D01*
X106601000Y-137649000D01*
X106601000Y-139551000D01*
G37*
G36*
X88584468Y-138128565D02*
G01*
X88623138Y-138140296D01*
X88658777Y-138159346D01*
X88690017Y-138184983D01*
X88715654Y-138216223D01*
X88734704Y-138251862D01*
X88746435Y-138290532D01*
X88751000Y-138336888D01*
X88751000Y-138988112D01*
X88746435Y-139034468D01*
X88734704Y-139073138D01*
X88715654Y-139108777D01*
X88690017Y-139140017D01*
X88658777Y-139165654D01*
X88623138Y-139184704D01*
X88584468Y-139196435D01*
X88538112Y-139201000D01*
X87461888Y-139201000D01*
X87415532Y-139196435D01*
X87376862Y-139184704D01*
X87341223Y-139165654D01*
X87309983Y-139140017D01*
X87284346Y-139108777D01*
X87265296Y-139073138D01*
X87253565Y-139034468D01*
X87249000Y-138988112D01*
X87249000Y-138336888D01*
X87253565Y-138290532D01*
X87265296Y-138251862D01*
X87284346Y-138216223D01*
X87309983Y-138184983D01*
X87341223Y-138159346D01*
X87376862Y-138140296D01*
X87415532Y-138128565D01*
X87461888Y-138124000D01*
X88538112Y-138124000D01*
X88584468Y-138128565D01*
G37*
G36*
X97326000Y-139201000D02*
G01*
X95224000Y-139201000D01*
X95224000Y-136699000D01*
X97326000Y-136699000D01*
X97326000Y-139201000D01*
G37*
G36*
X101026000Y-139201000D02*
G01*
X98924000Y-139201000D01*
X98924000Y-136699000D01*
X101026000Y-136699000D01*
X101026000Y-139201000D01*
G37*
G36*
X118813512Y-137383927D02*
G01*
X118962812Y-137413624D01*
X119126784Y-137481544D01*
X119274354Y-137580147D01*
X119399853Y-137705646D01*
X119498456Y-137853216D01*
X119566376Y-138017188D01*
X119601000Y-138191259D01*
X119601000Y-138368741D01*
X119566376Y-138542812D01*
X119498456Y-138706784D01*
X119399853Y-138854354D01*
X119274354Y-138979853D01*
X119126784Y-139078456D01*
X118962812Y-139146376D01*
X118813512Y-139176073D01*
X118788742Y-139181000D01*
X118611258Y-139181000D01*
X118586488Y-139176073D01*
X118437188Y-139146376D01*
X118273216Y-139078456D01*
X118125646Y-138979853D01*
X118000147Y-138854354D01*
X117901544Y-138706784D01*
X117833624Y-138542812D01*
X117799000Y-138368741D01*
X117799000Y-138191259D01*
X117833624Y-138017188D01*
X117901544Y-137853216D01*
X118000147Y-137705646D01*
X118125646Y-137580147D01*
X118273216Y-137481544D01*
X118437188Y-137413624D01*
X118586488Y-137383927D01*
X118611258Y-137379000D01*
X118788742Y-137379000D01*
X118813512Y-137383927D01*
G37*
G36*
X115709468Y-137553565D02*
G01*
X115748138Y-137565296D01*
X115783777Y-137584346D01*
X115815017Y-137609983D01*
X115840654Y-137641223D01*
X115859704Y-137676862D01*
X115871435Y-137715532D01*
X115876000Y-137761888D01*
X115876000Y-138838112D01*
X115871435Y-138884468D01*
X115859704Y-138923138D01*
X115840654Y-138958777D01*
X115815017Y-138990017D01*
X115783777Y-139015654D01*
X115748138Y-139034704D01*
X115709468Y-139046435D01*
X115663112Y-139051000D01*
X115011888Y-139051000D01*
X114965532Y-139046435D01*
X114926862Y-139034704D01*
X114891223Y-139015654D01*
X114859983Y-138990017D01*
X114834346Y-138958777D01*
X114815296Y-138923138D01*
X114803565Y-138884468D01*
X114799000Y-138838112D01*
X114799000Y-137761888D01*
X114803565Y-137715532D01*
X114815296Y-137676862D01*
X114834346Y-137641223D01*
X114859983Y-137609983D01*
X114891223Y-137584346D01*
X114926862Y-137565296D01*
X114965532Y-137553565D01*
X115011888Y-137549000D01*
X115663112Y-137549000D01*
X115709468Y-137553565D01*
G37*
G36*
X113834468Y-137553565D02*
G01*
X113873138Y-137565296D01*
X113908777Y-137584346D01*
X113940017Y-137609983D01*
X113965654Y-137641223D01*
X113984704Y-137676862D01*
X113996435Y-137715532D01*
X114001000Y-137761888D01*
X114001000Y-138838112D01*
X113996435Y-138884468D01*
X113984704Y-138923138D01*
X113965654Y-138958777D01*
X113940017Y-138990017D01*
X113908777Y-139015654D01*
X113873138Y-139034704D01*
X113834468Y-139046435D01*
X113788112Y-139051000D01*
X113136888Y-139051000D01*
X113090532Y-139046435D01*
X113051862Y-139034704D01*
X113016223Y-139015654D01*
X112984983Y-138990017D01*
X112959346Y-138958777D01*
X112940296Y-138923138D01*
X112928565Y-138884468D01*
X112924000Y-138838112D01*
X112924000Y-137761888D01*
X112928565Y-137715532D01*
X112940296Y-137676862D01*
X112959346Y-137641223D01*
X112984983Y-137609983D01*
X113016223Y-137584346D01*
X113051862Y-137565296D01*
X113090532Y-137553565D01*
X113136888Y-137549000D01*
X113788112Y-137549000D01*
X113834468Y-137553565D01*
G37*
G36*
X83994928Y-136201764D02*
G01*
X84016009Y-136208160D01*
X84035445Y-136218548D01*
X84052476Y-136232524D01*
X84066452Y-136249555D01*
X84076840Y-136268991D01*
X84083236Y-136290072D01*
X84086000Y-136318140D01*
X84086000Y-138131860D01*
X84083236Y-138159928D01*
X84076840Y-138181009D01*
X84066452Y-138200445D01*
X84052476Y-138217476D01*
X84035445Y-138231452D01*
X84016009Y-138241840D01*
X83994928Y-138248236D01*
X83966860Y-138251000D01*
X83503140Y-138251000D01*
X83475072Y-138248236D01*
X83453991Y-138241840D01*
X83434555Y-138231452D01*
X83417524Y-138217476D01*
X83403548Y-138200445D01*
X83393160Y-138181009D01*
X83386764Y-138159928D01*
X83384000Y-138131860D01*
X83384000Y-136318140D01*
X83386764Y-136290072D01*
X83393160Y-136268991D01*
X83403548Y-136249555D01*
X83417524Y-136232524D01*
X83434555Y-136218548D01*
X83453991Y-136208160D01*
X83475072Y-136201764D01*
X83503140Y-136199000D01*
X83966860Y-136199000D01*
X83994928Y-136201764D01*
G37*
G36*
X85264928Y-136201764D02*
G01*
X85286009Y-136208160D01*
X85305445Y-136218548D01*
X85322476Y-136232524D01*
X85336452Y-136249555D01*
X85346840Y-136268991D01*
X85353236Y-136290072D01*
X85356000Y-136318140D01*
X85356000Y-138131860D01*
X85353236Y-138159928D01*
X85346840Y-138181009D01*
X85336452Y-138200445D01*
X85322476Y-138217476D01*
X85305445Y-138231452D01*
X85286009Y-138241840D01*
X85264928Y-138248236D01*
X85236860Y-138251000D01*
X84773140Y-138251000D01*
X84745072Y-138248236D01*
X84723991Y-138241840D01*
X84704555Y-138231452D01*
X84687524Y-138217476D01*
X84673548Y-138200445D01*
X84663160Y-138181009D01*
X84656764Y-138159928D01*
X84654000Y-138131860D01*
X84654000Y-136318140D01*
X84656764Y-136290072D01*
X84663160Y-136268991D01*
X84673548Y-136249555D01*
X84687524Y-136232524D01*
X84704555Y-136218548D01*
X84723991Y-136208160D01*
X84745072Y-136201764D01*
X84773140Y-136199000D01*
X85236860Y-136199000D01*
X85264928Y-136201764D01*
G37*
G36*
X82724928Y-136201764D02*
G01*
X82746009Y-136208160D01*
X82765445Y-136218548D01*
X82782476Y-136232524D01*
X82796452Y-136249555D01*
X82806840Y-136268991D01*
X82813236Y-136290072D01*
X82816000Y-136318140D01*
X82816000Y-138131860D01*
X82813236Y-138159928D01*
X82806840Y-138181009D01*
X82796452Y-138200445D01*
X82782476Y-138217476D01*
X82765445Y-138231452D01*
X82746009Y-138241840D01*
X82724928Y-138248236D01*
X82696860Y-138251000D01*
X82233140Y-138251000D01*
X82205072Y-138248236D01*
X82183991Y-138241840D01*
X82164555Y-138231452D01*
X82147524Y-138217476D01*
X82133548Y-138200445D01*
X82123160Y-138181009D01*
X82116764Y-138159928D01*
X82114000Y-138131860D01*
X82114000Y-136318140D01*
X82116764Y-136290072D01*
X82123160Y-136268991D01*
X82133548Y-136249555D01*
X82147524Y-136232524D01*
X82164555Y-136218548D01*
X82183991Y-136208160D01*
X82205072Y-136201764D01*
X82233140Y-136199000D01*
X82696860Y-136199000D01*
X82724928Y-136201764D01*
G37*
G36*
X81454928Y-136201764D02*
G01*
X81476009Y-136208160D01*
X81495445Y-136218548D01*
X81512476Y-136232524D01*
X81526452Y-136249555D01*
X81536840Y-136268991D01*
X81543236Y-136290072D01*
X81546000Y-136318140D01*
X81546000Y-138131860D01*
X81543236Y-138159928D01*
X81536840Y-138181009D01*
X81526452Y-138200445D01*
X81512476Y-138217476D01*
X81495445Y-138231452D01*
X81476009Y-138241840D01*
X81454928Y-138248236D01*
X81426860Y-138251000D01*
X80963140Y-138251000D01*
X80935072Y-138248236D01*
X80913991Y-138241840D01*
X80894555Y-138231452D01*
X80877524Y-138217476D01*
X80863548Y-138200445D01*
X80853160Y-138181009D01*
X80846764Y-138159928D01*
X80844000Y-138131860D01*
X80844000Y-136318140D01*
X80846764Y-136290072D01*
X80853160Y-136268991D01*
X80863548Y-136249555D01*
X80877524Y-136232524D01*
X80894555Y-136218548D01*
X80913991Y-136208160D01*
X80935072Y-136201764D01*
X80963140Y-136199000D01*
X81426860Y-136199000D01*
X81454928Y-136201764D01*
G37*
G36*
X109884468Y-136903565D02*
G01*
X109923138Y-136915296D01*
X109958777Y-136934346D01*
X109990017Y-136959983D01*
X110015654Y-136991223D01*
X110034704Y-137026862D01*
X110046435Y-137065532D01*
X110051000Y-137111888D01*
X110051000Y-137763112D01*
X110046435Y-137809468D01*
X110034704Y-137848138D01*
X110015654Y-137883777D01*
X109990017Y-137915017D01*
X109958777Y-137940654D01*
X109923138Y-137959704D01*
X109884468Y-137971435D01*
X109838112Y-137976000D01*
X108761888Y-137976000D01*
X108715532Y-137971435D01*
X108676862Y-137959704D01*
X108641223Y-137940654D01*
X108609983Y-137915017D01*
X108584346Y-137883777D01*
X108565296Y-137848138D01*
X108553565Y-137809468D01*
X108549000Y-137763112D01*
X108549000Y-137111888D01*
X108553565Y-137065532D01*
X108565296Y-137026862D01*
X108584346Y-136991223D01*
X108609983Y-136959983D01*
X108641223Y-136934346D01*
X108676862Y-136915296D01*
X108715532Y-136903565D01*
X108761888Y-136899000D01*
X109838112Y-136899000D01*
X109884468Y-136903565D01*
G37*
G36*
X91884468Y-136828565D02*
G01*
X91923138Y-136840296D01*
X91958777Y-136859346D01*
X91990017Y-136884983D01*
X92015654Y-136916223D01*
X92034704Y-136951862D01*
X92046435Y-136990532D01*
X92051000Y-137036888D01*
X92051000Y-137688112D01*
X92046435Y-137734468D01*
X92034704Y-137773138D01*
X92015654Y-137808777D01*
X91990017Y-137840017D01*
X91958777Y-137865654D01*
X91923138Y-137884704D01*
X91884468Y-137896435D01*
X91838112Y-137901000D01*
X90761888Y-137901000D01*
X90715532Y-137896435D01*
X90676862Y-137884704D01*
X90641223Y-137865654D01*
X90609983Y-137840017D01*
X90584346Y-137808777D01*
X90565296Y-137773138D01*
X90553565Y-137734468D01*
X90549000Y-137688112D01*
X90549000Y-137036888D01*
X90553565Y-136990532D01*
X90565296Y-136951862D01*
X90584346Y-136916223D01*
X90609983Y-136884983D01*
X90641223Y-136859346D01*
X90676862Y-136840296D01*
X90715532Y-136828565D01*
X90761888Y-136824000D01*
X91838112Y-136824000D01*
X91884468Y-136828565D01*
G37*
G36*
X94084468Y-136828565D02*
G01*
X94123138Y-136840296D01*
X94158777Y-136859346D01*
X94190017Y-136884983D01*
X94215654Y-136916223D01*
X94234704Y-136951862D01*
X94246435Y-136990532D01*
X94251000Y-137036888D01*
X94251000Y-137688112D01*
X94246435Y-137734468D01*
X94234704Y-137773138D01*
X94215654Y-137808777D01*
X94190017Y-137840017D01*
X94158777Y-137865654D01*
X94123138Y-137884704D01*
X94084468Y-137896435D01*
X94038112Y-137901000D01*
X92961888Y-137901000D01*
X92915532Y-137896435D01*
X92876862Y-137884704D01*
X92841223Y-137865654D01*
X92809983Y-137840017D01*
X92784346Y-137808777D01*
X92765296Y-137773138D01*
X92753565Y-137734468D01*
X92749000Y-137688112D01*
X92749000Y-137036888D01*
X92753565Y-136990532D01*
X92765296Y-136951862D01*
X92784346Y-136916223D01*
X92809983Y-136884983D01*
X92841223Y-136859346D01*
X92876862Y-136840296D01*
X92915532Y-136828565D01*
X92961888Y-136824000D01*
X94038112Y-136824000D01*
X94084468Y-136828565D01*
G37*
G36*
X103984468Y-135903565D02*
G01*
X104023138Y-135915296D01*
X104058777Y-135934346D01*
X104090017Y-135959983D01*
X104115654Y-135991223D01*
X104134704Y-136026862D01*
X104146435Y-136065532D01*
X104151000Y-136111888D01*
X104151000Y-136763112D01*
X104146435Y-136809468D01*
X104134704Y-136848138D01*
X104115654Y-136883777D01*
X104090017Y-136915017D01*
X104058777Y-136940654D01*
X104023138Y-136959704D01*
X103984468Y-136971435D01*
X103938112Y-136976000D01*
X102861888Y-136976000D01*
X102815532Y-136971435D01*
X102776862Y-136959704D01*
X102741223Y-136940654D01*
X102709983Y-136915017D01*
X102684346Y-136883777D01*
X102665296Y-136848138D01*
X102653565Y-136809468D01*
X102649000Y-136763112D01*
X102649000Y-136111888D01*
X102653565Y-136065532D01*
X102665296Y-136026862D01*
X102684346Y-135991223D01*
X102709983Y-135959983D01*
X102741223Y-135934346D01*
X102776862Y-135915296D01*
X102815532Y-135903565D01*
X102861888Y-135899000D01*
X103938112Y-135899000D01*
X103984468Y-135903565D01*
G37*
G36*
X106784468Y-135903565D02*
G01*
X106823138Y-135915296D01*
X106858777Y-135934346D01*
X106890017Y-135959983D01*
X106915654Y-135991223D01*
X106934704Y-136026862D01*
X106946435Y-136065532D01*
X106951000Y-136111888D01*
X106951000Y-136763112D01*
X106946435Y-136809468D01*
X106934704Y-136848138D01*
X106915654Y-136883777D01*
X106890017Y-136915017D01*
X106858777Y-136940654D01*
X106823138Y-136959704D01*
X106784468Y-136971435D01*
X106738112Y-136976000D01*
X105661888Y-136976000D01*
X105615532Y-136971435D01*
X105576862Y-136959704D01*
X105541223Y-136940654D01*
X105509983Y-136915017D01*
X105484346Y-136883777D01*
X105465296Y-136848138D01*
X105453565Y-136809468D01*
X105449000Y-136763112D01*
X105449000Y-136111888D01*
X105453565Y-136065532D01*
X105465296Y-136026862D01*
X105484346Y-135991223D01*
X105509983Y-135959983D01*
X105541223Y-135934346D01*
X105576862Y-135915296D01*
X105615532Y-135903565D01*
X105661888Y-135899000D01*
X106738112Y-135899000D01*
X106784468Y-135903565D01*
G37*
G36*
X118813512Y-134843927D02*
G01*
X118962812Y-134873624D01*
X119126784Y-134941544D01*
X119274354Y-135040147D01*
X119399853Y-135165646D01*
X119498456Y-135313216D01*
X119566376Y-135477188D01*
X119596073Y-135626488D01*
X119601000Y-135651258D01*
X119601000Y-135828742D01*
X119596073Y-135853512D01*
X119566376Y-136002812D01*
X119498456Y-136166784D01*
X119399853Y-136314354D01*
X119274354Y-136439853D01*
X119126784Y-136538456D01*
X118962812Y-136606376D01*
X118813512Y-136636073D01*
X118788742Y-136641000D01*
X118611258Y-136641000D01*
X118586488Y-136636073D01*
X118437188Y-136606376D01*
X118273216Y-136538456D01*
X118125646Y-136439853D01*
X118000147Y-136314354D01*
X117901544Y-136166784D01*
X117833624Y-136002812D01*
X117803927Y-135853512D01*
X117799000Y-135828742D01*
X117799000Y-135651258D01*
X117803927Y-135626488D01*
X117833624Y-135477188D01*
X117901544Y-135313216D01*
X118000147Y-135165646D01*
X118125646Y-135040147D01*
X118273216Y-134941544D01*
X118437188Y-134873624D01*
X118586488Y-134843927D01*
X118611258Y-134839000D01*
X118788742Y-134839000D01*
X118813512Y-134843927D01*
G37*
G36*
X115709468Y-134953565D02*
G01*
X115748138Y-134965296D01*
X115783777Y-134984346D01*
X115815017Y-135009983D01*
X115840654Y-135041223D01*
X115859704Y-135076862D01*
X115871435Y-135115532D01*
X115876000Y-135161888D01*
X115876000Y-136238112D01*
X115871435Y-136284468D01*
X115859704Y-136323138D01*
X115840654Y-136358777D01*
X115815017Y-136390017D01*
X115783777Y-136415654D01*
X115748138Y-136434704D01*
X115709468Y-136446435D01*
X115663112Y-136451000D01*
X115011888Y-136451000D01*
X114965532Y-136446435D01*
X114926862Y-136434704D01*
X114891223Y-136415654D01*
X114859983Y-136390017D01*
X114834346Y-136358777D01*
X114815296Y-136323138D01*
X114803565Y-136284468D01*
X114799000Y-136238112D01*
X114799000Y-135161888D01*
X114803565Y-135115532D01*
X114815296Y-135076862D01*
X114834346Y-135041223D01*
X114859983Y-135009983D01*
X114891223Y-134984346D01*
X114926862Y-134965296D01*
X114965532Y-134953565D01*
X115011888Y-134949000D01*
X115663112Y-134949000D01*
X115709468Y-134953565D01*
G37*
G36*
X113834468Y-134953565D02*
G01*
X113873138Y-134965296D01*
X113908777Y-134984346D01*
X113940017Y-135009983D01*
X113965654Y-135041223D01*
X113984704Y-135076862D01*
X113996435Y-135115532D01*
X114001000Y-135161888D01*
X114001000Y-136238112D01*
X113996435Y-136284468D01*
X113984704Y-136323138D01*
X113965654Y-136358777D01*
X113940017Y-136390017D01*
X113908777Y-136415654D01*
X113873138Y-136434704D01*
X113834468Y-136446435D01*
X113788112Y-136451000D01*
X113136888Y-136451000D01*
X113090532Y-136446435D01*
X113051862Y-136434704D01*
X113016223Y-136415654D01*
X112984983Y-136390017D01*
X112959346Y-136358777D01*
X112940296Y-136323138D01*
X112928565Y-136284468D01*
X112924000Y-136238112D01*
X112924000Y-135161888D01*
X112928565Y-135115532D01*
X112940296Y-135076862D01*
X112959346Y-135041223D01*
X112984983Y-135009983D01*
X113016223Y-134984346D01*
X113051862Y-134965296D01*
X113090532Y-134953565D01*
X113136888Y-134949000D01*
X113788112Y-134949000D01*
X113834468Y-134953565D01*
G37*
G36*
X109884468Y-135028565D02*
G01*
X109923138Y-135040296D01*
X109958777Y-135059346D01*
X109990017Y-135084983D01*
X110015654Y-135116223D01*
X110034704Y-135151862D01*
X110046435Y-135190532D01*
X110051000Y-135236888D01*
X110051000Y-135888112D01*
X110046435Y-135934468D01*
X110034704Y-135973138D01*
X110015654Y-136008777D01*
X109990017Y-136040017D01*
X109958777Y-136065654D01*
X109923138Y-136084704D01*
X109884468Y-136096435D01*
X109838112Y-136101000D01*
X108761888Y-136101000D01*
X108715532Y-136096435D01*
X108676862Y-136084704D01*
X108641223Y-136065654D01*
X108609983Y-136040017D01*
X108584346Y-136008777D01*
X108565296Y-135973138D01*
X108553565Y-135934468D01*
X108549000Y-135888112D01*
X108549000Y-135236888D01*
X108553565Y-135190532D01*
X108565296Y-135151862D01*
X108584346Y-135116223D01*
X108609983Y-135084983D01*
X108641223Y-135059346D01*
X108676862Y-135040296D01*
X108715532Y-135028565D01*
X108761888Y-135024000D01*
X109838112Y-135024000D01*
X109884468Y-135028565D01*
G37*
G36*
X101309468Y-133953565D02*
G01*
X101348138Y-133965296D01*
X101383777Y-133984346D01*
X101415017Y-134009983D01*
X101440654Y-134041223D01*
X101459704Y-134076862D01*
X101471435Y-134115532D01*
X101476000Y-134161888D01*
X101476000Y-135238112D01*
X101471435Y-135284468D01*
X101459704Y-135323138D01*
X101440654Y-135358777D01*
X101415017Y-135390017D01*
X101383777Y-135415654D01*
X101348138Y-135434704D01*
X101309468Y-135446435D01*
X101263112Y-135451000D01*
X100611888Y-135451000D01*
X100565532Y-135446435D01*
X100526862Y-135434704D01*
X100491223Y-135415654D01*
X100459983Y-135390017D01*
X100434346Y-135358777D01*
X100415296Y-135323138D01*
X100403565Y-135284468D01*
X100399000Y-135238112D01*
X100399000Y-134161888D01*
X100403565Y-134115532D01*
X100415296Y-134076862D01*
X100434346Y-134041223D01*
X100459983Y-134009983D01*
X100491223Y-133984346D01*
X100526862Y-133965296D01*
X100565532Y-133953565D01*
X100611888Y-133949000D01*
X101263112Y-133949000D01*
X101309468Y-133953565D01*
G37*
G36*
X99434468Y-133953565D02*
G01*
X99473138Y-133965296D01*
X99508777Y-133984346D01*
X99540017Y-134009983D01*
X99565654Y-134041223D01*
X99584704Y-134076862D01*
X99596435Y-134115532D01*
X99601000Y-134161888D01*
X99601000Y-135238112D01*
X99596435Y-135284468D01*
X99584704Y-135323138D01*
X99565654Y-135358777D01*
X99540017Y-135390017D01*
X99508777Y-135415654D01*
X99473138Y-135434704D01*
X99434468Y-135446435D01*
X99388112Y-135451000D01*
X98736888Y-135451000D01*
X98690532Y-135446435D01*
X98651862Y-135434704D01*
X98616223Y-135415654D01*
X98584983Y-135390017D01*
X98559346Y-135358777D01*
X98540296Y-135323138D01*
X98528565Y-135284468D01*
X98524000Y-135238112D01*
X98524000Y-134161888D01*
X98528565Y-134115532D01*
X98540296Y-134076862D01*
X98559346Y-134041223D01*
X98584983Y-134009983D01*
X98616223Y-133984346D01*
X98651862Y-133965296D01*
X98690532Y-133953565D01*
X98736888Y-133949000D01*
X99388112Y-133949000D01*
X99434468Y-133953565D01*
G37*
G36*
X97309468Y-133953565D02*
G01*
X97348138Y-133965296D01*
X97383777Y-133984346D01*
X97415017Y-134009983D01*
X97440654Y-134041223D01*
X97459704Y-134076862D01*
X97471435Y-134115532D01*
X97476000Y-134161888D01*
X97476000Y-135238112D01*
X97471435Y-135284468D01*
X97459704Y-135323138D01*
X97440654Y-135358777D01*
X97415017Y-135390017D01*
X97383777Y-135415654D01*
X97348138Y-135434704D01*
X97309468Y-135446435D01*
X97263112Y-135451000D01*
X96611888Y-135451000D01*
X96565532Y-135446435D01*
X96526862Y-135434704D01*
X96491223Y-135415654D01*
X96459983Y-135390017D01*
X96434346Y-135358777D01*
X96415296Y-135323138D01*
X96403565Y-135284468D01*
X96399000Y-135238112D01*
X96399000Y-134161888D01*
X96403565Y-134115532D01*
X96415296Y-134076862D01*
X96434346Y-134041223D01*
X96459983Y-134009983D01*
X96491223Y-133984346D01*
X96526862Y-133965296D01*
X96565532Y-133953565D01*
X96611888Y-133949000D01*
X97263112Y-133949000D01*
X97309468Y-133953565D01*
G37*
G36*
X95434468Y-133953565D02*
G01*
X95473138Y-133965296D01*
X95508777Y-133984346D01*
X95540017Y-134009983D01*
X95565654Y-134041223D01*
X95584704Y-134076862D01*
X95596435Y-134115532D01*
X95601000Y-134161888D01*
X95601000Y-135238112D01*
X95596435Y-135284468D01*
X95584704Y-135323138D01*
X95565654Y-135358777D01*
X95540017Y-135390017D01*
X95508777Y-135415654D01*
X95473138Y-135434704D01*
X95434468Y-135446435D01*
X95388112Y-135451000D01*
X94736888Y-135451000D01*
X94690532Y-135446435D01*
X94651862Y-135434704D01*
X94616223Y-135415654D01*
X94584983Y-135390017D01*
X94559346Y-135358777D01*
X94540296Y-135323138D01*
X94528565Y-135284468D01*
X94524000Y-135238112D01*
X94524000Y-134161888D01*
X94528565Y-134115532D01*
X94540296Y-134076862D01*
X94559346Y-134041223D01*
X94584983Y-134009983D01*
X94616223Y-133984346D01*
X94651862Y-133965296D01*
X94690532Y-133953565D01*
X94736888Y-133949000D01*
X95388112Y-133949000D01*
X95434468Y-133953565D01*
G37*
G36*
X106784468Y-134028565D02*
G01*
X106823138Y-134040296D01*
X106858777Y-134059346D01*
X106890017Y-134084983D01*
X106915654Y-134116223D01*
X106934704Y-134151862D01*
X106946435Y-134190532D01*
X106951000Y-134236888D01*
X106951000Y-134888112D01*
X106946435Y-134934468D01*
X106934704Y-134973138D01*
X106915654Y-135008777D01*
X106890017Y-135040017D01*
X106858777Y-135065654D01*
X106823138Y-135084704D01*
X106784468Y-135096435D01*
X106738112Y-135101000D01*
X105661888Y-135101000D01*
X105615532Y-135096435D01*
X105576862Y-135084704D01*
X105541223Y-135065654D01*
X105509983Y-135040017D01*
X105484346Y-135008777D01*
X105465296Y-134973138D01*
X105453565Y-134934468D01*
X105449000Y-134888112D01*
X105449000Y-134236888D01*
X105453565Y-134190532D01*
X105465296Y-134151862D01*
X105484346Y-134116223D01*
X105509983Y-134084983D01*
X105541223Y-134059346D01*
X105576862Y-134040296D01*
X105615532Y-134028565D01*
X105661888Y-134024000D01*
X106738112Y-134024000D01*
X106784468Y-134028565D01*
G37*
G36*
X103984468Y-134028565D02*
G01*
X104023138Y-134040296D01*
X104058777Y-134059346D01*
X104090017Y-134084983D01*
X104115654Y-134116223D01*
X104134704Y-134151862D01*
X104146435Y-134190532D01*
X104151000Y-134236888D01*
X104151000Y-134888112D01*
X104146435Y-134934468D01*
X104134704Y-134973138D01*
X104115654Y-135008777D01*
X104090017Y-135040017D01*
X104058777Y-135065654D01*
X104023138Y-135084704D01*
X103984468Y-135096435D01*
X103938112Y-135101000D01*
X102861888Y-135101000D01*
X102815532Y-135096435D01*
X102776862Y-135084704D01*
X102741223Y-135065654D01*
X102709983Y-135040017D01*
X102684346Y-135008777D01*
X102665296Y-134973138D01*
X102653565Y-134934468D01*
X102649000Y-134888112D01*
X102649000Y-134236888D01*
X102653565Y-134190532D01*
X102665296Y-134151862D01*
X102684346Y-134116223D01*
X102709983Y-134084983D01*
X102741223Y-134059346D01*
X102776862Y-134040296D01*
X102815532Y-134028565D01*
X102861888Y-134024000D01*
X103938112Y-134024000D01*
X103984468Y-134028565D01*
G37*
G36*
X85709468Y-133253565D02*
G01*
X85748138Y-133265296D01*
X85783777Y-133284346D01*
X85815017Y-133309983D01*
X85840654Y-133341223D01*
X85859704Y-133376862D01*
X85871435Y-133415532D01*
X85876000Y-133461888D01*
X85876000Y-134538112D01*
X85871435Y-134584468D01*
X85859704Y-134623138D01*
X85840654Y-134658777D01*
X85815017Y-134690017D01*
X85783777Y-134715654D01*
X85748138Y-134734704D01*
X85709468Y-134746435D01*
X85663112Y-134751000D01*
X85011888Y-134751000D01*
X84965532Y-134746435D01*
X84926862Y-134734704D01*
X84891223Y-134715654D01*
X84859983Y-134690017D01*
X84834346Y-134658777D01*
X84815296Y-134623138D01*
X84803565Y-134584468D01*
X84799000Y-134538112D01*
X84799000Y-133461888D01*
X84803565Y-133415532D01*
X84815296Y-133376862D01*
X84834346Y-133341223D01*
X84859983Y-133309983D01*
X84891223Y-133284346D01*
X84926862Y-133265296D01*
X84965532Y-133253565D01*
X85011888Y-133249000D01*
X85663112Y-133249000D01*
X85709468Y-133253565D01*
G37*
G36*
X83834468Y-133253565D02*
G01*
X83873138Y-133265296D01*
X83908777Y-133284346D01*
X83940017Y-133309983D01*
X83965654Y-133341223D01*
X83984704Y-133376862D01*
X83996435Y-133415532D01*
X84001000Y-133461888D01*
X84001000Y-134538112D01*
X83996435Y-134584468D01*
X83984704Y-134623138D01*
X83965654Y-134658777D01*
X83940017Y-134690017D01*
X83908777Y-134715654D01*
X83873138Y-134734704D01*
X83834468Y-134746435D01*
X83788112Y-134751000D01*
X83136888Y-134751000D01*
X83090532Y-134746435D01*
X83051862Y-134734704D01*
X83016223Y-134715654D01*
X82984983Y-134690017D01*
X82959346Y-134658777D01*
X82940296Y-134623138D01*
X82928565Y-134584468D01*
X82924000Y-134538112D01*
X82924000Y-133461888D01*
X82928565Y-133415532D01*
X82940296Y-133376862D01*
X82959346Y-133341223D01*
X82984983Y-133309983D01*
X83016223Y-133284346D01*
X83051862Y-133265296D01*
X83090532Y-133253565D01*
X83136888Y-133249000D01*
X83788112Y-133249000D01*
X83834468Y-133253565D01*
G37*
G36*
X119601000Y-134101000D02*
G01*
X117799000Y-134101000D01*
X117799000Y-132299000D01*
X119601000Y-132299000D01*
X119601000Y-134101000D01*
G37*
G36*
X115584468Y-132403565D02*
G01*
X115623138Y-132415296D01*
X115658777Y-132434346D01*
X115690017Y-132459983D01*
X115715654Y-132491223D01*
X115734704Y-132526862D01*
X115746435Y-132565532D01*
X115751000Y-132611888D01*
X115751000Y-133263112D01*
X115746435Y-133309468D01*
X115734704Y-133348138D01*
X115715654Y-133383777D01*
X115690017Y-133415017D01*
X115658777Y-133440654D01*
X115623138Y-133459704D01*
X115584468Y-133471435D01*
X115538112Y-133476000D01*
X114461888Y-133476000D01*
X114415532Y-133471435D01*
X114376862Y-133459704D01*
X114341223Y-133440654D01*
X114309983Y-133415017D01*
X114284346Y-133383777D01*
X114265296Y-133348138D01*
X114253565Y-133309468D01*
X114249000Y-133263112D01*
X114249000Y-132611888D01*
X114253565Y-132565532D01*
X114265296Y-132526862D01*
X114284346Y-132491223D01*
X114309983Y-132459983D01*
X114341223Y-132434346D01*
X114376862Y-132415296D01*
X114415532Y-132403565D01*
X114461888Y-132399000D01*
X115538112Y-132399000D01*
X115584468Y-132403565D01*
G37*
G36*
X103334468Y-131553565D02*
G01*
X103373138Y-131565296D01*
X103408777Y-131584346D01*
X103440017Y-131609983D01*
X103465654Y-131641223D01*
X103484704Y-131676862D01*
X103496435Y-131715532D01*
X103501000Y-131761888D01*
X103501000Y-132838112D01*
X103496435Y-132884468D01*
X103484704Y-132923138D01*
X103465654Y-132958777D01*
X103440017Y-132990017D01*
X103408777Y-133015654D01*
X103373138Y-133034704D01*
X103334468Y-133046435D01*
X103288112Y-133051000D01*
X102636888Y-133051000D01*
X102590532Y-133046435D01*
X102551862Y-133034704D01*
X102516223Y-133015654D01*
X102484983Y-132990017D01*
X102459346Y-132958777D01*
X102440296Y-132923138D01*
X102428565Y-132884468D01*
X102424000Y-132838112D01*
X102424000Y-131761888D01*
X102428565Y-131715532D01*
X102440296Y-131676862D01*
X102459346Y-131641223D01*
X102484983Y-131609983D01*
X102516223Y-131584346D01*
X102551862Y-131565296D01*
X102590532Y-131553565D01*
X102636888Y-131549000D01*
X103288112Y-131549000D01*
X103334468Y-131553565D01*
G37*
G36*
X105209468Y-131553565D02*
G01*
X105248138Y-131565296D01*
X105283777Y-131584346D01*
X105315017Y-131609983D01*
X105340654Y-131641223D01*
X105359704Y-131676862D01*
X105371435Y-131715532D01*
X105376000Y-131761888D01*
X105376000Y-132838112D01*
X105371435Y-132884468D01*
X105359704Y-132923138D01*
X105340654Y-132958777D01*
X105315017Y-132990017D01*
X105283777Y-133015654D01*
X105248138Y-133034704D01*
X105209468Y-133046435D01*
X105163112Y-133051000D01*
X104511888Y-133051000D01*
X104465532Y-133046435D01*
X104426862Y-133034704D01*
X104391223Y-133015654D01*
X104359983Y-132990017D01*
X104334346Y-132958777D01*
X104315296Y-132923138D01*
X104303565Y-132884468D01*
X104299000Y-132838112D01*
X104299000Y-131761888D01*
X104303565Y-131715532D01*
X104315296Y-131676862D01*
X104334346Y-131641223D01*
X104359983Y-131609983D01*
X104391223Y-131584346D01*
X104426862Y-131565296D01*
X104465532Y-131553565D01*
X104511888Y-131549000D01*
X105163112Y-131549000D01*
X105209468Y-131553565D01*
G37*
G36*
X99734468Y-131553565D02*
G01*
X99773138Y-131565296D01*
X99808777Y-131584346D01*
X99840017Y-131609983D01*
X99865654Y-131641223D01*
X99884704Y-131676862D01*
X99896435Y-131715532D01*
X99901000Y-131761888D01*
X99901000Y-132838112D01*
X99896435Y-132884468D01*
X99884704Y-132923138D01*
X99865654Y-132958777D01*
X99840017Y-132990017D01*
X99808777Y-133015654D01*
X99773138Y-133034704D01*
X99734468Y-133046435D01*
X99688112Y-133051000D01*
X99036888Y-133051000D01*
X98990532Y-133046435D01*
X98951862Y-133034704D01*
X98916223Y-133015654D01*
X98884983Y-132990017D01*
X98859346Y-132958777D01*
X98840296Y-132923138D01*
X98828565Y-132884468D01*
X98824000Y-132838112D01*
X98824000Y-131761888D01*
X98828565Y-131715532D01*
X98840296Y-131676862D01*
X98859346Y-131641223D01*
X98884983Y-131609983D01*
X98916223Y-131584346D01*
X98951862Y-131565296D01*
X98990532Y-131553565D01*
X99036888Y-131549000D01*
X99688112Y-131549000D01*
X99734468Y-131553565D01*
G37*
G36*
X101609468Y-131553565D02*
G01*
X101648138Y-131565296D01*
X101683777Y-131584346D01*
X101715017Y-131609983D01*
X101740654Y-131641223D01*
X101759704Y-131676862D01*
X101771435Y-131715532D01*
X101776000Y-131761888D01*
X101776000Y-132838112D01*
X101771435Y-132884468D01*
X101759704Y-132923138D01*
X101740654Y-132958777D01*
X101715017Y-132990017D01*
X101683777Y-133015654D01*
X101648138Y-133034704D01*
X101609468Y-133046435D01*
X101563112Y-133051000D01*
X100911888Y-133051000D01*
X100865532Y-133046435D01*
X100826862Y-133034704D01*
X100791223Y-133015654D01*
X100759983Y-132990017D01*
X100734346Y-132958777D01*
X100715296Y-132923138D01*
X100703565Y-132884468D01*
X100699000Y-132838112D01*
X100699000Y-131761888D01*
X100703565Y-131715532D01*
X100715296Y-131676862D01*
X100734346Y-131641223D01*
X100759983Y-131609983D01*
X100791223Y-131584346D01*
X100826862Y-131565296D01*
X100865532Y-131553565D01*
X100911888Y-131549000D01*
X101563112Y-131549000D01*
X101609468Y-131553565D01*
G37*
G36*
X110590306Y-128984346D02*
G01*
X110731579Y-129012447D01*
X110801050Y-129041223D01*
X110979676Y-129115212D01*
X111032042Y-129136903D01*
X111302451Y-129317585D01*
X111532415Y-129547549D01*
X111713097Y-129817958D01*
X111837553Y-130118421D01*
X111851541Y-130188742D01*
X111901000Y-130437389D01*
X111901000Y-130762611D01*
X111868344Y-130926782D01*
X111837553Y-131081579D01*
X111788562Y-131199853D01*
X111719587Y-131366375D01*
X111713097Y-131382042D01*
X111532415Y-131652451D01*
X111302451Y-131882415D01*
X111032042Y-132063097D01*
X110731579Y-132187553D01*
X110625256Y-132208702D01*
X110412611Y-132251000D01*
X110087389Y-132251000D01*
X109874744Y-132208702D01*
X109768421Y-132187553D01*
X109467958Y-132063097D01*
X109197549Y-131882415D01*
X108967585Y-131652451D01*
X108786903Y-131382042D01*
X108780414Y-131366375D01*
X108711438Y-131199853D01*
X108662447Y-131081579D01*
X108631656Y-130926782D01*
X108599000Y-130762611D01*
X108599000Y-130437389D01*
X108648459Y-130188742D01*
X108662447Y-130118421D01*
X108786903Y-129817958D01*
X108967585Y-129547549D01*
X109197549Y-129317585D01*
X109467958Y-129136903D01*
X109520325Y-129115212D01*
X109698950Y-129041223D01*
X109768421Y-129012447D01*
X109909694Y-128984346D01*
X110087389Y-128949000D01*
X110412611Y-128949000D01*
X110590306Y-128984346D01*
G37*
G36*
X90090306Y-128984346D02*
G01*
X90231579Y-129012447D01*
X90301050Y-129041223D01*
X90479676Y-129115212D01*
X90532042Y-129136903D01*
X90802451Y-129317585D01*
X91032415Y-129547549D01*
X91213097Y-129817958D01*
X91337553Y-130118421D01*
X91351541Y-130188742D01*
X91401000Y-130437389D01*
X91401000Y-130762611D01*
X91368344Y-130926782D01*
X91337553Y-131081579D01*
X91288562Y-131199853D01*
X91219587Y-131366375D01*
X91213097Y-131382042D01*
X91032415Y-131652451D01*
X90802451Y-131882415D01*
X90532042Y-132063097D01*
X90231579Y-132187553D01*
X90125256Y-132208702D01*
X89912611Y-132251000D01*
X89587389Y-132251000D01*
X89374744Y-132208702D01*
X89268421Y-132187553D01*
X88967958Y-132063097D01*
X88697549Y-131882415D01*
X88467585Y-131652451D01*
X88286903Y-131382042D01*
X88280414Y-131366375D01*
X88211438Y-131199853D01*
X88162447Y-131081579D01*
X88131656Y-130926782D01*
X88099000Y-130762611D01*
X88099000Y-130437389D01*
X88148459Y-130188742D01*
X88162447Y-130118421D01*
X88286903Y-129817958D01*
X88467585Y-129547549D01*
X88697549Y-129317585D01*
X88967958Y-129136903D01*
X89020325Y-129115212D01*
X89198950Y-129041223D01*
X89268421Y-129012447D01*
X89409694Y-128984346D01*
X89587389Y-128949000D01*
X89912611Y-128949000D01*
X90090306Y-128984346D01*
G37*
G36*
X115584468Y-130528565D02*
G01*
X115623138Y-130540296D01*
X115658777Y-130559346D01*
X115690017Y-130584983D01*
X115715654Y-130616223D01*
X115734704Y-130651862D01*
X115746435Y-130690532D01*
X115751000Y-130736888D01*
X115751000Y-131388112D01*
X115746435Y-131434468D01*
X115734704Y-131473138D01*
X115715654Y-131508777D01*
X115690017Y-131540017D01*
X115658777Y-131565654D01*
X115623138Y-131584704D01*
X115584468Y-131596435D01*
X115538112Y-131601000D01*
X114461888Y-131601000D01*
X114415532Y-131596435D01*
X114376862Y-131584704D01*
X114341223Y-131565654D01*
X114309983Y-131540017D01*
X114284346Y-131508777D01*
X114265296Y-131473138D01*
X114253565Y-131434468D01*
X114249000Y-131388112D01*
X114249000Y-130736888D01*
X114253565Y-130690532D01*
X114265296Y-130651862D01*
X114284346Y-130616223D01*
X114309983Y-130584983D01*
X114341223Y-130559346D01*
X114376862Y-130540296D01*
X114415532Y-130528565D01*
X114461888Y-130524000D01*
X115538112Y-130524000D01*
X115584468Y-130528565D01*
G37*
G36*
X85001000Y-131401000D02*
G01*
X83199000Y-131401000D01*
X83199000Y-129599000D01*
X85001000Y-129599000D01*
X85001000Y-131401000D01*
G37*
G36*
X81673512Y-129603927D02*
G01*
X81822812Y-129633624D01*
X81986784Y-129701544D01*
X82134354Y-129800147D01*
X82259853Y-129925646D01*
X82358456Y-130073216D01*
X82426376Y-130237188D01*
X82453219Y-130372139D01*
X82461000Y-130411258D01*
X82461000Y-130588742D01*
X82456073Y-130613512D01*
X82426376Y-130762812D01*
X82358456Y-130926784D01*
X82259853Y-131074354D01*
X82134354Y-131199853D01*
X81986784Y-131298456D01*
X81822812Y-131366376D01*
X81673512Y-131396073D01*
X81648742Y-131401000D01*
X81471258Y-131401000D01*
X81446488Y-131396073D01*
X81297188Y-131366376D01*
X81133216Y-131298456D01*
X80985646Y-131199853D01*
X80860147Y-131074354D01*
X80761544Y-130926784D01*
X80693624Y-130762812D01*
X80663927Y-130613512D01*
X80659000Y-130588742D01*
X80659000Y-130411258D01*
X80666781Y-130372139D01*
X80693624Y-130237188D01*
X80761544Y-130073216D01*
X80860147Y-129925646D01*
X80985646Y-129800147D01*
X81133216Y-129701544D01*
X81297188Y-129633624D01*
X81446488Y-129603927D01*
X81471258Y-129599000D01*
X81648742Y-129599000D01*
X81673512Y-129603927D01*
G37*
G36*
X103923512Y-129203927D02*
G01*
X104072812Y-129233624D01*
X104236784Y-129301544D01*
X104384354Y-129400147D01*
X104509853Y-129525646D01*
X104608456Y-129673216D01*
X104676376Y-129837188D01*
X104711000Y-130011259D01*
X104711000Y-130188741D01*
X104676376Y-130362812D01*
X104608456Y-130526784D01*
X104509853Y-130674354D01*
X104384354Y-130799853D01*
X104236784Y-130898456D01*
X104072812Y-130966376D01*
X103923512Y-130996073D01*
X103898742Y-131001000D01*
X103721258Y-131001000D01*
X103696488Y-130996073D01*
X103547188Y-130966376D01*
X103383216Y-130898456D01*
X103235646Y-130799853D01*
X103110147Y-130674354D01*
X103011544Y-130526784D01*
X102943624Y-130362812D01*
X102909000Y-130188741D01*
X102909000Y-130011259D01*
X102943624Y-129837188D01*
X103011544Y-129673216D01*
X103110147Y-129525646D01*
X103235646Y-129400147D01*
X103383216Y-129301544D01*
X103547188Y-129233624D01*
X103696488Y-129203927D01*
X103721258Y-129199000D01*
X103898742Y-129199000D01*
X103923512Y-129203927D01*
G37*
G36*
X101383512Y-129203927D02*
G01*
X101532812Y-129233624D01*
X101696784Y-129301544D01*
X101844354Y-129400147D01*
X101969853Y-129525646D01*
X102068456Y-129673216D01*
X102136376Y-129837188D01*
X102171000Y-130011259D01*
X102171000Y-130188741D01*
X102136376Y-130362812D01*
X102068456Y-130526784D01*
X101969853Y-130674354D01*
X101844354Y-130799853D01*
X101696784Y-130898456D01*
X101532812Y-130966376D01*
X101383512Y-130996073D01*
X101358742Y-131001000D01*
X101181258Y-131001000D01*
X101156488Y-130996073D01*
X101007188Y-130966376D01*
X100843216Y-130898456D01*
X100695646Y-130799853D01*
X100570147Y-130674354D01*
X100471544Y-130526784D01*
X100403624Y-130362812D01*
X100369000Y-130188741D01*
X100369000Y-130011259D01*
X100403624Y-129837188D01*
X100471544Y-129673216D01*
X100570147Y-129525646D01*
X100695646Y-129400147D01*
X100843216Y-129301544D01*
X101007188Y-129233624D01*
X101156488Y-129203927D01*
X101181258Y-129199000D01*
X101358742Y-129199000D01*
X101383512Y-129203927D01*
G37*
G36*
X98843512Y-129203927D02*
G01*
X98992812Y-129233624D01*
X99156784Y-129301544D01*
X99304354Y-129400147D01*
X99429853Y-129525646D01*
X99528456Y-129673216D01*
X99596376Y-129837188D01*
X99631000Y-130011259D01*
X99631000Y-130188741D01*
X99596376Y-130362812D01*
X99528456Y-130526784D01*
X99429853Y-130674354D01*
X99304354Y-130799853D01*
X99156784Y-130898456D01*
X98992812Y-130966376D01*
X98843512Y-130996073D01*
X98818742Y-131001000D01*
X98641258Y-131001000D01*
X98616488Y-130996073D01*
X98467188Y-130966376D01*
X98303216Y-130898456D01*
X98155646Y-130799853D01*
X98030147Y-130674354D01*
X97931544Y-130526784D01*
X97863624Y-130362812D01*
X97829000Y-130188741D01*
X97829000Y-130011259D01*
X97863624Y-129837188D01*
X97931544Y-129673216D01*
X98030147Y-129525646D01*
X98155646Y-129400147D01*
X98303216Y-129301544D01*
X98467188Y-129233624D01*
X98616488Y-129203927D01*
X98641258Y-129199000D01*
X98818742Y-129199000D01*
X98843512Y-129203927D01*
G37*
G36*
X96303512Y-129203927D02*
G01*
X96452812Y-129233624D01*
X96616784Y-129301544D01*
X96764354Y-129400147D01*
X96889853Y-129525646D01*
X96988456Y-129673216D01*
X97056376Y-129837188D01*
X97091000Y-130011259D01*
X97091000Y-130188741D01*
X97056376Y-130362812D01*
X96988456Y-130526784D01*
X96889853Y-130674354D01*
X96764354Y-130799853D01*
X96616784Y-130898456D01*
X96452812Y-130966376D01*
X96303512Y-130996073D01*
X96278742Y-131001000D01*
X96101258Y-131001000D01*
X96076488Y-130996073D01*
X95927188Y-130966376D01*
X95763216Y-130898456D01*
X95615646Y-130799853D01*
X95490147Y-130674354D01*
X95391544Y-130526784D01*
X95323624Y-130362812D01*
X95289000Y-130188741D01*
X95289000Y-130011259D01*
X95323624Y-129837188D01*
X95391544Y-129673216D01*
X95490147Y-129525646D01*
X95615646Y-129400147D01*
X95763216Y-129301544D01*
X95927188Y-129233624D01*
X96076488Y-129203927D01*
X96101258Y-129199000D01*
X96278742Y-129199000D01*
X96303512Y-129203927D01*
G37*
G36*
X119709468Y-128953565D02*
G01*
X119748138Y-128965296D01*
X119783777Y-128984346D01*
X119815017Y-129009983D01*
X119840654Y-129041223D01*
X119859704Y-129076862D01*
X119871435Y-129115532D01*
X119876000Y-129161888D01*
X119876000Y-130238112D01*
X119871435Y-130284468D01*
X119859704Y-130323138D01*
X119840654Y-130358777D01*
X119815017Y-130390017D01*
X119783777Y-130415654D01*
X119748138Y-130434704D01*
X119709468Y-130446435D01*
X119663112Y-130451000D01*
X119011888Y-130451000D01*
X118965532Y-130446435D01*
X118926862Y-130434704D01*
X118891223Y-130415654D01*
X118859983Y-130390017D01*
X118834346Y-130358777D01*
X118815296Y-130323138D01*
X118803565Y-130284468D01*
X118799000Y-130238112D01*
X118799000Y-129161888D01*
X118803565Y-129115532D01*
X118815296Y-129076862D01*
X118834346Y-129041223D01*
X118859983Y-129009983D01*
X118891223Y-128984346D01*
X118926862Y-128965296D01*
X118965532Y-128953565D01*
X119011888Y-128949000D01*
X119663112Y-128949000D01*
X119709468Y-128953565D01*
G37*
G36*
X117834468Y-128953565D02*
G01*
X117873138Y-128965296D01*
X117908777Y-128984346D01*
X117940017Y-129009983D01*
X117965654Y-129041223D01*
X117984704Y-129076862D01*
X117996435Y-129115532D01*
X118001000Y-129161888D01*
X118001000Y-130238112D01*
X117996435Y-130284468D01*
X117984704Y-130323138D01*
X117965654Y-130358777D01*
X117940017Y-130390017D01*
X117908777Y-130415654D01*
X117873138Y-130434704D01*
X117834468Y-130446435D01*
X117788112Y-130451000D01*
X117136888Y-130451000D01*
X117090532Y-130446435D01*
X117051862Y-130434704D01*
X117016223Y-130415654D01*
X116984983Y-130390017D01*
X116959346Y-130358777D01*
X116940296Y-130323138D01*
X116928565Y-130284468D01*
X116924000Y-130238112D01*
X116924000Y-129161888D01*
X116928565Y-129115532D01*
X116940296Y-129076862D01*
X116959346Y-129041223D01*
X116984983Y-129009983D01*
X117016223Y-128984346D01*
X117051862Y-128965296D01*
X117090532Y-128953565D01*
X117136888Y-128949000D01*
X117788112Y-128949000D01*
X117834468Y-128953565D01*
G37*
G36*
X98186000Y-101751000D02*
G01*
X97714000Y-101751000D01*
X97714000Y-101675999D01*
X97711598Y-101651613D01*
X97704485Y-101628164D01*
X97692934Y-101606553D01*
X97677389Y-101587611D01*
X97658447Y-101572066D01*
X97636836Y-101560515D01*
X97613387Y-101553402D01*
X97589001Y-101551000D01*
X97284000Y-101551000D01*
X97284000Y-98449000D01*
X97589001Y-98449000D01*
X97613387Y-98446598D01*
X97636836Y-98439485D01*
X97658447Y-98427934D01*
X97677389Y-98412389D01*
X97692934Y-98393447D01*
X97704485Y-98371836D01*
X97711598Y-98348387D01*
X97714000Y-98324001D01*
X97714000Y-98249000D01*
X98186000Y-98249000D01*
X98186000Y-101751000D01*
G37*
G36*
X102286000Y-98574001D02*
G01*
X102288402Y-98598387D01*
X102295515Y-98621836D01*
X102307066Y-98643447D01*
X102322611Y-98662389D01*
X102341553Y-98677934D01*
X102363164Y-98689485D01*
X102386613Y-98696598D01*
X102410999Y-98699000D01*
X102716000Y-98699000D01*
X102716000Y-101301000D01*
X102410999Y-101301000D01*
X102386613Y-101303402D01*
X102363164Y-101310515D01*
X102341553Y-101322066D01*
X102322611Y-101337611D01*
X102307066Y-101356553D01*
X102295515Y-101378164D01*
X102288402Y-101401613D01*
X102286000Y-101425999D01*
X102286000Y-101451000D01*
X101814000Y-101451000D01*
X101814000Y-98549000D01*
X102286000Y-98549000D01*
X102286000Y-98574001D01*
G37*
M02*
