M48
; DRILL file {KiCad (5.1.5-0-10_14)} date Tuesday, January 07, 2020 at 01:17:44 PM
; FORMAT={2:4/ absolute / inch / suppress leading zeros}
; #@! TF.CreationDate,2020-01-07T13:17:44-08:00
; #@! TF.GenerationSoftware,Kicad,Pcbnew,(5.1.5-0-10_14)
FMAT,2
INCH,TZ
T1C0.0157
T2C0.0197
T3C0.0217
T4C0.0394
T5C0.0276
T6C0.0394
T7C0.1260
%
G90
G05
T1
X31969Y-54803
X31969Y-63346
X32008Y-65512
X32008Y-69606
X32480Y-54803
X32795Y-63307
X33228Y-62795
X33228Y-63307
X33425Y-50315
X33701Y-62126
X33976Y-58071
X34055Y-54606
X34606Y-62835
X35271Y-53932
X35984Y-63307
X36102Y-59213
X36811Y-53583
X36929Y-69016
X37165Y-57874
X37362Y-61220
X38346Y-58307
X38583Y-53031
X38819Y-64409
X39055Y-56496
X39488Y-56496
X39764Y-58150
X40157Y-58514
X40157Y-57756
X40157Y-57362
X40433Y-56772
X40669Y-61378
X41260Y-52972
X41417Y-59016
X41654Y-57598
X41654Y-61220
X41654Y-68189
X41890Y-55600
X42441Y-53386
X43228Y-58661
X43268Y-56457
X43858Y-57835
X44094Y-58228
X44370Y-65945
X44685Y-53937
X45354Y-56102
X45354Y-59606
X45906Y-52047
X45984Y-54882
T4
X37870Y-51220
X38870Y-51220
X39870Y-51220
X40870Y-51220
X46732Y-52441
X46732Y-53441
X46732Y-54441
X46732Y-55441
X46732Y-56441
X46732Y-57441
X46732Y-58441
X46732Y-59441
X46732Y-60441
X32110Y-51378
X33110Y-51378
T5
X38848Y-65471
T6
X39906Y-64413
T7
X35335Y-51417
X35335Y-60472
X43406Y-51417
X43406Y-60472
T2
G00X37992Y-69715
M15
G01X37992Y-69970
M16
G05
G00X40748Y-69713
M15
G01X40748Y-69972
M16
G05
T3
G00X38327Y-68780
M15
G01X38445Y-68780
M16
G05
G00X40295Y-68780
M15
G01X40413Y-68780
M16
G05
T0
M30
